<svg width="124" height="28" viewBox="0 0 124 28" fill="none" xmlns="http://www.w3.org/2000/svg">
<g id="_&#208;&#161;&#208;&#187;&#208;&#190;&#208;&#185;_1" opacity="0.8" clip-path="url(#clip0_1195_16209)">
<path id="Vector" d="M14.1549 27.6989C6.52936 28.518 0.244446 21.0792 0.264835 14.083C0.285224 6.63391 6.73835 0.182129 14.1854 0.182129C21.6886 0.182129 27.8971 6.52705 28.0041 14.1186C28.1009 21.1402 21.8466 28.4977 14.1549 27.6989ZM14.3638 22.3512C14.527 22.3614 14.685 22.3766 14.8481 22.3868C16.8666 17.665 18.8851 12.9483 20.9036 8.2265C20.766 8.10438 20.6335 7.98227 20.4958 7.86015C15.8217 9.87506 11.1475 11.89 6.47329 13.9049C6.49878 14.0626 6.52936 14.2203 6.55485 14.3781C6.92695 14.5307 7.28375 14.7139 7.66605 14.8258C8.72118 15.1362 9.77631 15.4873 10.8569 15.6908C12.1465 15.935 12.8143 16.5914 13.0793 17.9093C13.3801 19.4153 13.9255 20.8655 14.3638 22.3461V22.3512Z" fill="#191923"/>
<path id="Vector_2" d="M63.3221 11.5496C67.4712 10.2775 69.5713 10.7609 71.2075 13.3253C72.6602 15.5997 72.436 18.6323 70.6723 20.6675C68.8271 22.7944 66.4926 23.1149 63.4087 21.6445C63.1335 21.8683 62.8786 22.1838 62.5524 22.3161C61.0079 22.9368 60.0343 22.2499 60.0343 20.581C60.0343 16.5105 60.0343 12.44 60.0343 8.36946C60.0343 6.57334 60.1516 6.44614 61.7164 6.45632C63.1182 6.46649 63.1895 6.56317 63.1946 8.43052C63.1946 9.36165 63.1997 10.2928 63.2099 11.229C63.2099 11.3104 63.2609 11.3867 63.317 11.5496H63.3221ZM63.1131 16.5817C63.0978 18.4236 64.3007 19.7517 65.993 19.7466C67.6496 19.7466 68.9443 18.3677 68.9494 16.6021C68.9494 14.9281 67.67 13.6001 66.0236 13.5797C64.367 13.5645 63.1233 14.8416 63.108 16.5767L63.1131 16.5817Z" fill="#191923"/>
<path id="Vector_3" d="M84.6414 22.3919C83.5454 22.6362 82.9542 21.9594 82.7656 20.8502C82.5209 19.4154 81.741 18.815 80.2934 19.0643C80.0487 19.105 79.7837 19.0694 79.5288 19.0694C77.9487 19.0694 76.8562 19.8105 76.2513 21.2929C75.8639 22.2393 73.7791 22.9058 73.0502 22.2291C72.8361 22.0307 72.8922 21.3743 73.0247 21.0029C74.4621 17.1104 75.9454 13.2384 77.4135 9.35609C77.546 8.99992 77.7193 8.64884 77.8059 8.28249C78.0353 7.31066 78.5858 6.91378 79.6206 6.90869C80.6604 6.90869 81.1141 7.35645 81.4505 8.2774C82.9389 12.3734 84.4782 16.4541 86.0176 20.5348C86.6905 22.3207 86.6497 22.4123 84.6414 22.3919ZM81.216 16.0674C80.7063 14.6376 80.2628 13.4063 79.8245 12.18C79.6919 12.18 79.5594 12.18 79.4269 12.1851C78.9732 13.4215 78.5196 14.6579 77.9996 16.0674H81.2109H81.216Z" fill="#191923"/>
<path id="Vector_4" d="M109.982 21.6343C107.006 23.176 104.416 22.7843 102.586 20.5607C100.858 18.4644 100.797 14.9841 102.449 12.8573C104.248 10.5371 106.715 10.1351 109.896 11.5903C110.436 11.3563 110.9 11.0204 111.399 10.9594C113.082 10.7508 113.336 11.0204 113.336 12.6944C113.336 15.325 113.367 17.9505 113.316 20.5811C113.306 21.156 113.133 22.1024 112.801 22.2195C111.981 22.5095 110.956 22.7385 110.273 21.7615C110.232 21.7056 110.125 21.6954 109.988 21.6343H109.982ZM104.396 16.6581C104.416 18.4491 105.68 19.7517 107.398 19.7568C109.06 19.7568 110.349 18.3626 110.329 16.5818C110.309 14.8824 109.019 13.5594 107.378 13.5594C105.65 13.5594 104.375 14.8824 104.396 16.6581Z" fill="#191923"/>
<path id="Vector_5" d="M58.3157 16.7545C58.275 20.133 55.5734 22.7279 52.1532 22.6669C48.7176 22.6058 46.2148 20.0058 46.2505 16.5255C46.2811 13.1215 48.9572 10.5469 52.3876 10.6181C55.8283 10.6894 58.3616 13.3098 58.3157 16.7545ZM49.3242 16.6171C49.3242 18.3928 50.6495 19.7666 52.3214 19.731C53.9117 19.6954 55.2319 18.286 55.2319 16.6272C55.2319 14.9583 53.9117 13.6151 52.2602 13.6151C50.5832 13.6151 49.3191 14.9024 49.3191 16.6222L49.3242 16.6171Z" fill="#191923"/>
<path id="Vector_6" d="M92.4739 22.6106C89.9457 22.6106 88.6051 21.6795 88.233 19.5577C87.9629 18.0313 88.0189 16.4438 87.968 14.8817C87.9476 14.1897 87.8762 13.7063 87.0097 13.5181C86.658 13.4418 86.2757 12.6887 86.2502 12.2308C86.2298 11.8186 86.6325 11.0707 86.9434 11.0198C87.866 10.8621 88.0291 10.3634 87.9833 9.6002C87.968 9.34579 87.9833 9.09138 87.9884 8.83698C88.024 7.11209 88.8447 6.52696 90.5013 7.09174C90.7664 7.18333 91.011 7.49371 91.1334 7.76338C91.2455 8.0127 91.1894 8.34851 91.1894 8.64363C91.1792 11.1724 91.0773 10.9791 93.4271 10.9231C94.4364 10.8977 94.9002 11.2335 94.8849 12.3071C94.8697 13.3298 94.4058 13.6351 93.4679 13.6097C91.062 13.5537 91.1996 13.3705 91.1894 15.996C91.1894 16.7185 91.1538 17.441 91.2047 18.1534C91.2965 19.4509 92.0356 20.0614 93.2589 19.6289C94.4976 19.1914 94.8391 19.7969 95.15 20.7483C95.5068 21.8474 94.7218 22.0916 93.9929 22.3155C93.3914 22.4987 92.7492 22.5546 92.4637 22.6055L92.4739 22.6106Z" fill="#191923"/>
<path id="Vector_7" d="M44.3473 12.826C44.3473 14.4797 44.4543 16.1384 44.3218 17.7819C44.1485 19.9647 42.9404 21.5318 40.8607 22.2289C38.5925 22.9921 36.3854 22.7377 34.4994 21.1604C33.4901 20.3158 34.5962 19.6594 34.897 18.9674C35.1926 18.2907 35.6921 18.3263 36.2426 18.7283C36.4771 18.9013 36.7524 19.0335 37.0276 19.1506C39.1277 20.0563 40.978 18.9979 41.0697 16.7184C41.1768 14.0522 41.1156 11.3759 41.1258 8.7046C41.1309 7.1171 42.5377 6.2572 43.9395 7.06621C44.2402 7.23921 44.388 7.82944 44.4288 8.24667C44.5053 8.99971 44.4492 9.77311 44.4492 10.5363C44.4492 11.2996 44.4492 12.0628 44.4492 12.826C44.4135 12.826 44.383 12.826 44.3473 12.826Z" fill="#191923"/>
<path id="Vector_8" d="M119.738 10.3733C120.651 10.6837 121.594 10.9279 122.465 11.3248C123.046 11.5894 123.796 11.971 123.235 12.8563C122.756 13.6195 122.272 14.4794 121.176 13.5941C121.079 13.5178 120.957 13.4618 120.839 13.4211C120.024 13.1514 119.091 12.7851 118.658 13.818C118.566 14.0418 119.453 14.7695 119.983 15.1307C120.462 15.4564 121.079 15.5785 121.614 15.8278C123.434 16.6673 123.913 17.5171 123.74 19.5523C123.622 20.9566 122.588 22.0455 120.946 22.4475C119.02 22.9207 117.241 22.5849 115.666 21.3535C115.044 20.8701 114.626 20.3715 115.324 19.5727C115.905 18.9061 116.298 18.4533 117.276 19.1504C117.97 19.6439 118.984 19.7406 119.876 19.8576C120.126 19.8881 120.6 19.4098 120.691 19.0893C120.758 18.8654 120.416 18.3871 120.141 18.2294C119.519 17.8783 118.816 17.6697 118.153 17.3848C115.982 16.4587 115.11 15.1358 115.477 13.3397C115.808 11.7115 117.587 10.5208 119.743 10.3733H119.738Z" fill="#191923"/>
<path id="Vector_9" d="M96.4949 14.4803C96.4949 12.2364 96.5357 9.98743 96.4796 7.74356C96.449 6.56311 97.1117 6.45626 98.0241 6.46135C98.9161 6.46135 99.5991 6.52749 99.5889 7.72321C99.5481 12.216 99.5481 16.7038 99.5838 21.1966C99.594 22.4331 98.8243 22.3924 97.9731 22.3974C97.1371 22.4025 96.4541 22.3567 96.4796 21.217C96.5255 18.9731 96.4949 16.7241 96.4949 14.4803Z" fill="#191923"/>
</g>
<defs>
<clipPath id="clip0_1195_16209">
<rect width="123.506" height="27.5778" fill="white" transform="translate(0.264725 0.182129)"/>
</clipPath>
</defs>
</svg>
