<svg width="59" height="60" viewBox="0 0 59 60" fill="none" xmlns="http://www.w3.org/2000/svg">
<g id="shield 1" clip-path="url(#clip0_1163_4183)">
<path id="Vector" d="M28.5661 23.1691C28.9398 23.5296 29.5612 23.4567 29.8452 23.0216L35.437 14.4485C35.6934 14.0555 35.5875 13.5256 35.2007 13.2651C34.8143 13.0051 34.2927 13.1127 34.0363 13.5052L28.9971 21.231L26.1971 18.5301C25.8606 18.2056 25.3289 18.2198 25.0091 18.5616C24.6896 18.9035 24.7036 19.4436 25.0401 19.7681C25.0397 19.7681 28.5631 23.1665 28.5661 23.1691Z" fill="url(#paint0_linear_1163_4183)"/>
<path id="Vector_2" d="M29.1379 36.187C29.2985 36.2616 29.4762 36.3012 29.653 36.3012H29.66C29.8398 36.3003 30.0201 36.2585 30.1811 36.1803C42.9566 30.0081 45.1218 16.691 45.4806 12.7566C45.5629 11.8582 45.0649 11.0216 44.2418 10.6749C41.6986 9.60222 39.9697 7.20357 39.7299 4.41508C39.656 3.5567 38.934 2.8877 38.0833 2.8877H38.0733L20.8616 2.99038C19.9939 2.99527 19.2889 3.66517 19.2224 4.54844C19.0106 7.33782 17.3071 9.75381 14.7766 10.8536C13.9619 11.2074 13.4761 12.0484 13.5689 12.9464C13.9732 16.8764 16.292 30.1672 29.1379 36.187ZM15.4374 12.4227C18.5402 11.0749 20.6305 8.11574 20.8961 4.69691L38.0584 4.59467C38.3634 8.00594 40.4834 10.938 43.5977 12.2511C43.7368 12.3103 43.8213 12.4498 43.8077 12.5992C43.4708 16.2865 41.4549 28.7194 29.6499 34.5458C17.7771 28.8612 15.6194 16.4523 15.2396 12.769C15.2243 12.6201 15.3039 12.481 15.4374 12.4227Z" fill="url(#paint1_linear_1163_4183)"/>
<path id="Vector_3" d="M17.5362 17.1543C17.6378 17.5339 18.1117 17.8816 18.5676 17.754C19.0148 17.6286 19.2796 17.1614 19.1579 16.7067C18.9439 15.9057 18.7641 15.0935 18.6228 14.2889C20.9052 12.778 22.599 10.5229 23.43 7.88912L35.5631 7.81666C36.4243 10.4398 38.144 12.6753 40.4439 14.1587C40.3122 14.9655 40.1415 15.7803 39.9363 16.5844C39.8199 17.041 40.0899 17.5068 40.5388 17.6251C40.9887 17.7433 41.4468 17.469 41.5632 17.0125C41.8039 16.0683 41.9999 15.11 42.1452 14.164C42.2266 13.6355 41.9885 13.1158 41.5396 12.8402C39.3972 11.5258 37.8136 9.46362 37.0807 7.03385C36.9157 6.48753 36.4085 6.10791 35.8458 6.10791H35.8379L23.1351 6.18348C22.5688 6.18704 22.0621 6.57422 21.9033 7.12454C21.1988 9.56275 19.6388 11.6436 17.5117 12.9838C17.0658 13.2643 16.8344 13.7866 16.9214 14.3147C17.0781 15.2584 17.2846 16.2137 17.5362 17.1543Z" fill="url(#paint2_linear_1163_4183)"/>
<path id="Vector_4" d="M39.8639 19.6849C39.4351 19.5045 38.9441 19.7125 38.7669 20.1481C36.8254 24.9285 33.7518 28.563 29.629 30.9549C25.4742 28.6092 22.356 25.0054 20.3598 20.2401C20.1777 19.8067 19.6841 19.6049 19.2575 19.7894C18.8304 19.9739 18.6318 20.4753 18.8134 20.9087C20.9921 26.1087 24.4244 30.029 29.0151 32.5597C29.2085 32.6668 29.4203 32.7197 29.6316 32.7197C29.8482 32.7197 30.0644 32.6641 30.2613 32.5526C34.8173 29.9703 38.2016 26.0158 40.3203 20.7989C40.4975 20.3633 40.2932 19.8645 39.8639 19.6849Z" fill="url(#paint3_linear_1163_4183)"/>
<path id="Vector_5" d="M6.24688 46.5603C4.60815 46.5603 3.27441 47.9148 3.27441 49.58C3.27441 51.2451 4.60815 52.5996 6.24688 52.5996C7.88605 52.5996 9.21978 51.2451 9.21978 49.58C9.21978 47.9148 7.88649 46.5603 6.24688 46.5603ZM6.24688 50.8926C5.5345 50.8926 4.95471 50.3041 4.95471 49.58C4.95471 48.8563 5.5345 48.2673 6.24688 48.2673C6.9597 48.2673 7.53949 48.8563 7.53949 49.58C7.53949 50.3041 6.9597 50.8926 6.24688 50.8926Z" fill="url(#paint4_linear_1163_4183)"/>
<path id="Vector_6" d="M57.6071 38.2047C56.5303 36.5973 54.3621 36.1715 52.7741 37.2552L41.7909 44.7228L39.4463 44.589L39.3864 43.9791C39.1527 41.5907 37.3556 39.6877 35.0163 39.3516C35.0014 39.3494 34.987 39.3476 34.9721 39.3463L23.1374 38.2928C22.737 38.2292 21.4553 37.8553 17.9337 35.8034C16.1033 34.737 14.041 34.1351 11.9459 34.0533V31.8205C11.9459 30.6998 11.0488 29.7886 9.94571 29.7886H2.85564C1.75294 29.7886 0.855469 30.7003 0.855469 31.8205V53.8115C0.855469 54.9317 1.75294 55.8434 2.85564 55.8434H9.94571C11.0484 55.8434 11.9459 54.9317 11.9459 53.8115V53.2056L22.2911 57.1854C22.3139 57.1943 23.154 57.5135 24.6987 57.3655C24.703 57.365 41.888 54.8481 41.888 54.8481C41.8924 54.8477 41.8963 54.8468 41.9007 54.8459C43.3692 54.6081 44.7542 53.9773 45.9063 53.0229C45.9168 53.014 45.9269 53.0051 45.9369 52.9963L57.0387 42.8527C58.3471 41.6725 58.5917 39.6743 57.6071 38.2047ZM55.919 41.58L44.829 51.7129C43.9109 52.4691 42.8091 52.9691 41.6417 53.1594L24.465 55.675C24.461 55.6754 24.4554 55.6763 24.4501 55.6772C24.4475 55.6776 24.4444 55.6781 24.4418 55.6785C23.9281 55.7607 23.3929 55.7261 22.8508 55.5754L11.9459 51.3804V41.6333C11.9459 41.1617 11.5696 40.7799 11.1057 40.7799C10.6415 40.7799 10.2656 41.1617 10.2656 41.6333V53.8115C10.2656 53.9907 10.1221 54.1365 9.94571 54.1365H2.85564C2.67929 54.1365 2.53577 53.9907 2.53577 53.8115V31.8205C2.53577 31.6413 2.67929 31.4955 2.85564 31.4955H9.94571C10.1221 31.4955 10.2656 31.6413 10.2656 31.8205V37.778C10.2656 38.2496 10.6419 38.6315 11.1057 38.6315C11.57 38.6315 11.9459 38.2492 11.9459 37.778V35.7621C13.7483 35.843 15.5213 36.3657 17.0975 37.2846C21.3451 39.7592 22.5313 39.9299 22.9212 39.9859C22.9361 39.9882 22.9505 39.9895 22.9654 39.9913L34.8014 41.0448C36.3619 41.2791 37.5582 42.5522 37.7144 44.148L37.759 44.6028L21.913 45.5967C21.9021 45.5958 21.8912 45.5949 21.8815 45.5941C21.3678 45.5469 20.904 45.3002 20.5745 44.8993C20.2774 44.537 19.7475 44.4881 19.3913 44.7904C19.0346 45.0922 18.9865 45.6305 19.2841 45.9923C19.9006 46.7436 20.7705 47.193 21.7319 47.2944C22.2508 47.3495 38.6832 46.2551 38.6832 46.2551L41.9773 46.4431C42.1593 46.4538 42.34 46.4031 42.4914 46.3L53.7101 38.6728C54.534 38.1105 55.659 38.331 56.2178 39.1649C56.7285 39.9277 56.6016 40.9643 55.919 41.58Z" fill="url(#paint5_linear_1163_4183)"/>
</g>
<defs>
<linearGradient id="paint0_linear_1163_4183" x1="30.1776" y1="13.1233" x2="30.1776" y2="23.3994" gradientUnits="userSpaceOnUse">
<stop stop-color="#8D1038"/>
<stop offset="1" stop-color="#191923"/>
</linearGradient>
<linearGradient id="paint1_linear_1163_4183" x1="29.5235" y1="2.8877" x2="29.5235" y2="36.3012" gradientUnits="userSpaceOnUse">
<stop stop-color="#8D1038"/>
<stop offset="1" stop-color="#191923"/>
</linearGradient>
<linearGradient id="paint2_linear_1163_4183" x1="29.5321" y1="6.10791" x2="29.5321" y2="17.7809" gradientUnits="userSpaceOnUse">
<stop stop-color="#8D1038"/>
<stop offset="1" stop-color="#191923"/>
</linearGradient>
<linearGradient id="paint3_linear_1163_4183" x1="29.5651" y1="19.6199" x2="29.5651" y2="32.7197" gradientUnits="userSpaceOnUse">
<stop stop-color="#8D1038"/>
<stop offset="1" stop-color="#191923"/>
</linearGradient>
<linearGradient id="paint4_linear_1163_4183" x1="6.2471" y1="46.5603" x2="6.2471" y2="52.5996" gradientUnits="userSpaceOnUse">
<stop stop-color="#8D1038"/>
<stop offset="1" stop-color="#191923"/>
</linearGradient>
<linearGradient id="paint5_linear_1163_4183" x1="29.5326" y1="29.7886" x2="29.5326" y2="57.4046" gradientUnits="userSpaceOnUse">
<stop stop-color="#8D1038"/>
<stop offset="1" stop-color="#191923"/>
</linearGradient>
<clipPath id="clip0_1163_4183">
<rect width="57.3542" height="58.2646" fill="white" transform="translate(0.856445 0.953125)"/>
</clipPath>
</defs>
</svg>
