<svg width="134" height="134" viewBox="0 0 134 134" fill="none" xmlns="http://www.w3.org/2000/svg">
<g id="shield 1" clip-path="url(#clip0_1163_4104)">
<path id="Vector" d="M64.7388 51.0935C65.6119 51.9226 67.0636 51.7549 67.7271 50.7541L80.7916 31.0372C81.3907 30.1335 81.1433 28.9148 80.2395 28.3158C79.3368 27.7177 78.1182 27.9651 77.5191 28.8678L65.7458 46.6361L59.2039 40.4243C58.4177 39.678 57.1756 39.7107 56.4282 40.4969C55.6819 41.2831 55.7146 42.5252 56.5008 43.2716C56.4998 43.2716 64.7317 51.0873 64.7388 51.0935Z" fill="#FFF0F0"/>
<path id="Vector_2" d="M66.078 81.0326C66.4532 81.2044 66.8682 81.2954 67.2813 81.2954H67.2976C67.7178 81.2933 68.139 81.1972 68.5152 81.0173C98.3634 66.8221 103.422 36.1949 104.26 27.1462C104.452 25.08 103.289 23.156 101.366 22.3586C95.4242 19.8917 91.3849 14.3751 90.8247 7.96198C90.6519 5.98784 88.9651 4.44922 86.9776 4.44922H86.9541L46.7414 4.68538C44.7141 4.69662 43.0672 6.23729 42.9118 8.26868C42.4169 14.6839 38.437 20.2403 32.5248 22.7695C30.6212 23.5833 29.4864 25.5176 29.7031 27.5827C30.6478 36.6212 36.0652 67.1881 66.078 81.0326ZM34.0685 26.3784C41.3179 23.2787 46.2016 16.4729 46.8222 8.61014L86.9194 8.375C87.6319 16.2204 92.5852 22.9638 99.8612 25.9838C100.186 26.1197 100.384 26.4408 100.352 26.7843C99.5647 35.2646 94.8548 63.8584 67.2741 77.2582C39.535 64.1845 34.4938 35.6459 33.6064 27.1748C33.5706 26.8323 33.7567 26.5123 34.0685 26.3784Z" fill="#FFF0F0"/>
<path id="Vector_3" d="M38.9695 37.2601C39.2066 38.1332 40.3138 38.9327 41.3791 38.6392C42.4239 38.3509 43.0425 37.2765 42.7582 36.2306C42.2583 34.3884 41.8381 32.5205 41.5079 30.6701C46.8405 27.1952 50.7979 22.0089 52.7393 15.9515L81.0868 15.7849C83.0987 21.8177 87.1165 26.959 92.4899 30.3706C92.1822 32.2261 91.7835 34.1001 91.304 35.9495C91.0321 36.9994 91.6629 38.0708 92.7118 38.3428C93.7627 38.6147 94.8331 37.9839 95.1051 36.934C95.6674 34.7625 96.1254 32.5584 96.4648 30.3828C96.6549 29.1673 96.0988 27.9722 95.0499 27.3383C90.0445 24.3152 86.3447 19.5726 84.6322 13.9845C84.2468 12.7281 83.0619 11.855 81.7472 11.855H81.7288L52.0503 12.0288C50.7274 12.037 49.5435 12.9274 49.1724 14.1931C47.5264 19.8006 43.8818 24.5862 38.9122 27.6685C37.8704 28.3136 37.3296 29.5149 37.5331 30.7294C37.8991 32.8998 38.3816 35.0968 38.9695 37.2601Z" fill="#FFF0F0"/>
<path id="Vector_4" d="M91.1377 43.0803C90.1358 42.6652 88.9887 43.1437 88.5747 44.1456C84.0385 55.1398 76.8576 63.4984 67.2252 68.9996C57.518 63.6048 50.2329 55.3167 45.5689 44.3572C45.1437 43.3604 43.9905 42.8963 42.9937 43.3205C41.9959 43.7448 41.5317 44.898 41.956 45.8948C47.0462 57.8541 55.0655 66.8701 65.7908 72.6903C66.2427 72.9367 66.7375 73.0583 67.2313 73.0583C67.7373 73.0583 68.2424 72.9305 68.7024 72.6739C79.347 66.7352 87.2538 57.6404 92.204 45.6423C92.618 44.6404 92.1406 43.4933 91.1377 43.0803Z" fill="#FFF0F0"/>
<path id="Vector_5" d="M12.5942 104.89C8.7655 104.89 5.64941 108.005 5.64941 111.835C5.64941 115.664 8.7655 118.779 12.5942 118.779C16.4238 118.779 19.5399 115.664 19.5399 111.835C19.5399 108.005 16.4249 104.89 12.5942 104.89ZM12.5942 114.854C10.9298 114.854 9.5752 113.5 9.5752 111.835C9.5752 110.17 10.9298 108.816 12.5942 108.816C14.2596 108.816 15.6142 110.17 15.6142 111.835C15.6142 113.5 14.2596 114.854 12.5942 114.854Z" fill="#FFF0F0"/>
<path id="Vector_6" d="M132.592 85.6731C130.076 81.9763 125.011 80.9969 121.301 83.4894L95.6398 100.664L90.1621 100.356L90.0221 98.9533C89.4761 93.4602 85.2774 89.0836 79.812 88.3107C79.7772 88.3056 79.7435 88.3015 79.7087 88.2984L52.0585 85.8755C51.1231 85.7293 48.1287 84.8695 39.9009 80.1504C35.6244 77.6978 30.8061 76.3136 25.9112 76.1255V70.9903C25.9112 68.4129 23.8154 66.3171 21.2381 66.3171H4.67311C2.09682 66.3171 0 68.414 0 70.9903V121.566C0 124.143 2.09682 126.239 4.67311 126.239H21.2381C23.8144 126.239 25.9112 124.143 25.9112 121.566V120.173L50.0813 129.326C50.1345 129.346 52.0974 130.08 55.7062 129.74C55.7165 129.739 95.8668 123.95 95.8668 123.95C95.877 123.949 95.8862 123.947 95.8964 123.945C99.3274 123.398 102.563 121.948 105.255 119.753C105.279 119.732 105.303 119.712 105.326 119.691L131.264 96.3627C134.321 93.6483 134.893 89.0529 132.592 85.6731ZM128.648 93.4357L102.738 116.74C100.593 118.479 98.0188 119.629 95.2912 120.067L55.1603 125.852C55.1511 125.853 55.1378 125.855 55.1255 125.857C55.1194 125.858 55.1123 125.859 55.1061 125.86C53.9059 126.049 52.6556 125.97 51.3889 125.623L25.9112 115.975V93.5584C25.9112 92.4737 25.032 91.5955 23.9483 91.5955C22.8636 91.5955 21.9854 92.4737 21.9854 93.5584V121.566C21.9854 121.978 21.6501 122.314 21.2381 122.314H4.67311C4.26111 122.314 3.92578 121.978 3.92578 121.566V70.9903C3.92578 70.5782 4.26111 70.2429 4.67311 70.2429H21.2381C21.6501 70.2429 21.9854 70.5782 21.9854 70.9903V84.6916C21.9854 85.7763 22.8646 86.6545 23.9483 86.6545C25.033 86.6545 25.9112 85.7753 25.9112 84.6916V80.0553C30.1222 80.2414 34.2647 81.4437 37.9472 83.5568C47.871 89.2482 50.6426 89.6408 51.5535 89.7696C51.5883 89.7747 51.622 89.7778 51.6567 89.7819L79.31 92.2048C82.9557 92.7436 85.7507 95.6716 86.1157 99.3418L86.22 100.388L49.198 102.674C49.1725 102.672 49.1469 102.669 49.1244 102.667C47.9242 102.559 46.8405 101.992 46.0707 101.07C45.3765 100.236 44.1385 100.124 43.3063 100.819C42.4731 101.513 42.3606 102.751 43.0558 103.583C44.4963 105.311 46.5287 106.345 48.7748 106.578C49.9873 106.705 88.3792 104.188 88.3792 104.188L96.0753 104.62C96.5006 104.645 96.9229 104.528 97.2766 104.291L123.487 86.7496C125.412 85.4563 128.041 85.9634 129.346 87.8813C130.539 89.6357 130.243 92.0198 128.648 93.4357Z" fill="#FFF0F0"/>
</g>
<defs>
<clipPath id="clip0_1163_4104">
<rect width="134" height="134" fill="white"/>
</clipPath>
</defs>
</svg>
