<?xml version="1.0"?>
<svg xmlns="http://www.w3.org/2000/svg" id="Icons" viewBox="0 0 60 60" width="512" height="512"><path d="M6,60H51a3,3,0,0,0,3-3V47.816A3,3,0,0,0,56,45V39a3,3,0,0,0-2-2.816V28a3,3,0,0,0-2-2.816V19a4,4,0,0,0-4-4H46a1,1,0,0,0-1.707-.707L43.586,15H32.414l-1.707-1.707a1,1,0,0,0-1.414,1.414l.293.293H11.534a6.792,6.792,0,0,1-.085-3.744,1,1,0,0,0-1.934-.512A8.787,8.787,0,0,0,9.461,15H6a6.006,6.006,0,0,0-6,6V54A6.006,6.006,0,0,0,6,60Zm45-2H6a4,4,0,0,1-4-4V25.46A5.969,5.969,0,0,0,6,27H51a1,1,0,0,1,1,1v8H46a6,6,0,0,0,0,12h6v9A1,1,0,0,1,51,58Zm3-13a1,1,0,0,1-1,1H46a4,4,0,0,1,0-8h7a1,1,0,0,1,1,1ZM6,17h4.2a8.731,8.731,0,0,0,1.033,1.588,1,1,0,0,0,1.542-1.275c-.083-.1-.152-.209-.229-.313H31.586l2.292,2.292a5.808,5.808,0,0,0,2.916,1.582A.978.978,0,0,0,37,20.9a1,1,0,0,0,.205-1.979,3.819,3.819,0,0,1-1.914-1.039L34.414,17h7.172l-.878.878a1,1,0,1,0,1.414,1.414L44.414,17H48a2,2,0,0,1,2,2v6H20.414l-4.707-4.707a1,1,0,0,0-1.414,1.414L17.586,25H6a4,4,0,0,1,0-8Z"/><path d="M55.964,4.291c-.1,0-.188.021-.283.028.007-.095.028-.187.028-.283a4.035,4.035,0,0,0-8.069-.119,3.6,3.6,0,0,0-.607.484,3.5,3.5,0,0,0,1.338,5.814l-1.078,1.078a1,1,0,1,0,1.414,1.414l1.078-1.077A3.517,3.517,0,0,0,55.6,12.967a3.6,3.6,0,0,0,.484-.607,4.035,4.035,0,0,0-.119-8.069ZM48.447,7.978a1.534,1.534,0,0,1,0-2.163,1.592,1.592,0,0,1,.572-.361,1,1,0,0,0,.645-1.1,2.035,2.035,0,1,1,3.447,1.121l-2.5,2.5A1.53,1.53,0,0,1,48.447,7.978ZM57.4,9.765a2.027,2.027,0,0,1-1.755.571,1,1,0,0,0-1.1.645,1.592,1.592,0,0,1-.361.572,1.529,1.529,0,1,1-2.163-2.161l2.5-2.5A2.034,2.034,0,1,1,57.4,9.765Z"/><path d="M47,41H45a1,1,0,0,0,0,2h2a1,1,0,0,0,0-2Z"/><path d="M49,50a1,1,0,0,0-1,1v2a1,1,0,0,1-1,1H7a1,1,0,0,1-1-1V32a1,1,0,0,1,1-1H47a1,1,0,0,1,1,1v1a1,1,0,0,0,2,0V32a3,3,0,0,0-3-3H7a3,3,0,0,0-3,3V53a3,3,0,0,0,3,3H47a3,3,0,0,0,3-3V51A1,1,0,0,0,49,50Z"/><path d="M13.207,8.207a6.724,6.724,0,0,1,5.665-1.929,1.013,1.013,0,0,0,1.12-.864,1,1,0,0,0-.864-1.12,8.729,8.729,0,0,0-7.335,2.5,1,1,0,1,0,1.414,1.414Z"/><path d="M26.293,11.707a1,1,0,0,0,1.414-1.414l-3.5-3.5q-.273-.273-.563-.517a1,1,0,0,0-1.285,1.534q.225.188.435.4Z"/></svg>
