<?xml version="1.0" encoding="UTF-8"?>
<svg xmlns="http://www.w3.org/2000/svg" xmlns:xlink="http://www.w3.org/1999/xlink" version="1.1" id="Capa_1" x="0px" y="0px" viewBox="0 0 512 512" style="enable-background:new 0 0 512 512;" xml:space="preserve" width="512" height="512">
<g>
	
		<circle style="fill:none;stroke:#000000;stroke-width:20;stroke-linecap:round;stroke-linejoin:round;stroke-miterlimit:10;" cx="256" cy="256" r="132.5"/>
	<path style="fill:none;stroke:#000000;stroke-width:20;stroke-linecap:round;stroke-linejoin:round;stroke-miterlimit:10;" d="&#10;&#9;&#9;M383.18,88.87C433.51,127.24,469,187.83,469,256c0,0.22,0.033,1.647,0.033,1.647"/>
	<path style="fill:none;stroke:#000000;stroke-width:20;stroke-linecap:round;stroke-linejoin:round;stroke-miterlimit:10;" d="&#10;&#9;&#9;M42.731,257.647c0,0,0.033-1.427,0.033-1.647c0-68.17,35.49-128.76,85.82-167.13"/>
	<path style="fill:none;stroke:#000000;stroke-width:20;stroke-linecap:round;stroke-linejoin:round;stroke-miterlimit:10;" d="&#10;&#9;&#9;M415.988,398.634l0.948,0.528c16.361,9.12,36.967,3.814,46.967-12.025c16.626-26.334,28.392-56.039,34.039-87.859&#10;&#9;&#9;c3.47-19.554-9.61-38.212-29.173-41.631h0c-19.393-3.39-37.74,9.504-41.476,28.833c-4.334,22.42-12.619,43.984-24.067,62.815&#10;&#9;&#9;C392.784,366.473,398.43,388.847,415.988,398.634z"/>
	<path style="fill:none;stroke:#000000;stroke-width:20;stroke-linecap:round;stroke-linejoin:round;stroke-miterlimit:10;" d="&#10;&#9;&#9;M96.012,398.634l-0.948,0.528c-16.361,9.12-36.967,3.814-46.967-12.025c-16.626-26.334-28.392-56.039-34.039-87.859&#10;&#9;&#9;c-3.47-19.554,9.61-38.212,29.173-41.631h0c19.393-3.39,37.74,9.504,41.476,28.833c4.334,22.42,12.619,43.984,24.067,62.815&#10;&#9;&#9;C119.216,366.473,113.57,388.847,96.012,398.634z"/>
	<path style="fill:none;stroke:#000000;stroke-width:20;stroke-linecap:round;stroke-linejoin:round;stroke-miterlimit:10;" d="&#10;&#9;&#9;M301.171,14.139c31.442,5.837,60.783,17.655,86.799,34.226c10.236,6.52,12.258,20.639,4.355,29.849l-9.344,10.89&#10;&#9;&#9;c-12.151,14.161-32.395,18.46-49.098,10.143C310.425,87.566,283.976,81,256,81s-54.425,6.566-77.882,18.247&#10;&#9;&#9;c-16.703,8.318-36.947,4.018-49.098-10.143l-9.344-10.89c-7.903-9.21-5.881-23.329,4.355-29.849&#10;&#9;&#9;c26.204-16.692,55.783-28.561,87.483-34.352"/>
	
		<line style="fill:none;stroke:#000000;stroke-width:20;stroke-linecap:round;stroke-linejoin:round;stroke-miterlimit:10;" x1="256.391" y1="10" x2="256.391" y2="10"/>
	<path style="fill:none;stroke:#000000;stroke-width:20;stroke-linecap:round;stroke-linejoin:round;stroke-miterlimit:10;" d="&#10;&#9;&#9;M291,502h-70c-16.569,0-30-13.431-30-30v0c0-16.569,13.431-30,30-30h70c16.569,0,30,13.431,30,30v0&#10;&#9;&#9;C321,488.569,307.569,502,291,502z"/>
	
		<path style="fill:none;stroke:#000000;stroke-width:20;stroke-linecap:round;stroke-linejoin:round;stroke-miterlimit:10;stroke-dasharray:427,45,0,45,1000,0;" d="&#10;&#9;&#9;M415.988,398.634c0,0-38.988,73.366-94.988,73.366"/>
	
		<line style="fill:none;stroke:#000000;stroke-width:20;stroke-linecap:round;stroke-linejoin:round;stroke-miterlimit:10;" x1="226" y1="238.5" x2="175.89" y2="209.75"/>
	
		<line style="fill:none;stroke:#000000;stroke-width:20;stroke-linecap:round;stroke-linejoin:round;stroke-miterlimit:10;" x1="336.11" y1="302.25" x2="286" y2="273.5"/>
	
		<line style="fill:none;stroke:#000000;stroke-width:20;stroke-linecap:round;stroke-linejoin:round;stroke-miterlimit:10;" x1="226" y1="273.5" x2="175.89" y2="302.25"/>
	
		<line style="fill:none;stroke:#000000;stroke-width:20;stroke-linecap:round;stroke-linejoin:round;stroke-miterlimit:10;" x1="336.11" y1="209.75" x2="286" y2="238.5"/>
	
		<line style="fill:none;stroke:#000000;stroke-width:20;stroke-linecap:round;stroke-linejoin:round;stroke-miterlimit:10;" x1="256" y1="348.5" x2="256" y2="291"/>
	
		<line style="fill:none;stroke:#000000;stroke-width:20;stroke-linecap:round;stroke-linejoin:round;stroke-miterlimit:10;" x1="256" y1="221" x2="256" y2="163.5"/>
	
		<polyline style="fill:none;stroke:#000000;stroke-width:20;stroke-linecap:round;stroke-linejoin:round;stroke-miterlimit:10;" points="&#10;&#9;&#9;319.277,190.599 314.457,222.25 344.277,233.901 &#9;"/>
	
		<polyline style="fill:none;stroke:#000000;stroke-width:20;stroke-linecap:round;stroke-linejoin:round;stroke-miterlimit:10;" points="&#10;&#9;&#9;192.723,321.401 197.543,289.75 167.723,278.099 &#9;"/>
	
		<polyline style="fill:none;stroke:#000000;stroke-width:20;stroke-linecap:round;stroke-linejoin:round;stroke-miterlimit:10;" points="&#10;&#9;&#9;344.277,278.099 314.457,289.75 319.277,321.401 &#9;"/>
	
		<polyline style="fill:none;stroke:#000000;stroke-width:20;stroke-linecap:round;stroke-linejoin:round;stroke-miterlimit:10;" points="&#10;&#9;&#9;167.723,233.901 197.543,222.25 192.723,190.599 &#9;"/>
	
		<polyline style="fill:none;stroke:#000000;stroke-width:20;stroke-linecap:round;stroke-linejoin:round;stroke-miterlimit:10;" points="&#10;&#9;&#9;231,168.5 256,188.5 281,168.5 &#9;"/>
	
		<polyline style="fill:none;stroke:#000000;stroke-width:20;stroke-linecap:round;stroke-linejoin:round;stroke-miterlimit:10;" points="&#10;&#9;&#9;281,343.5 256,323.5 231,343.5 &#9;"/>
	
		<polygon style="fill:none;stroke:#000000;stroke-width:20;stroke-linecap:round;stroke-linejoin:round;stroke-miterlimit:10;" points="&#10;&#9;&#9;286,273.5 286,238.5 256,221 226,238.5 226,273.5 256,291 &#9;"/>
</g>















</svg>
