<?xml version="1.0" encoding="UTF-8"?>
<svg xmlns="http://www.w3.org/2000/svg" id="Outline" viewBox="0 0 512 512" width="512" height="512"><path d="M369.542,99.177a72,72,0,1,0,76.916,0l-20.3-35.516a23.991,23.991,0,1,0-41.756-20.035L285.35,59.267a32.157,32.157,0,0,0-18.8-17.472l-2.624-18.9a8,8,0,0,0-15.848,0l-2.624,18.9a32.07,32.07,0,0,0-21.3,27.135L125.1,84.57a23.992,23.992,0,1,0-39.262,27.091l-20.3,35.516a72,72,0,1,0,76.916,0l-20.3-35.516a23.918,23.918,0,0,0,5.43-11.287l99.057-15.64a32.189,32.189,0,0,0,10.971,13.438L208.076,310.9A8,8,0,0,0,216,320h80a8,8,0,0,0,7.924-9.1L274.379,98.172a32.006,32.006,0,0,0,13.47-23.1L386.9,59.43a24.052,24.052,0,0,0,2.936,4.231ZM104,88a8,8,0,1,1-8,8A8.009,8.009,0,0,1,104,88Zm56,120a56,56,0,1,1-56-56A56.064,56.064,0,0,1,160,208Zm-56-72a72.052,72.052,0,0,0-14.479,1.463l10.2-17.852a23.718,23.718,0,0,0,8.556,0l10.2,17.852A72.045,72.045,0,0,0,104,136ZM256,56a16,16,0,1,1-16,16A16.019,16.019,0,0,1,256,56Zm30.812,248H225.188l27.8-200.146c.993.093,2,.146,3.014.146s2.021-.053,3.014-.146ZM464,160a56,56,0,1,1-56-56A56.064,56.064,0,0,1,464,160ZM408,88a72.045,72.045,0,0,0-14.479,1.463l10.2-17.852a23.718,23.718,0,0,0,8.556,0l10.2,17.852A72.045,72.045,0,0,0,408,88Zm0-48a8,8,0,1,1-8,8A8.009,8.009,0,0,1,408,40Z"/><path d="M85.657,210.343a8,8,0,0,0-11.314,11.314l16,16a8,8,0,0,0,11.314,0l40-40a8,8,0,0,0-11.314-11.314L96,220.687Z"/><path d="M389.657,130.343a8,8,0,0,0-11.314,11.314L396.687,160l-18.344,18.343a8,8,0,0,0,11.314,11.314L408,171.313l18.343,18.344a8,8,0,1,0,11.314-11.314L419.313,160l18.344-18.343a8,8,0,0,0-11.314-11.314L408,148.687Z"/><path d="M495.237,383.641a30.783,30.783,0,0,0-36.289-18.322L296.892,407.6l-36.159-14.464,20.006-4.978a26.106,26.106,0,0,0-7.658-51.4L136.156,344,104,343.976V336a8,8,0,0,0-8-8H24a8,8,0,0,0-8,8V480a8,8,0,0,0,8,8H96a8,8,0,0,0,8-8v-9.055l48-6.813,134.534,31.655a8,8,0,0,0,4.7-.32l186.5-71.731a30.729,30.729,0,0,0,17.5-40.095ZM88,472H32V344H88Zm392.205-71.053a14.626,14.626,0,0,1-8.213,7.855L287.8,479.647,154.2,448.213a7.948,7.948,0,0,0-2.956-.133L104,454.785V359.976l32.358.024c.137,0,.286,0,.429-.011L273.9,352.733a10.105,10.105,0,0,1,9.17,15.292,10.028,10.028,0,0,1-6.206,4.6l-78.8,19.609a8,8,0,1,0,3.864,15.526l32.242-8.023,59.22,23.688a8.008,8.008,0,0,0,4.99.313l164.6-42.94a14.73,14.73,0,0,1,17.218,20.146Z"/></svg>
