<svg version="1.1" id="Capa_1" xmlns="http://www.w3.org/2000/svg" xmlns:xlink="http://www.w3.org/1999/xlink" x="0px" y="0px" viewBox="0 0 512 512" style="enable-background:new 0 0 512 512;" xml:space="preserve">
<g>
	<path style="fill:none;stroke:#000000;stroke-width:15;stroke-linecap:round;stroke-linejoin:round;stroke-miterlimit:10;" d="&#10;&#9;&#9;M48.773,384.369c12.576-12.165,29.707-19.65,48.586-19.65c38.6,0,69.891,31.291,69.891,69.891S135.959,504.5,97.359,504.5&#10;&#9;&#9;s-69.891-31.291-69.891-69.891c0-7.037,1.04-13.831,2.975-20.237"/>
	
		<polyline style="fill:none;stroke:#000000;stroke-width:15;stroke-linecap:round;stroke-linejoin:round;stroke-miterlimit:10;" points="&#10;&#9;&#9;60.673,375.11 97.359,287.062 134.046,375.11 &#9;"/>
	<path style="fill:none;stroke:#000000;stroke-width:15;stroke-linecap:round;stroke-linejoin:round;stroke-miterlimit:10;" d="&#10;&#9;&#9;M162.812,245.246L18.007,268.181c-5.455,0.864-9.177,5.986-8.313,11.441l1.731,10.926c0.864,5.455,5.986,9.177,11.441,8.312&#10;&#9;&#9;l139.947-22.165"/>
	<path style="fill:none;stroke:#000000;stroke-width:15;stroke-linecap:round;stroke-linejoin:round;stroke-miterlimit:10;" d="&#10;&#9;&#9;M67.372,429.743L87.5,449.871c2.133,2.133,5.59,2.133,7.723,0l32.123-32.123"/>
	
		<circle style="fill:none;stroke:#000000;stroke-width:15;stroke-linecap:round;stroke-linejoin:round;stroke-miterlimit:10;" cx="419.5" cy="383.587" r="69.891"/>
	
		<line style="fill:none;stroke:#000000;stroke-width:15;stroke-linecap:round;stroke-linejoin:round;stroke-miterlimit:10;" x1="442.797" y1="360.29" x2="396.203" y2="406.884"/>
	
		<line style="fill:none;stroke:#000000;stroke-width:15;stroke-linecap:round;stroke-linejoin:round;stroke-miterlimit:10;" x1="442.797" y1="406.884" x2="396.203" y2="360.29"/>
	
		<polyline style="fill:none;stroke:#000000;stroke-width:15;stroke-linecap:round;stroke-linejoin:round;stroke-miterlimit:10;" points="&#10;&#9;&#9;456.186,324.088 419.5,236.04 382.813,324.088 &#9;"/>
	
		<line style="fill:none;stroke:#000000;stroke-width:15;stroke-linecap:round;stroke-linejoin:round;stroke-miterlimit:10;" x1="201.861" y1="234.259" x2="201.861" y2="282.887"/>
	
		<line style="fill:none;stroke:#000000;stroke-width:15;stroke-linecap:round;stroke-linejoin:round;stroke-miterlimit:10;" x1="240.909" y1="234.259" x2="240.909" y2="302.411"/>
	
		<line style="fill:none;stroke:#000000;stroke-width:15;stroke-linecap:round;stroke-linejoin:round;stroke-miterlimit:10;" x1="279.957" y1="234.259" x2="279.957" y2="302.411"/>
	<path style="fill:none;stroke:#000000;stroke-width:15;stroke-linecap:round;stroke-linejoin:round;stroke-miterlimit:10;" d="&#10;&#9;&#9;M195.076,42.708l0-30.208c0-2.761,2.239-5,5-5h81.665c2.761,0,5,2.239,5,5v94.853c0,5.834,2.318,11.43,6.443,15.555l46.822,46.822&#10;&#9;&#9;c5.304,5.304,8.284,12.499,8.284,20v26.138"/>
	<path style="fill:none;stroke:#000000;stroke-width:15;stroke-linecap:round;stroke-linejoin:round;stroke-miterlimit:10;" d="&#10;&#9;&#9;M319.005,204.973v97.438c0,8.678-7.035,15.714-15.714,15.714h-7.621c-8.678,0-15.714-7.035-15.714-15.714&#10;&#9;&#9;c0,8.678-7.035,15.714-15.714,15.714h-7.621c-8.678,0-15.714-7.035-15.714-15.714c0,8.678-7.035,15.714-15.714,15.714h-7.621&#10;&#9;&#9;c-8.678,0-15.714-7.035-15.714-15.714v-19.524c0,8.678-7.035,15.714-15.714,15.714h-7.621c-8.678,0-15.714-7.035-15.714-15.714&#10;&#9;&#9;v-90.9c0-22.757,9.734-43.24,25.264-57.514c4.528-4.162,6.999-10.106,6.999-16.256v-40.51"/>
	
		<line style="fill:none;stroke:#000000;stroke-width:15;stroke-linecap:round;stroke-linejoin:round;stroke-miterlimit:10;" x1="400.831" y1="207.548" x2="319.005" y2="220.508"/>
	<path style="fill:none;stroke:#000000;stroke-width:15;stroke-linecap:round;stroke-linejoin:round;stroke-miterlimit:10;" d="&#10;&#9;&#9;M319.005,251.957l174.988-27.715c5.455-0.864,9.177-5.986,8.313-11.441l-1.731-10.926c-0.864-5.455-5.986-9.177-11.441-8.312&#10;&#9;&#9;l-53.172,8.422"/>
	
		<line style="fill:none;stroke:#000000;stroke-width:15;stroke-linecap:round;stroke-linejoin:round;stroke-miterlimit:10;" x1="226.938" y1="116.219" x2="256" y2="116.219"/>
</g>
<g>
</g>
<g>
</g>
<g>
</g>
<g>
</g>
<g>
</g>
<g>
</g>
<g>
</g>
<g>
</g>
<g>
</g>
<g>
</g>
<g>
</g>
<g>
</g>
<g>
</g>
<g>
</g>
<g>
</g>
</svg>