<svg width="58" height="59" viewBox="0 0 58 59" fill="none" xmlns="http://www.w3.org/2000/svg">
<g id="fi_1355174" clip-path="url(#clip0_1163_4190)">
<path id="Vector" d="M32.132 20.7151C26.4178 14.3297 16.7989 13.9428 10.6086 19.6508C10.3231 19.9413 9.94223 20.2314 9.65624 20.6183L9.27539 21.2957L9.75157 21.8763L9.8469 21.9726C15.4657 28.2612 25.0846 28.6486 31.275 22.9401C31.5605 22.6501 31.9413 22.36 32.2273 21.9726L32.7035 21.2957L32.132 20.7151ZM18.9896 21.2957C18.9896 20.2314 19.8467 19.3607 20.8943 19.3607C21.9416 19.3607 22.7991 20.2314 22.7991 21.2957C22.7991 22.36 21.9416 23.2306 20.8943 23.2306C19.8467 23.2306 18.9896 22.36 18.9896 21.2957ZM19.656 17.619C17.656 18.2964 16.6087 20.4251 17.1798 22.4564C17.5611 23.6175 18.4181 24.585 19.656 24.9719C16.7036 24.6819 13.8465 23.4239 11.6563 21.2957C13.9419 19.1671 16.7036 17.9095 19.656 17.619ZM22.1322 24.9719C24.1323 24.295 25.18 22.1663 24.6085 20.1345C24.2276 18.9738 23.3701 18.0064 22.1322 17.619C25.0846 17.9095 27.9417 19.1671 30.1319 21.2957C27.8464 23.4239 25.0846 24.6819 22.1322 24.9719Z" fill="url(#paint0_linear_1163_4190)"/>
<path id="Vector_2" d="M20.8942 4.84839C11.9417 4.84839 4.7041 12.2013 4.7041 21.2955C4.7041 30.3896 11.9417 37.7425 20.8942 37.7425C29.8463 37.7425 37.0843 30.3896 37.0843 21.2955C37.0843 12.2013 29.8463 4.84839 20.8942 4.84839ZM20.8942 35.8076C12.9893 35.8076 6.60882 29.3253 6.60882 21.2955C6.60882 13.2651 12.9893 6.78334 20.8942 6.78334C28.7986 6.78334 35.1796 13.2651 35.1796 21.2955C35.1796 29.3253 28.7986 35.8076 20.8942 35.8076Z" fill="url(#paint1_linear_1163_4190)"/>
<path id="Vector_3" d="M53.2748 42.58V10.6533C53.2748 7.94408 51.1795 5.81592 48.5131 5.81592H38.0371V7.75087H48.5131C50.1318 7.75087 51.3701 9.0084 51.3701 10.6533V42.58H53.2748Z" fill="url(#paint2_linear_1163_4190)"/>
<path id="Vector_4" d="M5.65625 39.6777V49.3525C5.65625 52.0612 7.75116 54.1899 10.418 54.1899H43.7506V52.2549H10.418C8.79885 52.2549 7.56097 50.9969 7.56097 49.3525V39.6777H5.65625Z" fill="url(#paint3_linear_1163_4190)"/>
<path id="Vector_5" d="M40.8936 10.6533H49.4648V12.5883H40.8936V10.6533Z" fill="url(#paint4_linear_1163_4190)"/>
<path id="Vector_6" d="M42.7988 15.4907H49.4653V17.4257H42.7988V15.4907Z" fill="url(#paint5_linear_1163_4190)"/>
<path id="Vector_7" d="M42.7988 20.3281H49.4653V22.2631H42.7988V20.3281Z" fill="url(#paint6_linear_1163_4190)"/>
<path id="Vector_8" d="M42.7988 25.1655H49.4653V27.1005H42.7988V25.1655Z" fill="url(#paint7_linear_1163_4190)"/>
<path id="Vector_9" d="M42.7988 30.0029H49.4653V31.9379H42.7988V30.0029Z" fill="url(#paint8_linear_1163_4190)"/>
<path id="Vector_10" d="M43.751 34.8403H49.4651V36.7753H43.751V34.8403Z" fill="url(#paint9_linear_1163_4190)"/>
<path id="Vector_11" d="M9.46582 43.5476H35.1795V45.4826H9.46582V43.5476Z" fill="url(#paint10_linear_1163_4190)"/>
<path id="Vector_12" d="M9.46582 47.4175H38.9889V49.3524H9.46582V47.4175Z" fill="url(#paint11_linear_1163_4190)"/>
<path id="Vector_13" d="M14.2275 29.0354H27.5606V30.9704H14.2275V29.0354Z" fill="url(#paint12_linear_1163_4190)"/>
<path id="Vector_14" d="M14.2275 11.6208H27.5606V13.5558H14.2275V11.6208Z" fill="url(#paint13_linear_1163_4190)"/>
<path id="Vector_15" d="M46.8923 41.5158C46.3208 40.9352 45.6544 40.6452 44.8922 40.6452H44.2258L37.3687 32.8085C43.6543 23.5207 41.4636 10.8467 32.3214 4.36487C23.1786 -2.11741 10.6073 0.301282 4.32166 9.4923C-1.96354 18.6833 0.226702 31.4542 9.36943 37.936C16.6075 43.0639 26.3212 42.7733 33.2737 37.1622L39.9402 44.8051V45.5794C39.9402 46.3532 40.2257 47.127 40.7973 47.6107L50.7017 57.6728C52.4158 59.4141 55.0826 59.4141 56.7967 57.6728C58.5112 55.9311 58.5112 53.2224 56.7967 51.4806L46.8923 41.5158ZM2.79826 21.2957C2.79826 11.1372 10.8933 2.91365 20.8931 2.91365C30.8928 2.91365 38.9879 11.1372 38.9879 21.2957C38.9879 31.4542 30.8928 39.6777 20.8931 39.6777C10.8933 39.6777 2.79826 31.4542 2.79826 21.2957ZM34.7023 36.001C35.1784 35.5173 35.7495 34.9372 36.1308 34.4534L42.416 41.6127L40.8926 43.0639L34.7023 36.001ZM53.7494 57.0923C53.0826 57.0923 52.5111 56.8017 52.0349 56.4148L42.1305 46.3532C41.9398 46.1595 41.8449 45.9663 41.8449 45.6758V44.902L44.1305 42.5801H44.8922C45.1782 42.5801 45.3684 42.677 45.5591 42.8702L55.4635 52.9318C56.4158 53.8993 56.4158 55.4474 55.4635 56.4148C54.9873 56.8017 54.3205 57.0923 53.7494 57.0923Z" fill="url(#paint14_linear_1163_4190)"/>
</g>
<defs>
<linearGradient id="paint0_linear_1163_4190" x1="20.9894" y1="15.6316" x2="20.9894" y2="26.9696" gradientUnits="userSpaceOnUse">
<stop stop-color="#8D1038"/>
<stop offset="1" stop-color="#191923"/>
</linearGradient>
<linearGradient id="paint1_linear_1163_4190" x1="20.8942" y1="4.84839" x2="20.8942" y2="37.7425" gradientUnits="userSpaceOnUse">
<stop stop-color="#8D1038"/>
<stop offset="1" stop-color="#191923"/>
</linearGradient>
<linearGradient id="paint2_linear_1163_4190" x1="45.656" y1="5.81592" x2="45.656" y2="42.58" gradientUnits="userSpaceOnUse">
<stop stop-color="#8D1038"/>
<stop offset="1" stop-color="#191923"/>
</linearGradient>
<linearGradient id="paint3_linear_1163_4190" x1="24.7034" y1="39.6777" x2="24.7034" y2="54.1899" gradientUnits="userSpaceOnUse">
<stop stop-color="#8D1038"/>
<stop offset="1" stop-color="#191923"/>
</linearGradient>
<linearGradient id="paint4_linear_1163_4190" x1="45.1792" y1="10.6533" x2="45.1792" y2="12.5883" gradientUnits="userSpaceOnUse">
<stop stop-color="#8D1038"/>
<stop offset="1" stop-color="#191923"/>
</linearGradient>
<linearGradient id="paint5_linear_1163_4190" x1="46.1321" y1="15.4907" x2="46.1321" y2="17.4257" gradientUnits="userSpaceOnUse">
<stop stop-color="#8D1038"/>
<stop offset="1" stop-color="#191923"/>
</linearGradient>
<linearGradient id="paint6_linear_1163_4190" x1="46.1321" y1="20.3281" x2="46.1321" y2="22.2631" gradientUnits="userSpaceOnUse">
<stop stop-color="#8D1038"/>
<stop offset="1" stop-color="#191923"/>
</linearGradient>
<linearGradient id="paint7_linear_1163_4190" x1="46.1321" y1="25.1655" x2="46.1321" y2="27.1005" gradientUnits="userSpaceOnUse">
<stop stop-color="#8D1038"/>
<stop offset="1" stop-color="#191923"/>
</linearGradient>
<linearGradient id="paint8_linear_1163_4190" x1="46.1321" y1="30.0029" x2="46.1321" y2="31.9379" gradientUnits="userSpaceOnUse">
<stop stop-color="#8D1038"/>
<stop offset="1" stop-color="#191923"/>
</linearGradient>
<linearGradient id="paint9_linear_1163_4190" x1="46.6081" y1="34.8403" x2="46.6081" y2="36.7753" gradientUnits="userSpaceOnUse">
<stop stop-color="#8D1038"/>
<stop offset="1" stop-color="#191923"/>
</linearGradient>
<linearGradient id="paint10_linear_1163_4190" x1="22.3227" y1="43.5476" x2="22.3227" y2="45.4826" gradientUnits="userSpaceOnUse">
<stop stop-color="#8D1038"/>
<stop offset="1" stop-color="#191923"/>
</linearGradient>
<linearGradient id="paint11_linear_1163_4190" x1="24.2274" y1="47.4175" x2="24.2274" y2="49.3524" gradientUnits="userSpaceOnUse">
<stop stop-color="#8D1038"/>
<stop offset="1" stop-color="#191923"/>
</linearGradient>
<linearGradient id="paint12_linear_1163_4190" x1="20.894" y1="29.0354" x2="20.894" y2="30.9704" gradientUnits="userSpaceOnUse">
<stop stop-color="#8D1038"/>
<stop offset="1" stop-color="#191923"/>
</linearGradient>
<linearGradient id="paint13_linear_1163_4190" x1="20.894" y1="11.6208" x2="20.894" y2="13.5558" gradientUnits="userSpaceOnUse">
<stop stop-color="#8D1038"/>
<stop offset="1" stop-color="#191923"/>
</linearGradient>
<linearGradient id="paint14_linear_1163_4190" x1="29.4134" y1="0.714111" x2="29.4134" y2="58.9788" gradientUnits="userSpaceOnUse">
<stop stop-color="#8D1038"/>
<stop offset="1" stop-color="#191923"/>
</linearGradient>
<clipPath id="clip0_1163_4190">
<rect width="57.3542" height="58.2646" fill="white" transform="translate(0.651367 0.714111)"/>
</clipPath>
</defs>
</svg>
