<svg height="489pt" viewBox="-104 0 489 489.12415" width="489pt" xmlns="http://www.w3.org/2000/svg"><path d="m263.4375 233.550781h-250c-3.867188 0-7 3.132813-7 7v51.011719c0 1.792969.6875 3.515625 1.921875 4.816406l99.640625 105v80.746094c0 2.527344 1.363281 4.859375 3.5625 6.097656 2.203125 1.242188 4.902344 1.199219 7.066406-.113281l46.875-28.414063c2.09375-1.269531 3.371094-3.539062 3.371094-5.988281v-52.328125l99.640625-105c1.234375-1.300781 1.921875-3.027344 1.921875-4.820312v-51.007813c0-3.867187-3.132812-7-7-7zm-7 14v10.648438h-236v-10.648438zm-99.640625 146.214844c-1.234375 1.300781-1.921875 3.027344-1.921875 4.820313v51.175781l-32.875 19.929687v-71.105468c0-1.792969-.6875-3.519532-1.921875-4.820313l-99.640625-105v-16.566406h236v16.5625zm0 0"/><path d="m45.394531 50.648438h.210938c12.144531-.011719 21.984375-9.855469 22-22v-6.648438c-.015625-12.144531-9.855469-21.984375-22-22h-.210938c-12.144531.015625-21.984375 9.855469-22 22v6.648438c.015625 12.144531 9.855469 21.988281 22 22zm-10-28.648438c.007813-5.519531 4.480469-9.996094 10-10h.210938c5.519531.003906 9.992187 4.480469 10 10v6.648438c-.007813 5.519531-4.480469 9.992187-10 10h-.210938c-5.519531-.007813-9.992187-4.480469-10-10zm0 0"/><path d="m15.203125 142.503906c1.199219-.019531 2.390625-.1875 3.546875-.5l2.105469 72.324219c.207031 5.875 3.695312 11.140625 9.027343 13.613281 5.332032 2.476563 11.605469 1.746094 16.222657-1.890625 4.628906 3.644531 10.910156 4.375 16.25 1.886719 5.335937-2.484375 8.820312-7.765625 9.007812-13.648438l2.101563-72.246093c4.449218 1.132812 9.171875.144531 12.792968-2.675781 3.621094-2.824219 5.730469-7.164063 5.71875-11.753907v-49.210937c.550782-6.347656-1.585937-12.636719-5.890624-17.332032-4.304688-4.695312-10.382813-7.367187-16.753907-7.371093h-8.480469c-1.523437 0-2.992187.582031-4.105468 1.625l-10.609375 9.957031-10.15625-9.882812c-1.121094-1.089844-2.621094-1.699219-4.183594-1.699219h-9c-6.371094 0-12.449219 2.675781-16.757813 7.371093-4.304687 4.695313-6.441406 10.980469-5.890624 17.328126v49.222656c0 8.21875 6.660156 14.878906 14.875 14.882812zm40.535156 74.890625c-2.003906 0-3.628906-1.625-3.632812-3.628906v-74.75h-12v74.75c.003906 1.972656-1.570313 3.585937-3.542969 3.632813-1.96875.046874-3.617188-1.488282-3.710938-3.460938l-2.457031-84.4375h31.425781l-2.453124 84.402344c-.070313 1.953125-1.675782 3.5-3.628907 3.492187zm-43.589843-89.773437v-49.5c.003906-.203125-.007813-.402344-.027344-.605469-.308594-3.019531.679687-6.027344 2.714844-8.277344 2.035156-2.25 4.929687-3.535156 7.964843-3.535156h6.5625l12.519531 12.175781.015626-.011718c2.289062 2.238281 5.9375 2.277343 8.273437.089843l13.058594-12.253906h6.101562c3.03125 0 5.925781 1.285156 7.957031 3.535156 2.035157 2.253907 3.023438 5.257813 2.71875 8.277344-.023437.199219-.03125.402344-.03125.605469v49.492187c0 1.597657-1.296874 2.894531-2.890624 2.894531-1.597657 0-2.894532-1.296874-2.894532-2.894531v-10.710937l.050782-1.710938h-.050782v-20.707031h-12v22.238281l-.019531.78125h-32.128906l-.078125-2.660156h-.046875v-20.359375h-12v32.886719c.039062 1.636718-1.21875 3.015625-2.851563 3.132812-.769531.007813-1.511718-.292968-2.058594-.832031-.546874-.542969-.855468-1.277344-.859374-2.050781zm0 0"/><path d="m235.394531 50.648438h.210938c12.144531-.011719 21.984375-9.855469 22-22v-6.648438c-.015625-12.144531-9.855469-21.984375-22-22h-.210938c-12.144531.015625-21.984375 9.855469-22 22v6.648438c.015625 12.144531 9.855469 21.988281 22 22zm-10-28.648438c.007813-5.519531 4.480469-9.996094 10-10h.210938c5.519531.003906 9.992187 4.480469 10 10v6.648438c-.007813 5.519531-4.480469 9.992187-10 10h-.210938c-5.519531-.007813-9.992187-4.480469-10-10zm0 0"/><path d="m259.332031 53.703125h-8.480469c-1.523437 0-2.992187.582031-4.105468 1.625l-10.609375 9.953125-10.15625-9.878906c-1.121094-1.089844-2.621094-1.699219-4.183594-1.699219h-9c-6.371094 0-12.449219 2.671875-16.757813 7.367187-4.304687 4.695313-6.441406 10.984376-5.890624 17.332032v49.222656c0 8.214844 6.660156 14.875 14.875 14.878906h.175781c1.199219-.019531 2.390625-.1875 3.550781-.5l2.105469 72.328125c.203125 5.875 3.691406 11.136719 9.023437 13.613281 5.335938 2.476563 11.605469 1.742188 16.226563-1.894531 4.625 3.648438 10.910156 4.378907 16.246093 1.890625 5.339844-2.484375 8.824219-7.765625 9.011719-13.652344l2.101563-72.246093c4.449218 1.132812 9.171875.144531 12.792968-2.675781 3.621094-2.824219 5.730469-7.160157 5.71875-11.753907v-49.210937c.550782-6.347656-1.585937-12.636719-5.890624-17.332032-4.304688-4.695312-10.382813-7.367187-16.753907-7.371093zm-13.601562 163.691406c-2.003907 0-3.625-1.625-3.628907-3.628906v-74.75h-12v74.75c.003907 1.972656-1.570312 3.585937-3.542968 3.632813-1.972656.046874-3.621094-1.488282-3.710938-3.460938l-2.453125-84.4375h31.425781l-2.453124 84.402344c-.070313 1.953125-1.675782 3.5-3.628907 3.492187zm24.273437-139.878906c-.023437.199219-.03125.402344-.03125.605469v49.492187c0 1.597657-1.296875 2.894531-2.890625 2.894531-1.597656 0-2.894531-1.296874-2.894531-2.894531v-10.710937l.050781-1.710938h-.050781v-20.707031h-12v22.238281l-.019531.78125h-32.125l-.078125-2.660156h-.046875v-20.359375h-12v32.886719c.039062 1.636718-1.21875 3.015625-2.851563 3.132812-.769531.007813-1.511718-.292968-2.058594-.832031-.546874-.542969-.855468-1.28125-.859374-2.050781v-49.5c.003906-.203125-.007813-.402344-.027344-.605469-.308594-3.019531.679687-6.027344 2.714844-8.277344 2.035156-2.25 4.929687-3.535156 7.964843-3.535156h6.5625l12.519531 12.175781.015626-.011718c2.289062 2.238281 5.9375 2.277343 8.273437.089843l13.058594-12.253906h6.101562c3.03125 0 5.925781 1.285156 7.957031 3.535156 2.035157 2.253907 3.023438 5.257813 2.71875 8.277344zm0 0"/><path d="m140.394531 50.648438h.210938c12.144531-.011719 21.984375-9.855469 22-22v-6.648438c-.015625-12.144531-9.855469-21.984375-22-22h-.210938c-12.144531.015625-21.984375 9.855469-22 22v6.648438c.015625 12.144531 9.855469 21.988281 22 22zm-10-28.648438c.007813-5.519531 4.480469-9.996094 10-10h.210938c5.519531.003906 9.992187 4.480469 10 10v6.648438c-.007813 5.519531-4.480469 9.992187-10 10h-.210938c-5.519531-.007813-9.992187-4.480469-10-10zm0 0"/><path d="m95.148438 127.621094c.003906 8.21875 6.664062 14.878906 14.878906 14.882812h.175781c1.199219-.019531 2.390625-.1875 3.546875-.5l2.105469 72.324219c.207031 5.878906 3.695312 11.140625 9.027343 13.617187 5.332032 2.472657 11.605469 1.742188 16.222657-1.894531 4.628906 3.644531 10.910156 4.375 16.25 1.886719 5.335937-2.484375 8.820312-7.765625 9.007812-13.648438l2.101563-72.246093c4.449218 1.132812 9.171875.144531 12.792968-2.675781 3.621094-2.824219 5.730469-7.164063 5.71875-11.753907v-49.210937c.550782-6.347656-1.585937-12.636719-5.890624-17.332032-4.304688-4.695312-10.382813-7.367187-16.753907-7.371093h-8.480469c-1.523437 0-2.992187.582031-4.105468 1.625l-10.609375 9.957031-10.15625-9.882812c-1.121094-1.089844-2.621094-1.699219-4.183594-1.699219h-9c-6.371094 0-12.449219 2.675781-16.757813 7.371093-4.304687 4.695313-6.441406 10.980469-5.890624 17.328126zm55.589843 89.773437c-2.003906 0-3.628906-1.625-3.632812-3.628906v-74.75h-12v74.75c.003906 1.972656-1.570313 3.585937-3.542969 3.632813-1.96875.046874-3.617188-1.488282-3.710938-3.460938l-2.457031-84.4375h31.425781l-2.453124 84.402344c-.070313 1.953125-1.675782 3.5-3.628907 3.492187zm-40.902343-148.15625c2.027343-2.261719 4.925781-3.550781 7.964843-3.535156h6.5625l12.519531 12.175781.015626-.015625c2.289062 2.242188 5.9375 2.28125 8.273437.089844l13.058594-12.25h6.101562c3.03125 0 5.925781 1.285156 7.957031 3.535156 2.035157 2.25 3.023438 5.257813 2.71875 8.277344-.023437.199219-.03125.402344-.03125.605469v49.492187c0 1.597657-1.296874 2.890625-2.890624 2.890625-1.597657 0-2.894532-1.292968-2.894532-2.890625v-10.710937l.050782-1.710938h-.050782v-20.707031h-12v22.238281l-.019531.777344h-32.128906l-.078125-2.65625h-.046875v-20.359375h-12v32.886719c.039062 1.636718-1.21875 3.015625-2.851563 3.132812-.773437 0-1.519531-.304687-2.070312-.847656-.542969-.539062-.847656-1.269531-.847656-2.035156v-49.5c.003906-.203125-.007813-.402344-.027344-.605469-.324219-3.019531.664062-6.035156 2.714844-8.277344zm0 0"/></svg>