<svg width="119" height="37" viewBox="0 0 119 37" fill="none" xmlns="http://www.w3.org/2000/svg">
<g id="MM_Logo 3" clip-path="url(#clip0_1943_70)">
<path id="Vector" fill-rule="evenodd" clip-rule="evenodd" d="M65.343 0.301768H64.4148C62.398 0.209381 61.0344 2.13795 60.9427 3.80091V15.2222H65.3316V0.301768H65.343ZM66.2712 0.0708008H70.6601V15.2222H66.2712V0.0708008ZM71.5883 15.2222H75.9772V3.80091C76.0574 2.13795 74.6937 0.209381 72.7342 0.301768H71.5768V15.2222H71.5883Z" fill="#47474F"/>
<path id="Vector_2" d="M4.79258 0.729248C5.38846 3.14285 6.924 7.39264 8.66579 13.3978H8.71163C10.0524 9.78315 12.5848 4.04362 13.7308 0.729248H16.481C16.3549 4.65568 16.2747 8.57057 16.2747 12.497C16.2747 13.6056 16.2976 14.6912 16.3205 15.7883H14.4527C14.5558 11.8618 14.7048 7.65825 14.7048 2.69247H14.659L9.52523 15.7883H7.56571L3.55499 2.78485H3.50915C3.14246 7.05774 2.84452 11.192 2.69555 15.7883H0.919373C1.42358 11.0304 1.76735 5.62574 2.08821 0.729248H4.79258Z" fill="#47474F"/>
<path id="Vector_3" d="M20.3542 9.96789V10.603C20.3542 13.2014 21.8897 14.645 24.2961 14.645C25.3619 14.645 26.5078 14.3101 27.5276 13.9405L27.2297 15.5919C26.164 15.8806 25.0983 16.0423 24.0097 16.0423C19.6437 16.0423 18.5322 13.2245 18.5322 10.4645C18.5322 7.01151 20.3656 4.36694 23.7919 4.36694C26.5765 4.36694 28.3642 5.87978 28.3642 8.95163C28.3642 9.24034 28.3412 9.5637 28.2954 9.96789H20.3313H20.3542ZM26.6797 8.78996C26.6797 6.94222 25.8661 5.53333 23.9753 5.53333C22.0845 5.53333 20.8011 6.81519 20.4802 8.78996H26.6797Z" fill="#47474F"/>
<path id="Vector_4" d="M29.109 4.60945H31.0685C31.8592 7.91227 33.0853 11.065 33.8989 14.2523H33.9448L37.7378 4.60945H39.6285L33.9677 17.9131C33.2458 19.6107 32.5238 21.1467 30.1403 21.1467C29.5444 21.1467 28.9256 21.0543 28.3527 20.8926L28.1808 19.2874C28.7194 19.5646 29.3152 19.7378 29.7736 19.7378C30.8164 19.7378 31.6529 19.4722 32.9478 16.077L29.1204 4.5979L29.109 4.60945Z" fill="#47474F"/>
<path id="Vector_5" d="M43.0548 0.729248C42.711 5.62574 42.5621 10.7763 42.436 15.7998H40.5223C40.8432 10.7879 41.0495 5.77587 41.1641 0.729248H43.0548Z" fill="#47474F"/>
<path id="Vector_6" d="M46.8822 9.96789V10.603C46.8822 13.2014 48.4177 14.645 50.8242 14.645C51.8899 14.645 53.0358 14.3101 54.0557 13.9405L53.7577 15.5919C52.692 15.8806 51.6263 16.0423 50.5377 16.0423C46.1717 16.0423 45.0717 13.2245 45.0717 10.4645C45.0717 7.01151 46.9051 4.36694 50.3314 4.36694C53.116 4.36694 54.9037 5.87978 54.9037 8.95163C54.9037 9.24034 54.8807 9.5637 54.8464 9.96789H46.8822ZM53.2077 8.78996C53.2077 6.94222 52.3941 5.53333 50.5033 5.53333C48.6125 5.53333 47.3291 6.81519 47.0083 8.78996H53.2077Z" fill="#47474F"/>
<path id="Vector_7" d="M64.9419 21.5277C65.5378 23.9413 67.0733 28.1911 68.8151 34.1962H68.861C70.2017 30.5816 72.7342 24.842 73.8916 21.5277H76.6418C76.5157 25.4541 76.4241 29.369 76.4241 33.2954C76.4241 34.4041 76.447 35.4896 76.4699 36.5867H74.602C74.7052 32.6603 74.8541 28.4567 74.8541 23.4909H74.8083L69.6746 36.5867H67.7151L63.7158 23.5833H63.67C63.3147 27.8562 63.0053 31.9905 62.8564 36.5867H61.0687C61.5844 31.8172 61.9167 26.4242 62.2376 21.5161H64.9419V21.5277Z" fill="#47474F"/>
<path id="Vector_8" d="M87.0811 34.5196L87.0353 34.5657C86.2675 36.2865 84.6518 36.8523 82.9673 36.8523C80.664 36.8523 78.968 35.8823 78.968 33.2146C78.968 31.5863 79.2889 27.9947 79.2889 25.4195H81.1453C81.0421 27.81 80.7786 30.212 80.7786 32.6487C80.7786 34.5427 81.9016 35.3395 83.46 35.3395C85.7633 35.3395 86.8634 33.8959 87.1384 31.748C87.3562 30.0503 87.3676 27.348 87.4135 25.4195H89.2469C89.0177 29.1496 88.7771 32.8681 88.7542 36.5983H87.0124L87.0811 34.5196ZM83.884 21.2852L83.8153 23.0059H81.9589L82.0276 21.2852H83.884ZM87.1155 21.2852L87.0468 23.0059H85.1904L85.2591 21.2852H87.1155Z" fill="#47474F"/>
<path id="Vector_9" d="M94.1743 21.5276C93.8306 26.4241 93.6816 31.5746 93.5555 36.5982H91.6418C91.9627 31.5862 92.169 26.5742 92.2836 21.5276H94.1743Z" fill="#47474F"/>
<path id="Vector_10" d="M99.0101 21.5276C98.6664 26.4241 98.5174 31.5746 98.3913 36.5982H96.4777C96.7985 31.5862 97.0048 26.5742 97.1194 21.5276H99.0101Z" fill="#47474F"/>
<path id="Vector_11" d="M102.838 30.7665V31.4016C102.838 34 104.373 35.4436 106.779 35.4436C107.845 35.4436 108.991 35.1087 110.011 34.7391L109.713 36.3905C108.647 36.6792 107.582 36.8409 106.493 36.8409C102.127 36.8409 101.016 34.0231 101.016 31.2631C101.016 27.8101 102.849 25.1655 106.275 25.1655C109.06 25.1655 110.847 26.6784 110.847 29.7502C110.847 30.0389 110.825 30.3623 110.779 30.7665H102.815H102.838ZM109.163 29.5885C109.163 27.7408 108.349 26.3319 106.459 26.3319C104.568 26.3319 103.284 27.6138 102.964 29.5885H109.163Z" fill="#47474F"/>
<path id="Vector_12" d="M114.629 27.198H114.675C115.362 25.8238 116.291 25.1655 117.849 25.1655C118.147 25.1655 118.422 25.2117 118.674 25.281L118.743 26.9324C118.353 26.8169 117.952 26.7477 117.551 26.7477C115.809 26.7477 114.893 28.1912 114.652 29.8657C114.434 31.3092 114.434 33.8383 114.434 36.5984H112.555C112.727 33.3648 112.933 30.1198 112.922 25.4196H114.686L114.618 27.198H114.629Z" fill="#47474F"/>
<path id="Vector_13" d="M48.4063 18.7216H68.0818M58.3185 7.91235V28.8264" stroke="#D9D9D9" stroke-width="0.565995" stroke-miterlimit="10"/>
<path id="Vector_14" fill-rule="evenodd" clip-rule="evenodd" d="M43.7882 21.5623H42.86C40.8432 21.4699 39.4796 23.3985 39.3879 25.0614V36.4827H43.7768V21.5623H43.7882ZM44.7164 21.3313H49.1053V36.4827H44.7164V21.3313ZM50.0335 36.4827H54.4223V25.0614C54.5026 23.3985 53.1389 21.4699 51.1794 21.5623H50.022V36.4827H50.0335Z" fill="#47474F"/>
</g>
<defs>
<clipPath id="clip0_1943_70">
<rect width="117.824" height="36.7699" fill="white" transform="translate(0.919373 0.0708008)"/>
</clipPath>
</defs>
</svg>
