<svg id="Icon" height="512" viewBox="0 0 64 64" width="512" xmlns="http://www.w3.org/2000/svg"><path d="m31.03809 32.37598v-29.33789c0-.27734-.11475-.54199-.31738-.73047-.20264-.18945-.47705-.28125-.75049-.26758-8.86133.60449-16.95215 5.08203-22.19874 12.28418-.3252.44629-.22705 1.07227.21924 1.39746.44629.32324 1.07129.22656 1.39697-.21973 4.68604-6.43262 11.80127-10.53613 19.65039-11.37305v28.66113c0 .26563.10547.51953.29297.70703l20.26563 20.2666c-4.96729 4.00488-11.16064 6.19824-17.55859 6.19824-15.43945 0-28-12.56055-28-28 0-4.55273 1.11719-9.07129 3.23096-13.06738.2583-.48828.07178-1.09375-.41602-1.35156-.48877-.25879-1.09375-.07129-1.35156.41602-2.26563 4.2832-3.46338 9.125-3.46338 14.00293 0 16.54199 13.45801 30 30 30 7.23877 0 14.23291-2.62109 19.69434-7.37988.20898-.18164.33301-.44238.34277-.71973.00928-.27637-.09668-.54492-.29248-.74121l-20.74463-20.74512z"/><path d="m60.96191 32.96191h-8.45703c-.55225 0-1 .44727-1 1s.44775 1 1 1h7.36621c-.56885 5.3623-2.63818 10.35742-6.03174 14.55957l-14.55908-14.55957h9.63379c.55225 0 1-.44727 1-1s-.44775-1-1-1h-12.04785c-.4043 0-.76904.24316-.92383.61719s-.06934.80371.2168 1.08984l17.0376 17.03809c.18799.1875.44238.29297.70703.29297.01123 0 .02295 0 .03418-.00098.27734-.00879.5376-.13281.71973-.3418 4.32861-4.96875 6.85352-11.06348 7.30176-17.62695.01904-.27637-.07764-.54883-.2666-.75098-.18945-.20215-.4541-.31738-.73096-.31738z"/><path d="m34.03809 30.96191h26.92383c.27686 0 .5415-.11523.73096-.31738.18896-.20215.28564-.47461.2666-.75098-1.01416-14.86523-12.98877-26.83984-27.85352-27.85352-.27734-.01465-.54883.07813-.75049.26758-.20264.18848-.31738.45313-.31738.73047v26.92383c0 .55273.44775 1 1 1zm1-26.83301c13.01953 1.39355 23.43896 11.81348 24.83252 24.83301h-24.83252v-24.833z"/></svg>