<svg height="512" viewBox="0 0 512 512" width="512" xmlns="http://www.w3.org/2000/svg"><g id="_OUTLINE" data-name="/ OUTLINE"><path d="m448 101.3208v-61.3208a24.0275 24.0275 0 0 0 -24-24h-336a24.0275 24.0275 0 0 0 -24 24v432a24.0275 24.0275 0 0 0 24 24h336a24.0275 24.0275 0 0 0 24-24v-308.5293l9.04492-37.18457a24.03668 24.03668 0 0 0 -9.04492-24.96533zm-16 370.6792a8.00917 8.00917 0 0 1 -8 8h-336a8.00917 8.00917 0 0 1 -8-8v-432a8.00917 8.00917 0 0 1 8-8h336a8.00917 8.00917 0 0 1 8 8v56.676a24.11353 24.11353 0 0 0 -16 7.76391v-56.43991h-320v416h320v-168.97412l16-65.77759zm-65.63647-176-11.67553 48h-18.688v16h14.79614l-7.14184 29.36133 14.811 40.65234 31.8287-29.30762 9.706-39.90234v87.19629h-288v-384h288v93.71533l-29.74463 122.28467h-34.25537v16zm33.6698-3.02832h-.03333v.13672l-24.10742 99.10937-10.60987 9.76856-4.937-13.55078 55.56529-228.43555h.089v-.36572l2.38831-9.81885 15.54657 3.78174zm41.46472-170.46777-3.78156 15.54663-15.54657-3.78174 3.78174-15.54712v.001a7.99981 7.99981 0 1 1 15.54639 3.78125z"/><path d="m152 276.687-10.343-10.344-11.314 11.314 21.657 21.656 37.657-37.656-11.314-11.314z"/><path d="m200 280h56v16h-56z"/><path d="m152 340.687-10.343-10.344-11.314 11.314 21.657 21.656 37.657-37.656-11.314-11.314z"/><path d="m200 344h56v16h-56z"/><path d="m152 404.687-10.343-10.344-11.314 11.314 21.657 21.656 37.657-37.656-11.314-11.314z"/><path d="m200 408h56v16h-56z"/><path d="m256 80a80 80 0 1 0 80 80 80.09041 80.09041 0 0 0 -80-80zm0 144a63.67881 63.67881 0 0 1 -39.99451-14.08862 8.04723 8.04723 0 0 1 4.48084-7.1106l35.51367-17.3623 35.51367 17.36132a8.04983 8.04983 0 0 1 4.48084 7.11158 63.67881 63.67881 0 0 1 -39.99451 14.08862zm-8-76.75586v-11.24414a8 8 0 0 1 16 0v11.24414a7.986 7.986 0 0 1 -1.29883 4.37012l-6.70117 10.27441-6.7002-10.27344a7.98449 7.98449 0 0 1 -1.2998-4.37109zm60.15491 49.77886a23.9856 23.9856 0 0 0 -9.61389-8.59717l-30.89551-15.10449 8.458-12.96777a23.94574 23.94574 0 0 0 3.89649-13.10943v-11.24414a24 24 0 0 0 -48 0v11.24414a23.94416 23.94416 0 0 0 3.89746 13.11035l8.457 12.9668-30.89546 15.10547a23.98175 23.98175 0 0 0 -9.61383 8.59619 64 64 0 1 1 104.30976 0z"/><path d="m288 276.687-10.343-10.344-11.314 11.314 21.657 21.656 37.657-37.656-11.314-11.314z"/><path d="m288 340.687-10.343-10.344-11.314 11.314 21.657 21.656 37.657-37.656-11.314-11.314z"/><path d="m288 404.687-10.343-10.344-11.314 11.314 21.657 21.656 37.657-37.656-11.314-11.314z"/></g></svg>