<svg width="512" height="512" viewBox="0 0 512 512" fill="none" xmlns="http://www.w3.org/2000/svg">
<path d="M337.442 102.539C319.418 48.756 268.622 10 208.771 10C133.838 10 73.093 70.745 73.093 145.677C73.093 182.857 88.053 216.539 112.276 241.046L111.474 303.763L172.724 276.504C184.203 279.66 196.288 281.354 208.77 281.354C268.397 281.354 319.039 242.888 337.239 189.418" stroke="white" stroke-width="20" stroke-miterlimit="10" stroke-linecap="round" stroke-linejoin="round"/>
<path d="M352.801 383.73V464.561L177.501 449.071C167.475 448.23 157.549 446.479 147.842 443.838L58.9759 419.583C44.3369 415.58 35.6109 400.581 39.3639 385.882C42.5759 373.314 53.8729 364.959 66.2709 364.959C68.4819 364.959 70.7239 365.229 72.9649 365.779L155.487 386.152C153.956 382.79 153.096 379.067 153.096 375.135C153.096 368.621 155.457 362.567 159.44 357.894C163.412 353.221 168.996 349.909 175.44 348.868H262.485C274.373 348.868 286.04 351.99 296.316 357.934L324.654 374.294C324.744 374.344 324.824 374.394 324.914 374.444C333.528 379.378 343.015 382.49 352.801 383.73Z" stroke="white" stroke-width="20" stroke-miterlimit="10" stroke-linecap="round" stroke-linejoin="round"/>
<path d="M235.199 348.868H175.436C162.557 350.964 153.097 362.088 153.097 375.137C153.097 389.836 165.013 401.751 179.711 401.751H243.296" stroke="white" stroke-width="20" stroke-miterlimit="10" stroke-linecap="round" stroke-linejoin="round"/>
<path d="M400.125 366.481H352.799V477.734H400.125V366.481Z" stroke="white" stroke-width="20" stroke-miterlimit="10" stroke-linecap="round" stroke-linejoin="round"/>
<path d="M473.507 502H400.126V357.687H473.507" stroke="white" stroke-width="20" stroke-miterlimit="10" stroke-linecap="round" stroke-linejoin="round"/>
<path d="M208.698 225.873C253.349 225.873 289.546 189.676 289.546 145.025C289.546 100.374 253.349 64.177 208.698 64.177C164.047 64.177 127.85 100.374 127.85 145.025C127.85 189.676 164.047 225.873 208.698 225.873Z" stroke="white" stroke-width="20" stroke-miterlimit="10" stroke-linecap="round" stroke-linejoin="round"/>
<path d="M240.763 161.977C240.763 161.977 232.612 181.259 208.771 181.259C186.018 181.259 176.779 161.977 176.779 161.977" stroke="white" stroke-width="20" stroke-miterlimit="10" stroke-linecap="round" stroke-linejoin="round"/>
</svg>
