<?xml version="1.0" encoding="UTF-8"?>
<svg xmlns="http://www.w3.org/2000/svg" xmlns:xlink="http://www.w3.org/1999/xlink" version="1.1" id="Layer_1" x="0px" y="0px" viewBox="0 0 479.3 522.2" xml:space="preserve" width="512" height="512">
<title>Artboard 63</title>
<g id="Layer_57">
	<g>
		<path d="M473.3,478.5h-0.2v-109c0-6.5-2-12.7-5.9-17.9l-22.6-30.5c0.7-6.2,1-12.5,1-18.8c0.1-26.8-5.9-53.3-17.6-77.4    c-1.5-2.9-5-4.2-8-2.8l-155.1,74.8c-2.1,1-3.4,3.1-3.4,5.4v172c0,3.3,2.7,6,6,6c21.9,0,43.6-4,64-11.8c2.3,3.6,4.8,6.9,7.6,10.1    c-2.9,0.4-5.1,2.9-5.1,5.9v31.7c0,3.3,2.7,6,6,6h133.3c3.3,0,6-2.7,6-6v-31.7C479.3,481.2,476.6,478.5,473.3,478.5L473.3,478.5z     M337.4,453l-11.1,4.6c-16.9,6.4-34.7,10-52.8,10.6V306l146.2-70.4c9.2,21,14,43.7,13.9,66.7c0,1.3,0,2.6-0.1,3.9    c-0.1,5.4-0.5,10.7-1.1,15.9l-0.3,2.3c-1.9,14-5.5,27.6-10.8,40.7c-4-1-8-1.7-12.1-2.1L380,319.6c-3.2-4.8-8.2-8.1-13.9-9.1    c-5.8-1.1-11.9,0.1-16.8,3.5l-2.8,1.9c-9.1,6-11.8,18.1-6.1,27.4l45.9,75C372.3,432.8,355.7,444.5,337.4,453z M391.5,430.1    c3.1,7.9,8.4,19,15.2,26.5l10.6,11.6c2.4,2.2,6.2,2.1,8.5-0.3c2-2.2,2.1-5.4,0.3-7.8l-10.5-11.6c-7.2-7.9-12.7-21.7-15-28    l-5.9-11.5l-44.1-71.9c-2.3-3.9-1.1-8.9,2.7-11.3l2.8-1.9c2.2-1.6,5-2.1,7.7-1.6c2.5,0.4,4.8,1.9,6.2,4l30.9,45.8    c1,1.6,2.7,2.6,4.6,2.7c3.6,0.3,7.2,0.7,10.7,1.4c4.5,1,8.6,2.3,10.5,3.9l0.7,0.6c2.5,1.5,5.8,1.1,7.8-1.1    c2.1-2.5,1.9-6.3-0.6-8.5l-2.2-1.6c4.2-10.2,7.4-20.9,9.6-31.7l15.6,20.9c2.3,3.1,3.5,6.9,3.5,10.8v109H355.9    c-5.1-4.3-9.5-9.3-13.2-14.8C360.7,455.3,377.2,444,391.5,430.1z M467.3,510.2H346v-19.7h121.3V510.2z"/>
		<path d="M413.7,210c1.4-0.7,2.5-1.9,3.1-3.4c0.5-1.5,0.4-3.2-0.3-4.6c-14.4-29.7-36.7-54.9-64.5-72.7    c-11.9-7.7-24.8-13.8-38.2-18.4c3-19.9,2.8-40.6-5.8-55.2c-2.5-4.3-5.4-8.3-8.7-12.1c2.9-0.4,5.1-2.9,5.1-5.9V6c0-3.3-2.7-6-6-6    H165.1c-3.3,0-6,2.7-6,6v31.7c0,3.3,2.7,6,6,6h0.1v82.5c-3.3,2-6.5,4-9.7,6.2c-28.8,19.7-51.2,47.5-64.4,79.9    c-0.6,1.5-0.6,3.1,0,4.6s1.8,2.7,3.3,3.3l159.4,64.7c0.7,0.3,1.5,0.5,2.3,0.5c0.9,0,1.8-0.2,2.6-0.6L413.7,210z M302.2,107.4    c-15-4-30.5-6.1-46.1-6.1h-5.6c0,0-8.5-24.4-18.9-35.7l-10.5-11.5c-2.2-2.5-6-2.6-8.5-0.4l0,0c-2.4,2.3-2.6,6-0.4,8.5l10.6,11.5    c7.4,8.2,15.7,30.4,16,31.3c0.2,0.5,48.9,80.2,48.9,80.2c2.4,3.8,1.2,8.6-2.6,11.3l-2.8,1.9c-2.3,1.5-5,2.1-7.7,1.6    c-2.6-0.5-4.8-2-6.3-4.1l-30.8-45.8c-1.1-1.6-2.9-2.6-4.8-2.6c-0.3,0-27.6-1-47.5-18.4c-2.6-2.2-8-8.2-8-8.2V43.7h105.3    c6,5.2,11.1,11.3,15.2,18.1C304.5,73.3,304.7,90.4,302.2,107.4L302.2,107.4z M171.1,12h121.3v19.7H171.1V12z M255.9,272.8    l-151.4-61.5c13-29,34.1-53.7,60.7-71.1l8.7-5.3c19.5,19.5,46.2,23.5,55.3,24.4l29.2,43.3c3.2,4.8,8.2,8.1,13.9,9.1    c1.4,0.3,2.8,0.4,4.2,0.4c4.5,0,8.9-1.3,12.6-3.8l2.8-1.9c9.1-6,11.8-18.2,6.1-27.5l-40.2-65.6c14.3,0.2,28.5,2.2,42.2,6    c3.9,1.1,7.8,2.3,11.5,3.7c39.3,14,71.9,42.1,91.5,78.9L255.9,272.8z"/>
		<path d="M246.9,296.7L87.4,231.9c-3.1-1.2-6.5,0.3-7.8,3.3c-5.3,12.9-9,26.5-11,40.3l-56.5,76.1c-3.8,5.2-5.9,11.5-5.9,17.9v109H6    c-3.3,0-6,2.7-6,6l0,0v31.7c0,3.3,2.7,6,6,6h133.3c3.3,0,6-2.7,6-6v-31.7c-0.1-2.9-2.2-5.4-5.1-5.9c3.3-3.7,6.2-7.7,8.8-12    c2-3.6,3.6-7.4,4.7-11.3c27.5,16.4,58.9,25.1,90.9,25c3.3,0,6-2.7,6-6v-172C250.7,299.8,249.2,297.6,246.9,296.7z M133.3,510.2H12    v-19.7h121.3V510.2z M138.6,460.4c-4,6.8-9.2,12.9-15.2,18.1H18.2v-109c0-3.9,1.2-7.7,3.5-10.8l44.9-60.4v4    c0,18.2,2.8,36.3,8.2,53.7l-4.7,7c-6.3,0.7-19.1,2.6-25.4,8.1c-2.6,2-3.1,5.8-1.1,8.4s5.8,3.1,8.4,1.1c0.2-0.2,15.1-5.4,21.9-5.8    c1.9-0.2,3.5-1.2,4.6-2.7l30.8-45.8c1.4-2.1,3.7-3.6,6.2-4c2.7-0.5,5.5,0,7.7,1.6l2.8,1.9c3.8,2.4,5,7.4,2.7,11.3l-48.3,78.8    c-0.3,0.4-7.2,22.2-16.7,32.6l-10.5,11.6c-2,2.6-1.6,6.4,1,8.4c2.3,1.8,5.6,1.7,7.8-0.3l10.6-11.6c10.3-11.3,17.1-30.9,18.4-35    l9.3-15.2c11.8,16.3,26.3,30.5,42.8,42C142.3,452.6,140.8,456.7,138.6,460.4L138.6,460.4z M238.6,468.2    c-29.3-1.1-57.8-9.8-82.6-25.5c-3.9-2.5-7.8-5.2-11.5-8.1c-14.5-11-27.1-24.3-37.4-39.3l31.8-52c5.7-9.3,3-21.4-6.1-27.4L130,314    c-4.9-3.4-11-4.6-16.8-3.5c-5.7,1-10.7,4.3-13.9,9.1l-15.7,23.3c-3.3-13.3-5-26.9-5-40.6c0-7.4,0.4-14.7,1.4-22    c1.3-9.5,3.3-18.9,6.2-28.1c0.8-2.3,1.5-4.6,2.4-6.8l150,60.9V468.2z"/>
	</g>
</g>
</svg>
