<svg width="33" height="33" viewBox="0 0 33 33" fill="none" xmlns="http://www.w3.org/2000/svg">
<g id="TelegramLogo" clip-path="url(#clip0_955_3117)">
<path id="Vector" d="M11.3447 17.3854L22.9798 27.5858C23.1138 27.704 23.2763 27.7854 23.4512 27.8219C23.6262 27.8585 23.8076 27.8489 23.9778 27.7942C24.1479 27.7395 24.3009 27.6415 24.4218 27.5098C24.5426 27.3781 24.6272 27.2173 24.6672 27.0431L29.9072 4.2821C29.9123 4.25927 29.9111 4.23549 29.9037 4.21329C29.8964 4.19109 29.8831 4.17132 29.8654 4.15608C29.8476 4.14085 29.826 4.13074 29.803 4.12682C29.7799 4.1229 29.7562 4.12533 29.7345 4.13385L3.61032 14.3574C3.44814 14.4198 3.31059 14.5332 3.2183 14.6804C3.12602 14.8277 3.08399 15.0009 3.09852 15.174C3.11304 15.3472 3.18335 15.511 3.29887 15.6408C3.4144 15.7706 3.56892 15.8594 3.73923 15.894L11.3447 17.3854Z" stroke="black" stroke-width="2" stroke-linecap="round" stroke-linejoin="round"/>
<path id="Vector_2" d="M11.3438 17.3857L29.8302 4.13672" stroke="black" stroke-width="2" stroke-linecap="round" stroke-linejoin="round"/>
<path id="Vector_3" d="M17.0633 22.4015L13.1175 26.4955C12.9749 26.6435 12.7914 26.7454 12.5905 26.7884C12.3896 26.8313 12.1804 26.8132 11.9898 26.7365C11.7993 26.6598 11.6359 26.5279 11.5208 26.3577C11.4057 26.1875 11.3441 25.9869 11.3438 25.7814V17.3857" stroke="black" stroke-width="2" stroke-linecap="round" stroke-linejoin="round"/>
</g>
<defs>
<clipPath id="clip0_955_3117">
<rect width="33" height="33" fill="white"/>
</clipPath>
</defs>
</svg>
