<svg width="93" height="93" viewBox="0 0 93 93" fill="none" xmlns="http://www.w3.org/2000/svg">
<path id="Vector" fill-rule="evenodd" clip-rule="evenodd" d="M92.6982 0.0946396C92.7882 15.6978 92.9156 31.2709 92.9156 46.5984C92.9156 61.7647 93.0606 77.3077 92.9705 92.8316C92.5269 92.9748 92.0404 92.9125 91.5857 92.9125C84.4312 92.913 77.4025 92.959 70.1387 92.9398C70.1118 92.9032 70.0662 92.8857 70.0299 92.8589C69.9311 90.565 70.0278 88.1726 70.0025 85.8295C69.9948 85.0726 69.8866 84.294 70.0569 83.5853C70.0788 83.5798 70.0838 83.5579 70.1112 83.5579C74.4539 83.4185 78.9141 83.6148 83.2238 83.5038C83.3874 83.4994 83.5258 83.5087 83.6581 83.4229C83.7235 58.9015 83.5884 34.1138 83.4681 9.77457C83.444 9.76254 83.4198 9.75051 83.4138 9.72043C59.0494 9.70512 34.3194 9.81613 9.76018 9.8823C9.7481 9.90636 9.73657 9.93096 9.70582 9.93643C9.63939 28.1758 9.81454 46.7198 9.81454 65.254C9.81454 70.5281 9.8689 75.8176 9.8689 81.206C9.8689 82.0574 9.78709 83.0106 9.95016 83.5853C19.4492 83.6646 29.1998 83.5847 38.8356 83.5853C42.7286 83.5853 46.4036 83.5579 50.3196 83.5579C52.237 83.5579 54.15 83.6236 56.0482 83.477C56.2074 79.962 56.0262 76.2556 56.0751 72.9325C56.0877 72.0806 56.1058 71.2833 56.102 70.3914C56.1009 70.1262 55.9944 69.8451 56.1564 69.6073C56.1783 69.6024 56.1832 69.5805 56.2107 69.5805C60.7126 69.5138 65.4808 69.5925 69.8663 69.4996C69.8784 69.4755 69.8899 69.4514 69.9207 69.4454C70.003 56.1499 69.8383 43.032 69.8394 29.6742C69.8394 28.721 69.8619 27.763 69.8394 26.8082C69.8142 25.7649 69.8504 24.639 69.7582 23.6722C64.0851 23.4786 58.2198 23.7389 52.4105 23.6454C48.5785 23.5836 44.7481 23.6722 40.8727 23.6722C36.9753 23.6722 33.1609 23.699 29.4431 23.699C27.9891 23.699 26.5609 23.7263 25.0724 23.7263C24.6232 23.7263 24.1549 23.6618 23.715 23.8072C23.7101 23.8297 23.6881 23.834 23.6881 23.8614C23.6717 27.6476 23.6338 31.412 23.715 35.19C23.7952 38.9172 23.6387 42.7871 23.7425 46.4913C23.7958 48.4008 23.7787 50.3387 23.7425 52.2505C23.7057 54.1589 23.7694 56.0695 23.7694 57.9823C23.7694 61.803 23.7892 65.634 23.7963 69.446C23.8122 69.5023 23.8534 69.5335 23.8776 69.581C29.7066 69.6685 35.8261 69.6242 41.7139 69.5542C41.7496 69.5444 41.7567 69.5067 41.7952 69.5001C41.9094 65.1949 41.7479 60.3982 41.8495 55.8737C41.8715 55.8683 41.8764 55.8464 41.9039 55.8464C46.514 55.6889 51.4595 55.8945 55.9938 55.7113C56.0932 54.4558 56.0707 52.8612 55.9938 51.6014C55.6419 51.4685 54.7644 51.5472 54.1478 51.5472C50.1752 51.5467 45.9402 51.5664 41.9313 51.5199C41.8874 51.5275 41.8841 51.4947 41.8501 51.4931C41.7578 48.2985 41.7606 45.0126 41.7957 41.841C41.8199 41.829 41.844 41.817 41.8501 41.7869C46.4497 41.6475 51.1652 41.7612 55.8587 41.6786C55.9027 41.6863 55.9054 41.6529 55.94 41.6518C55.94 41.6518 55.9944 39.6838 55.9944 38.6509C55.9944 38.6509 56.029 37.8257 55.94 37.5692C55.6139 37.4331 55.2312 37.4528 54.8814 37.461C49.3593 37.5928 43.2343 37.3773 37.6425 37.5692C37.6375 37.5911 37.615 37.596 37.615 37.6234C37.4563 46.5115 37.7386 55.7026 37.6425 64.7952C37.6403 64.991 37.676 65.1791 37.5612 65.3087C34.4655 65.3174 31.1913 65.435 28.1406 65.3087C27.9973 63.7989 28.0588 62.2563 28.0588 60.7126C28.0588 51.4668 27.9781 42.1538 27.9776 32.7293C27.9776 31.6072 27.9776 30.4053 27.9776 29.2416C27.9776 28.7801 27.9199 28.3426 28.0045 28.0249C40.2226 27.9248 53.1529 27.9035 65.4418 27.9166C65.4572 27.9555 65.4847 27.9828 65.5237 27.9976C65.5956 40.3367 65.6972 52.9493 65.6049 65.2272C61.1211 65.3551 56.5072 65.2277 51.9493 65.3081C51.9136 65.318 51.9065 65.3557 51.868 65.3623C51.756 65.8943 51.8093 66.4537 51.7868 67.0115C51.7198 68.6799 51.8137 70.4253 51.8137 72.1757C51.8137 74.5211 51.8362 76.8998 51.7868 79.2052C51.4502 79.3375 51.0845 79.2861 50.7281 79.2861C40.0513 79.2867 29.6627 79.3408 18.9644 79.3403C17.8339 79.3403 16.6456 79.3403 15.4349 79.3403C14.9781 79.3403 14.5317 79.3917 14.1863 79.3135C14.0463 73.9491 14.1051 68.4595 14.1051 63.0104C14.1051 46.6192 13.9178 30.6666 13.9694 14.2361C13.9497 14.1623 14.0232 14.1814 14.0238 14.1279C35.6213 14.0781 57.657 13.9141 79.1798 13.9928C79.3819 16.6722 79.1727 19.4047 79.2611 22.1312C79.3495 24.8479 79.288 27.5825 79.288 30.2964C79.2891 46.3737 79.4225 62.0901 79.4236 78.2597C79.4236 78.5687 79.4901 78.9165 79.3423 79.2063C79.3204 79.2112 79.3154 79.2331 79.288 79.2331C74.8284 79.3003 70.2375 79.2129 65.7685 79.314C65.7636 79.3359 65.7411 79.3408 65.7416 79.3682C65.6384 83.3026 65.7142 87.2293 65.7142 91.2644C65.7142 91.8106 65.7801 92.3668 65.6329 92.8863C60.2294 92.9732 54.7968 92.9672 49.3445 92.9672C33.0148 92.9666 16.504 93.0569 0.287454 92.9404C0.174893 91.0462 0.20619 89.1285 0.20619 87.2085C0.20619 83.308 0.179285 79.4015 0.179285 75.5015C0.179285 72.5612 0.179285 69.6981 0.179285 66.7687C0.179285 44.4593 -0.0650554 22.409 0.0167576 0.312277C1.6629 0.216035 3.93115 0.257047 5.60639 0.257047C14.7134 0.257047 24.0302 0.202911 33.1889 0.202911C35.0492 0.202911 36.9182 0.23408 38.7813 0.17557C41.575 0.0886245 44.316 0.148775 47.1157 0.148775C53.5477 0.148775 60.1295 0.121981 66.6625 0.121981C73.0614 0.121981 79.5439 0.0410506 86.0741 0.0410506C87.796 0.0410506 89.1061 0.0470656 90.7973 0.014256C91.3754 0.00222583 92.2704 -0.0349584 92.6982 0.0946396Z" fill="url(#paint0_linear_1195_16019)"/>
<defs>
<linearGradient id="paint0_linear_1195_16019" x1="46.5" y1="0" x2="46.5" y2="93" gradientUnits="userSpaceOnUse">
<stop stop-color="#8D1038"/>
<stop offset="1" stop-color="#191923"/>
</linearGradient>
</defs>
</svg>
