<svg width="352" height="355" viewBox="0 0 352 355" fill="none" xmlns="http://www.w3.org/2000/svg">
<path d="M276.599 154.194C277.973 153.925 279.306 153.664 280.597 153.411C281.888 153.158 283.334 152.875 284.936 152.561L292.681 151.044C294.331 150.721 295.819 150.43 297.146 150.17C298.473 149.91 299.835 149.643 301.234 149.37L297.488 152.449L296.775 149.013C296.491 147.643 296.24 146.431 296.021 145.377C295.802 144.322 295.593 143.316 295.395 142.359L300.54 141.351L305.025 162.968L299.88 163.976C299.683 163.03 299.476 162.03 299.257 160.976C299.038 159.921 298.786 158.703 298.499 157.321L297.786 153.885L302.471 155.333C301.073 155.607 299.71 155.874 298.383 156.133C297.056 156.393 295.568 156.685 293.919 157.008L286.173 158.524C284.572 158.838 283.125 159.121 281.834 159.374C280.543 159.627 279.211 159.888 277.836 160.157L276.599 154.194Z" fill="#8D1038"/>
<path d="M279.292 168.834C280.696 168.839 282.058 168.844 283.377 168.849C284.696 168.853 286.174 168.858 287.811 168.864L296.678 168.895C298.363 168.901 299.884 168.906 301.239 168.911C302.595 168.916 303.987 168.92 305.416 168.925L305.644 186.461L300.716 186.443C300.701 185.308 300.685 184.086 300.668 182.777C300.652 181.481 300.632 179.95 300.609 178.185L300.528 171.963L304.541 174.884C303.112 174.879 301.72 174.875 300.364 174.87C299.008 174.865 297.488 174.86 295.802 174.854L288.841 174.83C287.216 174.824 285.738 174.819 284.407 174.814C283.088 174.81 281.726 174.805 280.322 174.8L284.264 172.296L284.346 178.573C284.365 180.042 284.383 181.43 284.4 182.739C284.417 184.06 284.434 185.331 284.45 186.553L279.522 186.536L279.292 168.834ZM290.233 173.446L294.813 173.462L294.876 178.295C294.897 179.924 294.915 181.319 294.931 182.479C294.946 183.64 294.96 184.757 294.974 185.831L290.394 185.815C290.379 184.679 290.364 183.531 290.349 182.371C290.334 181.211 290.316 179.846 290.296 178.279L290.233 173.446Z" fill="#8D1038"/>
<path d="M279.248 188.388C280.633 188.651 281.975 188.907 283.275 189.154C284.575 189.402 286.032 189.679 287.645 189.986L296.385 191.649C298.046 191.965 299.545 192.251 300.881 192.505C302.217 192.759 303.59 193.02 304.998 193.288L303.978 199.275C302.569 199.007 301.197 198.745 299.861 198.491C298.524 198.237 297.026 197.951 295.364 197.635L287.582 196.154C285.969 195.847 284.512 195.57 283.212 195.322C281.912 195.075 280.569 194.819 279.185 194.556L283.764 193.286L282.899 198.362C282.684 199.624 282.495 200.728 282.334 201.674C282.171 202.632 282.02 203.518 281.881 204.33C281.741 205.155 281.597 205.998 281.45 206.859L276.268 205.873L279.248 188.388Z" fill="#8D1038"/>
<path d="M275.838 206.918C277.156 207.43 278.435 207.926 279.673 208.406C280.911 208.886 282.299 209.424 283.835 210.02L292.16 213.248C293.742 213.861 295.169 214.415 296.442 214.908C297.715 215.402 299.022 215.909 300.364 216.429L294.383 232.787L289.757 230.993C290.144 229.934 290.561 228.794 291.007 227.573C291.449 226.364 291.971 224.936 292.573 223.289L294.695 217.485L297.436 221.644C296.094 221.124 294.787 220.617 293.514 220.124C292.242 219.63 290.814 219.077 289.232 218.463L282.696 215.929C281.171 215.337 279.784 214.799 278.534 214.315C277.296 213.835 276.017 213.339 274.698 212.827L279.29 211.925L277.149 217.781C276.648 219.152 276.174 220.447 275.728 221.668C275.277 222.9 274.844 224.086 274.427 225.226L269.8 223.432L275.838 206.918ZM284.494 215.147L288.794 216.814L287.146 221.323C286.59 222.843 286.114 224.144 285.718 225.226C285.323 226.309 284.942 227.351 284.575 228.353L280.276 226.686C280.663 225.626 281.055 224.555 281.45 223.473C281.846 222.39 282.311 221.118 282.846 219.655L284.494 215.147Z" fill="#8D1038"/>
<path d="M269.008 224.992C270.208 225.749 271.372 226.483 272.5 227.193C273.627 227.904 274.891 228.701 276.29 229.583L283.869 234.361C285.31 235.269 286.61 236.089 287.768 236.819C288.927 237.55 290.117 238.3 291.339 239.07C290.787 239.979 290.049 241.196 289.123 242.72C288.191 244.256 287.116 246.026 285.899 248.031C284.802 249.838 283.661 251.205 282.477 252.133C281.286 253.072 279.99 253.519 278.589 253.473C277.192 253.444 275.626 252.883 273.893 251.791C272.421 250.863 271.28 249.782 270.47 248.549C269.669 247.323 269.306 245.924 269.379 244.353C269.463 242.788 270.088 241.045 271.255 239.124C271.566 238.612 271.899 238.064 272.254 237.479C272.602 236.904 272.945 236.34 273.281 235.787C273.617 235.233 273.905 234.758 274.146 234.361L278.061 236.83L275.883 240.417C275.338 241.315 275.011 242.127 274.902 242.853C274.794 243.578 274.908 244.235 275.244 244.823C275.584 245.427 276.156 245.983 276.96 246.489C277.597 246.891 278.179 247.121 278.707 247.179C279.228 247.248 279.697 247.189 280.113 247.004C280.528 246.818 280.899 246.554 281.223 246.209C281.552 245.882 281.836 245.52 282.077 245.123L285.71 239.139L287.443 243.633C286.222 242.862 285.032 242.112 283.873 241.382C282.714 240.651 281.414 239.831 279.973 238.923L273.208 234.658C271.809 233.776 270.546 232.98 269.418 232.269C268.291 231.558 267.127 230.824 265.926 230.067L269.008 224.992Z" fill="#8D1038"/>
<path d="M246.675 254.524C247.684 255.529 248.662 256.503 249.609 257.447C250.556 258.39 251.617 259.447 252.793 260.618L259.16 266.962C260.371 268.167 261.463 269.255 262.436 270.225C263.41 271.195 264.41 272.191 265.436 273.213L261.228 277.53C260.201 276.507 259.202 275.511 258.228 274.542C257.254 273.572 256.163 272.484 254.952 271.278L248.585 264.935C247.409 263.764 246.348 262.707 245.401 261.763C244.454 260.819 243.476 259.845 242.467 258.84L246.675 254.524ZM258.012 242.895C259.02 243.9 259.998 244.874 260.945 245.818C261.893 246.762 262.954 247.819 264.129 248.99L270.497 255.333C271.707 256.539 272.799 257.627 273.773 258.597C274.746 259.566 275.746 260.562 276.772 261.585L272.577 265.888C271.551 264.866 270.551 263.87 269.577 262.9C268.604 261.93 267.512 260.842 266.301 259.637L259.934 253.293C258.759 252.122 257.697 251.065 256.75 250.122C255.803 249.178 254.825 248.204 253.816 247.199L258.012 242.895ZM262.608 253.636L266.212 257.227L256.687 266.998L253.082 263.407L262.608 253.636Z" fill="#8D1038"/>
<path d="M230.124 266.186C232.127 264.962 234.049 264.215 235.892 263.946C237.742 263.687 239.471 263.814 241.079 264.328C242.694 264.852 244.163 265.676 245.488 266.799C246.802 267.929 247.933 269.272 248.881 270.828C250.222 273.031 251.009 275.282 251.242 277.582C251.47 279.898 251.058 282.097 250.006 284.179C248.943 286.268 247.141 288.089 244.599 289.643C242.67 290.823 240.797 291.546 238.981 291.813C237.171 292.091 235.461 291.982 233.849 291.485C232.226 290.995 230.744 290.186 229.403 289.058C228.062 287.931 226.894 286.552 225.901 284.921C224.528 282.665 223.744 280.383 223.549 278.076C223.343 275.774 223.773 273.593 224.838 271.532C225.904 269.471 227.666 267.689 230.124 266.186ZM232.824 270.443C231.797 271.071 231.018 271.816 230.489 272.677C229.967 273.549 229.664 274.489 229.581 275.499C229.499 276.509 229.604 277.535 229.896 278.576C230.185 279.635 230.633 280.662 231.239 281.658C231.877 282.706 232.61 283.595 233.439 284.324C234.263 285.07 235.146 285.62 236.088 285.974C237.019 286.335 237.979 286.475 238.969 286.393C239.958 286.311 240.941 285.972 241.916 285.376C242.922 284.761 243.695 284.019 244.234 283.152C244.763 282.291 245.074 281.352 245.167 280.336C245.267 279.331 245.178 278.295 244.899 277.23C244.621 276.165 244.175 275.129 243.563 274.123C242.95 273.117 242.24 272.243 241.433 271.502C240.632 270.771 239.764 270.211 238.83 269.823C237.892 269.451 236.917 269.299 235.905 269.366C234.888 269.45 233.861 269.809 232.824 270.443Z" fill="#8D1038"/>
<path d="M217.757 273.785C218.18 275.145 218.59 276.464 218.988 277.742C219.385 279.02 219.831 280.451 220.324 282.037L222.996 290.626C223.504 292.258 223.962 293.731 224.371 295.045C224.779 296.358 225.199 297.706 225.63 299.091L220.616 300.608C218.914 299.233 217.305 297.933 215.79 296.709C214.279 295.496 212.765 294.278 211.25 293.054L205.342 288.317L204.923 288.444L207.098 295.436C207.606 297.069 208.064 298.542 208.473 299.855C208.882 301.168 209.301 302.517 209.732 303.901L204.334 305.535C203.903 304.15 203.483 302.802 203.075 301.488C202.666 300.175 202.208 298.702 201.7 297.07L199.028 288.481C198.535 286.895 198.089 285.464 197.692 284.186C197.294 282.908 196.884 281.589 196.461 280.229L201.422 278.727C202.819 279.858 204.28 281.034 205.807 282.255C207.334 283.476 209.004 284.808 210.817 286.253L216.799 291.045L217.201 290.923L214.943 283.665C214.45 282.08 214.005 280.648 213.607 279.37C213.21 278.093 212.799 276.773 212.376 275.413L217.757 273.785Z" fill="#8D1038"/>
<path d="M194.055 280.35C194.188 281.765 194.317 283.137 194.441 284.466C194.566 285.795 194.706 287.284 194.861 288.933L195.7 297.868C195.86 299.566 196.004 301.099 196.132 302.465C196.26 303.831 196.392 305.234 196.527 306.674L179.254 308.043L178.788 303.078C179.907 302.989 181.11 302.893 182.399 302.791C183.676 302.69 185.184 302.57 186.923 302.432L193.051 301.946L190.564 306.179C190.429 304.74 190.297 303.337 190.169 301.97C190.04 300.604 189.896 299.072 189.737 297.374L189.078 290.359C188.924 288.722 188.784 287.233 188.658 285.892C188.534 284.563 188.405 283.19 188.272 281.775L191.129 285.584L184.945 286.075C183.498 286.189 182.13 286.298 180.841 286.4C179.54 286.503 178.288 286.603 177.084 286.698L176.618 281.732L194.055 280.35ZM190.579 291.672L191.013 296.287L186.252 296.665C184.647 296.792 183.273 296.901 182.13 296.991C180.987 297.082 179.887 297.169 178.829 297.253L178.395 292.638C179.514 292.55 180.645 292.46 181.788 292.369C182.931 292.279 184.275 292.172 185.819 292.05L190.579 291.672Z" fill="#8D1038"/>
<path d="M158.354 278.933C159.425 279.141 160.51 279.446 161.609 279.847C162.698 280.234 163.712 280.662 164.65 281.133C165.576 281.601 166.319 282.046 166.88 282.468L165.531 287.638C164.784 287.005 163.988 286.43 163.145 285.916C162.288 285.411 161.424 284.98 160.553 284.623C159.67 284.264 158.814 284.004 157.984 283.843C157.154 283.681 156.414 283.644 155.765 283.731C155.115 283.818 154.586 284.035 154.177 284.382C153.767 284.741 153.503 285.253 153.387 285.92C153.269 286.599 153.394 287.2 153.763 287.723C154.118 288.255 154.676 288.764 155.437 289.251C156.196 289.749 157.113 290.271 158.187 290.818C159.67 291.582 160.913 292.375 161.914 293.196C162.913 294.029 163.624 294.981 164.047 296.053C164.455 297.135 164.528 298.434 164.264 299.949C164 301.464 163.437 302.733 162.574 303.756C161.71 304.792 160.553 305.507 159.104 305.902C157.654 306.298 155.907 306.297 153.862 305.9C153.056 305.743 152.259 305.532 151.472 305.267C150.683 305.013 149.924 304.728 149.196 304.411C148.455 304.092 147.779 303.76 147.168 303.416C146.556 303.072 146.031 302.732 145.592 302.396L146.961 297.211C147.647 297.845 148.376 298.406 149.149 298.895C149.922 299.383 150.691 299.789 151.456 300.113C152.22 300.437 152.927 300.662 153.577 300.788C154.311 300.93 154.995 300.963 155.631 300.886C156.254 300.806 156.775 300.6 157.193 300.268C157.612 299.936 157.874 299.467 157.98 298.861C158.083 298.267 158.008 297.732 157.755 297.257C157.488 296.792 157.039 296.335 156.408 295.886C155.763 295.448 154.922 294.959 153.884 294.419C151.935 293.401 150.423 292.438 149.351 291.528C148.276 290.63 147.574 289.66 147.245 288.619C146.905 287.575 146.859 286.338 147.108 284.908C147.385 283.32 147.97 281.999 148.862 280.944C149.753 279.901 150.983 279.194 152.553 278.822C154.122 278.45 156.056 278.487 158.354 278.933Z" fill="#8D1038"/>
<path d="M148.982 277.897C148.028 279.024 147.031 280.213 145.989 281.462C144.936 282.707 143.941 283.89 143.004 285.01L136.934 292.204C135.842 293.513 134.857 294.686 133.979 295.725C133.096 296.776 132.211 297.832 131.323 298.894L124.112 295.854C124.212 294.408 124.311 293 124.407 291.631C124.491 290.257 124.585 288.728 124.688 287.042L125.322 277.537C125.416 276.008 125.52 274.436 125.634 272.822C125.737 271.203 125.837 269.657 125.936 268.183L131.718 270.62C131.563 272.071 131.408 273.554 131.253 275.071C131.094 276.599 130.947 278.047 130.812 279.413L129.465 292.547L129.874 292.719L137.874 282.529C138.741 281.419 139.656 280.255 140.618 279.039C141.564 277.829 142.481 276.66 143.369 275.531L148.982 277.897ZM141.1 280.518L138.829 284.467L127.995 279.9L129.195 275.5L141.1 280.518Z" fill="#8D1038"/>
<path d="M125.563 267.445C124.785 268.614 124.032 269.748 123.302 270.846C122.572 271.944 121.754 273.174 120.848 274.537L115.941 281.918C115.008 283.321 114.166 284.587 113.416 285.716C112.666 286.844 111.895 288.003 111.104 289.193L106.083 285.738C106.874 284.548 107.645 283.389 108.395 282.261C109.146 281.132 109.987 279.866 110.92 278.463L115.29 271.89C116.196 270.528 117.014 269.297 117.744 268.199C118.474 267.101 119.227 265.968 120.005 264.798L119.372 269.564L115.114 266.634C114.056 265.906 113.13 265.269 112.337 264.723C111.533 264.17 110.79 263.659 110.109 263.19C109.417 262.714 108.71 262.227 107.987 261.73L110.897 257.353L125.563 267.445Z" fill="#8D1038"/>
<path d="M110.223 256.644C109.245 257.646 108.297 258.619 107.379 259.561C106.461 260.502 105.432 261.557 104.293 262.726L98.1211 269.057C96.9479 270.26 95.8895 271.346 94.9459 272.314C94.0022 273.282 93.0331 274.276 92.0384 275.296L79.5797 262.885L83.0099 259.366C83.8168 260.17 84.6851 261.035 85.6148 261.961C86.5357 262.879 87.6233 263.962 88.8775 265.211L93.2979 269.615L88.4653 270.396C89.4599 269.376 90.4291 268.382 91.3727 267.414C92.3164 266.446 93.3748 265.36 94.5479 264.157L99.3936 259.186C100.524 258.026 101.553 256.971 102.48 256.021C103.398 255.079 104.346 254.106 105.323 253.104L104.345 257.725L99.8854 253.282C98.8417 252.242 97.855 251.259 96.9253 250.333C95.9869 249.398 95.0835 248.498 94.2152 247.633L97.6454 244.114L110.223 256.644ZM99.3984 261.176L96.2105 264.446L92.7768 261.026C91.619 259.872 90.6279 258.885 89.8035 258.064C88.9791 257.242 88.1853 256.452 87.4223 255.691L90.6102 252.421C91.4171 253.225 92.2328 254.038 93.0572 254.859C93.8817 255.68 94.8508 256.646 95.9647 257.755L99.3984 261.176Z" fill="#8D1038"/>
<path d="M92.0083 235.236C92.6312 236.147 93.1964 237.135 93.7041 238.201C94.2148 239.249 94.6419 240.272 94.9855 241.27C95.3221 242.258 95.5437 243.099 95.6504 243.793L91.0587 246.418C90.9662 245.442 90.7977 244.474 90.5532 243.514C90.2916 242.549 89.9734 241.632 89.5988 240.761C89.217 239.879 88.7848 239.086 88.3019 238.38C87.819 237.674 87.314 237.118 86.7869 236.714C86.2598 236.309 85.7281 236.081 85.1918 236.029C84.6454 235.984 84.097 236.152 83.5464 236.531C82.9857 236.918 82.6547 237.425 82.5532 238.052C82.4348 238.676 82.4783 239.429 82.6839 240.311C82.8795 241.201 83.171 242.219 83.5586 243.368C84.0879 244.96 84.4242 246.4 84.5675 247.687C84.7008 248.98 84.5435 250.15 84.0955 251.197C83.6306 252.241 82.7724 253.194 81.521 254.057C80.2696 254.92 78.976 255.398 77.64 255.491C76.2941 255.591 74.9624 255.259 73.645 254.496C72.3276 253.733 71.074 252.482 69.8843 250.742C69.4154 250.057 68.9916 249.34 68.6128 248.592C68.224 247.851 67.8793 247.11 67.5785 246.369C67.2708 245.617 67.0181 244.903 66.8204 244.226C66.6227 243.549 66.484 242.937 66.4042 242.39L71.0215 239.77C71.0689 240.701 71.1989 241.613 71.4115 242.506C71.6241 243.398 71.8912 244.23 72.213 245.002C72.5347 245.775 72.8845 246.437 73.2624 246.989C73.6893 247.614 74.1578 248.126 74.6679 248.528C75.171 248.919 75.6892 249.148 76.2225 249.217C76.7558 249.286 77.2727 249.148 77.7733 248.803C78.2638 248.465 78.5848 248.04 78.7362 247.529C78.8707 247.015 78.8686 246.376 78.7299 245.613C78.5743 244.847 78.3132 243.905 77.9467 242.788C77.2606 240.686 76.8514 238.935 76.7192 237.535C76.577 236.142 76.7528 234.967 77.2467 234.009C77.7337 233.04 78.5678 232.149 79.7491 231.334C81.0605 230.43 82.4062 229.931 83.7862 229.838C85.1562 229.751 86.5349 230.141 87.9223 231.006C89.3096 231.872 90.6717 233.282 92.0083 235.236Z" fill="#8D1038"/>
<path d="M76.8461 204.263C75.4861 204.596 74.1675 204.918 72.8902 205.23C71.613 205.542 70.182 205.891 68.5973 206.278L60.9338 208.15C59.3017 208.549 57.8294 208.909 56.5166 209.229C55.2039 209.55 53.8557 209.879 52.472 210.217L56.0726 206.967L56.9387 210.369C57.2839 211.725 57.5894 212.926 57.8552 213.97C58.121 215.014 58.3745 216.01 58.6159 216.958L53.5246 218.202L48.076 196.797L53.1673 195.553C53.4055 196.489 53.6576 197.48 53.9234 198.524C54.1892 199.568 54.4962 200.774 54.8445 202.142L55.7105 205.545L50.9689 204.313C52.3526 203.975 53.7008 203.645 55.0136 203.325C56.3263 203.004 57.7987 202.644 59.4307 202.246L67.0942 200.374C68.6789 199.987 70.1099 199.637 71.3872 199.325C72.6644 199.013 73.983 198.691 75.3431 198.359L76.8461 204.263Z" fill="#8D1038"/>
<path d="M73.4888 189.869C72.0864 189.927 70.7268 189.983 69.4098 190.038C68.0928 190.093 66.6173 190.154 64.9832 190.222L56.1301 190.589C54.4473 190.659 52.9291 190.722 51.5755 190.778C50.222 190.834 48.8318 190.892 47.4051 190.951L46.4067 173.43L51.3271 173.226C51.3918 174.361 51.4613 175.582 51.5358 176.889C51.6096 178.185 51.6968 179.714 51.7973 181.478L52.1515 187.694L48.0168 184.954C49.4435 184.895 50.8337 184.837 52.1872 184.781C53.5408 184.725 55.059 184.662 56.7418 184.592L63.6926 184.304C65.3144 184.236 66.7899 184.175 68.1191 184.12C69.4361 184.065 70.7958 184.009 72.1981 183.951L68.3723 186.632L68.0149 180.36C67.9312 178.892 67.8522 177.504 67.7776 176.197C67.7024 174.877 67.6301 173.607 67.5605 172.386L72.4809 172.182L73.4888 189.869ZM62.3632 185.75L57.7903 185.939L57.5152 181.111C57.4224 179.483 57.343 178.089 57.2769 176.929C57.2108 175.77 57.1472 174.654 57.0861 173.581L61.659 173.391C61.7236 174.526 61.789 175.673 61.8551 176.832C61.9211 177.992 61.9988 179.355 62.088 180.921L62.3632 185.75Z" fill="#8D1038"/>
<path d="M72.6197 170.356C71.2262 170.154 69.8752 169.958 68.5665 169.768C67.2578 169.578 65.7917 169.365 64.168 169.13L55.3709 167.853C53.6987 167.611 52.1901 167.392 50.8451 167.196C49.5001 167.001 48.1187 166.801 46.701 166.595L47.4606 160.565C48.8783 160.771 50.2597 160.971 51.6047 161.167C52.9497 161.362 54.4583 161.581 56.1305 161.823L63.9642 162.96C65.588 163.196 67.0541 163.409 68.3628 163.598C69.6714 163.788 71.0225 163.984 72.416 164.187L67.8997 165.659L68.5438 160.545C68.7039 159.275 68.844 158.163 68.964 157.21C69.0856 156.244 69.198 155.352 69.3011 154.534C69.4058 153.703 69.5128 152.854 69.622 151.986L74.8385 152.743L72.6197 170.356Z" fill="#8D1038"/>
<path d="M75.1069 151.852C73.7685 151.398 72.4707 150.959 71.2138 150.534C69.9568 150.108 68.5485 149.631 66.9889 149.104L58.5391 146.243C56.9329 145.7 55.4839 145.209 54.192 144.772C52.9 144.334 51.5732 143.885 50.2115 143.424L55.4757 126.806L60.1719 128.396C59.831 129.472 59.4641 130.63 59.0713 131.87C58.6822 133.099 58.2226 134.549 57.6927 136.222L55.825 142.119L52.9092 138.081C54.271 138.542 55.5978 138.991 56.8897 139.429C58.1816 139.866 59.6307 140.356 61.2368 140.9L67.871 143.146C69.4189 143.67 70.8272 144.146 72.0959 144.576C73.3529 145.001 74.6506 145.441 75.9891 145.894L71.4446 146.998L73.329 141.049C73.77 139.657 74.1869 138.341 74.5798 137.101C74.9763 135.849 75.358 134.644 75.7249 133.486L80.4212 135.075L75.1069 151.852ZM66.1098 144.007L61.7452 142.529L63.196 137.949C63.6852 136.405 64.104 135.083 64.4523 133.983C64.8007 132.884 65.1361 131.825 65.4585 130.807L69.823 132.285C69.4821 133.361 69.1375 134.449 68.7891 135.549C68.4408 136.648 68.0313 137.941 67.5606 139.427L66.1098 144.007Z" fill="#8D1038"/>
<path d="M81.2717 132.974C80.0426 132.267 78.8508 131.581 77.6965 130.916C76.5422 130.251 75.249 129.507 73.8168 128.682L66.0572 124.214C64.5823 123.365 63.2516 122.599 62.0652 121.916C60.8788 121.233 59.6604 120.531 58.4099 119.811C58.9243 118.88 59.6131 117.634 60.4764 116.071C61.3456 114.498 62.3478 112.684 63.483 110.63C64.506 108.778 65.5901 107.364 66.7356 106.388C67.887 105.4 69.1632 104.901 70.5643 104.889C71.9606 104.861 73.5458 105.358 75.32 106.379C76.8271 107.247 78.0099 108.281 78.8686 109.48C79.7166 110.674 80.1354 112.058 80.1252 113.631C80.1042 115.199 79.5498 116.968 78.4618 118.937C78.1721 119.461 77.8617 120.023 77.5306 120.622C77.2054 121.211 76.8861 121.788 76.5727 122.356C76.2593 122.923 75.9903 123.41 75.7656 123.816L71.7576 121.509L73.7886 117.833C74.2971 116.912 74.591 116.087 74.6704 115.357C74.7498 114.627 74.6098 113.975 74.2505 113.402C73.8865 112.811 73.2929 112.279 72.47 111.805C71.818 111.43 71.2274 111.224 70.6982 111.187C70.175 111.14 69.7095 111.217 69.3017 111.42C68.894 111.622 68.535 111.902 68.2248 112.26C67.9099 112.6 67.64 112.974 67.4153 113.38L64.0273 119.512L62.1172 115.09C63.3677 115.81 64.5861 116.512 65.7725 117.195C66.9589 117.878 68.2895 118.644 69.7645 119.494L76.6904 123.481C78.1226 124.306 79.4158 125.051 80.5701 125.715C81.7244 126.38 82.9162 127.066 84.1453 127.774L81.2717 132.974Z" fill="#8D1038"/>
<path d="M102.004 102.797C100.952 101.839 99.932 100.909 98.9442 100.009C97.9563 99.1092 96.8496 98.1008 95.624 96.9841L88.9837 90.9337C87.7215 89.7837 86.5828 88.7461 85.5675 87.8211C84.5523 86.896 83.5096 85.9459 82.4395 84.9709L86.4468 80.4631C87.5169 81.4381 88.5596 82.3882 89.5749 83.3132C90.5901 84.2383 91.7289 85.2758 92.9911 86.4259L99.6314 92.4763C100.857 93.593 101.964 94.6014 102.951 95.5014C103.939 96.4015 104.959 97.3307 106.011 98.2891L102.004 102.797ZM91.2081 114.941C90.1563 113.982 89.1364 113.053 88.1486 112.153C87.1608 111.253 86.0541 110.245 84.8285 109.128L78.1882 103.078C76.926 101.927 75.7873 100.89 74.772 99.9649C73.7568 99.0398 72.7141 98.0898 71.644 97.1147L75.6391 92.6205C76.7093 93.5956 77.752 94.5456 78.7672 95.4707C79.7825 96.3957 80.9212 97.4333 82.1834 98.5834L88.8237 104.634C90.0493 105.75 91.156 106.759 92.1438 107.659C93.1316 108.559 94.1515 109.488 95.2033 110.447L91.2081 114.941ZM86.1393 104.413L82.3801 100.988L91.4513 90.7838L95.2105 94.209L86.1393 104.413Z" fill="#8D1038"/>
<path d="M118.069 90.2384C116.121 91.5479 114.233 92.3769 112.404 92.7252C110.568 93.0632 108.837 93.0098 107.21 92.5651C105.576 92.1101 104.074 91.3495 102.704 90.2833C101.345 89.2103 100.159 87.9158 99.1478 86.3999C97.7163 84.2549 96.8362 82.038 96.5075 79.7491C96.182 77.4432 96.501 75.2267 97.4645 73.0998C98.4381 70.9661 100.161 69.068 102.633 67.4056C104.51 66.1436 106.35 65.34 108.152 64.995C109.947 64.6396 111.659 64.6757 113.29 65.1034C114.93 65.5242 116.443 66.2695 117.83 67.3392C119.216 68.4089 120.439 69.7378 121.499 71.3259C122.965 73.5225 123.844 75.7702 124.135 78.0691C124.437 80.3612 124.099 82.5604 123.122 84.6667C122.145 86.773 120.46 88.6303 118.069 90.2384ZM115.195 86.0973C116.194 85.4256 116.94 84.6478 117.432 83.7642C117.917 82.8702 118.18 81.9167 118.22 80.9036C118.261 79.8905 118.113 78.8694 117.777 77.8403C117.444 76.7941 116.954 75.7863 116.307 74.817C115.626 73.7961 114.857 72.9389 113.999 72.2456C113.145 71.5351 112.24 71.0229 111.285 70.709C110.34 70.3883 109.375 70.29 108.391 70.414C107.407 70.5381 106.44 70.9191 105.492 71.5569C104.513 72.2151 103.772 72.9894 103.27 73.8798C102.778 74.7635 102.507 75.7153 102.456 76.7352C102.399 77.7447 102.532 78.776 102.854 79.829C103.177 80.8819 103.665 81.8982 104.319 82.8779C104.973 83.8576 105.718 84.7009 106.556 85.4078C107.386 86.1044 108.276 86.6268 109.224 86.9749C110.176 87.306 111.156 87.4163 112.165 87.3061C113.176 87.1788 114.186 86.7758 115.195 86.0973Z" fill="#8D1038"/>
<path d="M129.945 82.0957C129.461 80.7552 128.991 79.4555 128.537 78.1966C128.082 76.9377 127.572 75.5272 127.008 73.9653L123.951 65.5026C123.37 63.894 122.845 62.4428 122.378 61.1489C121.91 59.855 121.43 58.5262 120.938 57.1624L125.874 55.4131C127.635 56.7087 129.3 57.9333 130.868 59.087C132.431 60.2291 133.997 61.377 135.565 62.5307L141.677 66.9916L142.09 66.8453L139.601 59.9563C139.02 58.3477 138.496 56.8964 138.028 55.6026C137.561 54.3087 137.081 52.9798 136.588 51.616L141.903 49.7327C142.395 51.0965 142.875 52.4254 143.343 53.7192C143.81 55.0131 144.335 56.4644 144.916 58.073L147.973 66.5356C148.537 68.0976 149.047 69.508 149.502 70.7669C149.956 72.0258 150.426 73.3255 150.91 74.666L146.026 76.397C144.58 75.3314 143.068 74.2238 141.489 73.0741C139.909 71.9244 138.182 70.6695 136.307 69.3091L130.117 64.7966L129.722 64.9368L132.305 72.088C132.869 73.65 133.379 75.0605 133.834 76.3194C134.289 77.5783 134.758 78.878 135.242 80.2185L129.945 82.0957Z" fill="#8D1038"/>
<path d="M153.105 74.3918C152.909 72.983 152.72 71.617 152.536 70.2939C152.352 68.9707 152.147 67.4884 151.919 65.8467L150.685 56.9524C150.45 55.2618 150.238 53.7365 150.05 52.3766C149.861 51.0167 149.667 49.6201 149.468 48.1867L166.65 46.0345L167.336 50.9778C166.223 51.1172 165.026 51.2672 163.744 51.4278C162.474 51.5869 160.974 51.7748 159.244 51.9915L153.148 52.7551L155.443 48.4105C155.642 49.8439 155.836 51.2405 156.025 52.6004C156.213 53.9603 156.425 55.4855 156.66 57.1762L157.628 64.1593C157.855 65.7887 158.06 67.2711 158.246 68.6065C158.429 69.9296 158.619 71.2956 158.814 72.7045L155.793 69.0258L161.944 68.2554C163.383 68.0751 164.744 67.9046 166.026 67.744C167.321 67.5819 168.566 67.4258 169.764 67.2758L170.45 72.2192L153.105 74.3918ZM156.071 62.9148L155.434 58.3206L160.169 57.7274C161.766 57.5274 163.133 57.3562 164.27 57.2138C165.407 57.0714 166.501 56.9343 167.554 56.8025L168.191 61.3966C167.078 61.536 165.954 61.6769 164.817 61.8193C163.68 61.9618 162.343 62.1292 160.807 62.3216L156.071 62.9148Z" fill="#8D1038"/>
<path d="M189.027 74.0787C187.949 73.9182 186.853 73.6616 185.738 73.309C184.634 72.9703 183.604 72.5867 182.647 72.1579C181.702 71.731 180.941 71.3189 180.363 70.9217L181.485 65.6927C182.259 66.2933 183.078 66.8323 183.942 67.3094C184.82 67.7762 185.701 68.1687 186.586 68.4871C187.482 68.8074 188.349 69.0297 189.184 69.1541C190.02 69.2785 190.76 69.2829 191.405 69.1672C192.049 69.0516 192.568 68.8114 192.961 68.4466C193.356 68.0697 193.597 67.5454 193.684 66.8737C193.772 66.1899 193.621 65.5948 193.23 65.0884C192.853 64.5717 192.273 64.0871 191.493 63.6348C190.713 63.1702 189.776 62.6884 188.68 62.1892C187.166 61.4907 185.891 60.7533 184.856 59.9768C183.822 59.1881 183.072 58.2672 182.603 57.2141C182.148 56.1506 182.02 54.8556 182.218 53.3291C182.416 51.8026 182.923 50.5088 183.74 49.4479C184.558 48.3747 185.682 47.6084 187.112 47.1491C188.542 46.6898 190.286 46.6134 192.345 46.9199C193.157 47.0407 193.961 47.2164 194.758 47.4471C195.557 47.6656 196.327 47.9172 197.068 48.2017C197.821 48.4881 198.51 48.7898 199.135 49.107C199.761 49.4242 200.3 49.741 200.753 50.0573L199.61 55.302C198.898 54.6981 198.146 54.1691 197.353 53.715C196.56 53.2608 195.775 52.8888 194.998 52.5988C194.22 52.3088 193.505 52.1152 192.851 52.0178C192.112 51.9078 191.427 51.9055 190.796 52.0107C190.177 52.1178 189.666 52.3466 189.263 52.6973C188.859 53.048 188.618 53.5287 188.539 54.1393C188.461 54.7377 188.559 55.2688 188.832 55.7327C189.119 56.1862 189.587 56.6231 190.236 57.0434C190.899 57.4533 191.76 57.9051 192.82 58.3989C194.81 59.33 196.36 60.2268 197.471 61.0891C198.583 61.9393 199.325 62.8776 199.698 63.9041C200.083 64.9323 200.182 66.167 199.996 67.608C199.788 69.2078 199.262 70.5547 198.416 71.6487C197.572 72.7305 196.375 73.492 194.824 73.9333C193.273 74.3746 191.341 74.4231 189.027 74.0787Z" fill="#8D1038"/>
<path d="M198.438 74.6172C199.341 73.4482 200.285 72.2161 201.271 70.9209C202.269 69.63 203.211 68.4037 204.098 67.2419L209.847 59.7817C210.881 58.4256 211.813 57.2087 212.645 56.131C213.481 55.0418 214.319 53.9467 215.159 52.8459L222.49 55.5669C222.452 57.0178 222.415 58.4296 222.378 59.8025C222.353 61.1797 222.326 62.7129 222.296 64.4022L222.073 73.9334C222.046 75.4666 222.01 77.0425 221.965 78.661C221.933 80.2838 221.899 81.8344 221.865 83.3128L215.986 81.1309C216.078 79.6739 216.169 78.1837 216.258 76.6603C216.351 75.1253 216.436 73.672 216.511 72.3004L217.288 59.1101L216.873 58.9561L209.326 69.4964C208.509 70.6448 207.646 71.8483 206.738 73.107C205.845 74.3583 204.98 75.5677 204.143 76.7349L198.438 74.6172ZM206.192 71.6488L208.289 67.6007L219.303 71.6885L218.295 76.141L206.192 71.6488Z" fill="#8D1038"/>
<path d="M222.572 84.1278C223.296 82.924 223.999 81.7569 224.68 80.6264C225.36 79.4959 226.123 78.2293 226.967 76.8267L231.543 69.2273C232.412 67.7828 233.197 66.4796 233.896 65.3177C234.596 64.1558 235.314 62.9625 236.052 61.7378L241.215 64.9669C240.478 66.1916 239.759 67.3849 239.06 68.5468C238.36 69.7087 237.576 71.0119 236.706 72.4564L232.632 79.2237C231.787 80.6263 231.025 81.8929 230.344 83.0234C229.664 84.1539 228.961 85.321 228.236 86.5248L228.659 81.7318L233.038 84.4702C234.126 85.1507 235.078 85.7461 235.894 86.2565C236.721 86.7734 237.485 87.2511 238.186 87.6895C238.897 88.1345 239.625 88.5892 240.368 89.0538L237.655 93.5601L222.572 84.1278Z" fill="#8D1038"/>
<path d="M238.233 94.1147C239.164 93.0674 240.067 92.052 240.941 91.0685C241.816 90.0849 242.795 88.983 243.88 87.7627L249.757 81.1513C250.875 79.8945 251.883 78.7608 252.781 77.7499C253.68 76.7391 254.603 75.7009 255.55 74.6354L268.542 86.4736L265.276 90.1482C264.434 89.3815 263.529 88.5564 262.559 87.673C261.599 86.798 260.465 85.7646 259.157 84.5728L254.547 80.3726L259.336 79.371C258.389 80.4364 257.466 81.4746 256.567 82.4855C255.669 83.4963 254.661 84.6301 253.544 85.8868L248.929 91.0777C247.852 92.2889 246.873 93.3908 245.991 94.3834C245.116 95.3669 244.214 96.3823 243.283 97.4296L244.052 92.7653L248.703 97.003C249.791 97.9947 250.82 98.9323 251.79 99.8157C252.768 100.707 253.71 101.566 254.616 102.391L251.349 106.065L238.233 94.1147ZM248.835 89.0883L251.871 85.6733L255.452 88.9359C256.659 90.036 257.693 90.9777 258.553 91.7611C259.412 92.5445 260.24 93.2987 261.036 94.0238L258 97.4388C257.159 96.672 256.308 95.897 255.448 95.1136C254.588 94.3302 253.578 93.4094 252.416 92.351L248.835 89.0883Z" fill="#8D1038"/>
<path d="M257.378 114.64C256.715 113.758 256.106 112.797 255.55 111.755C254.993 110.731 254.52 109.728 254.131 108.746C253.75 107.774 253.491 106.944 253.353 106.255L257.816 103.417C257.953 104.388 258.165 105.348 258.453 106.297C258.758 107.249 259.118 108.151 259.531 109.004C259.953 109.868 260.42 110.641 260.935 111.324C261.449 112.008 261.978 112.539 262.523 112.919C263.067 113.299 263.608 113.502 264.146 113.529C264.694 113.549 265.233 113.356 265.766 112.95C266.308 112.538 266.615 112.016 266.688 111.384C266.777 110.755 266.7 110.004 266.454 109.132C266.218 108.252 265.881 107.247 265.442 106.117C264.841 104.549 264.439 103.126 264.238 101.846C264.046 100.559 264.149 99.3821 264.549 98.3147C264.965 97.2498 265.778 96.2569 266.988 95.3359C268.198 94.4148 269.467 93.8767 270.796 93.7215C272.135 93.5588 273.48 93.8283 274.83 94.5298C276.179 95.2313 277.488 96.4238 278.755 98.1076C279.254 98.7712 279.71 99.4679 280.122 100.198C280.544 100.92 280.922 101.645 281.256 102.372C281.597 103.109 281.882 103.812 282.11 104.479C282.338 105.146 282.505 105.752 282.609 106.295L278.12 109.129C278.03 108.201 277.859 107.295 277.606 106.413C277.353 105.531 277.048 104.711 276.692 103.954C276.336 103.197 275.956 102.551 275.554 102.017C275.099 101.412 274.608 100.922 274.081 100.544C273.561 100.177 273.033 99.9712 272.498 99.9271C271.962 99.8831 271.452 100.045 270.968 100.414C270.494 100.775 270.193 101.214 270.065 101.732C269.955 102.253 269.986 102.891 270.159 103.647C270.349 104.406 270.653 105.335 271.07 106.435C271.85 108.505 272.339 110.236 272.535 111.629C272.74 113.015 272.618 114.198 272.169 115.179C271.727 116.17 270.935 117.1 269.793 117.969C268.525 118.934 267.205 119.496 265.832 119.653C264.468 119.804 263.074 119.478 261.65 118.678C260.225 117.877 258.802 116.531 257.378 114.64Z" fill="#8D1038"/>
<path fill-rule="evenodd" clip-rule="evenodd" d="M213.354 140.747C213.386 153.11 213.447 165.45 213.408 177.594C213.37 189.611 213.445 201.927 213.334 214.227C212.983 214.339 212.597 214.289 212.237 214.287C206.568 214.27 200.999 214.288 195.244 214.255C195.222 214.225 195.186 214.211 195.158 214.19C195.085 212.372 195.168 210.477 195.154 208.62C195.15 208.021 195.066 207.403 195.203 206.842C195.22 206.838 195.224 206.821 195.246 206.821C198.687 206.721 202.22 206.888 205.635 206.811C205.765 206.808 205.875 206.816 205.98 206.748C206.094 187.319 206.05 167.679 206.016 148.393C205.997 148.384 205.978 148.374 205.973 148.35C186.669 148.276 167.074 148.301 147.615 148.291C147.605 148.31 147.596 148.33 147.571 148.334C147.472 162.786 147.564 177.479 147.517 192.165C147.503 196.344 147.533 200.535 147.519 204.804C147.517 205.479 147.45 206.234 147.578 206.69C155.104 206.777 162.83 206.738 170.465 206.763C173.549 206.773 176.461 206.761 179.564 206.771C181.083 206.775 182.599 206.832 184.103 206.721C184.238 203.936 184.104 200.999 184.151 198.366C184.164 197.691 184.18 197.06 184.179 196.353C184.179 196.143 184.095 195.92 184.224 195.732C184.242 195.728 184.246 195.711 184.267 195.711C187.835 195.669 191.612 195.744 195.087 195.681C195.097 195.662 195.106 195.643 195.131 195.638C195.23 185.104 195.133 174.71 195.167 164.126C195.17 163.371 195.19 162.612 195.175 161.855C195.157 161.028 195.189 160.136 195.118 159.37C190.624 159.202 185.976 159.394 181.373 159.305C178.337 159.246 175.302 159.307 172.231 159.297C169.143 159.287 166.121 159.298 163.175 159.289C162.023 159.285 160.891 159.303 159.712 159.299C159.356 159.298 158.985 159.246 158.636 159.36C158.632 159.378 158.615 159.381 158.615 159.403C158.592 162.403 158.552 165.385 158.607 168.379C158.661 171.333 158.527 174.398 158.6 177.334C158.638 178.847 158.619 180.382 158.586 181.897C158.552 183.409 158.597 184.923 158.592 186.439C158.583 189.466 158.589 192.501 158.585 195.522C158.597 195.566 158.63 195.591 158.649 195.629C163.267 195.713 168.116 195.693 172.781 195.653C172.809 195.645 172.815 195.615 172.846 195.61C172.947 192.199 172.831 188.398 172.923 184.814C172.941 184.809 172.945 184.792 172.966 184.792C176.62 184.679 180.538 184.855 184.131 184.721C184.213 183.726 184.199 182.463 184.141 181.465C183.863 181.358 183.167 181.419 182.679 181.417C179.531 181.406 176.175 181.411 172.999 181.364C172.964 181.37 172.962 181.344 172.935 181.343C172.87 178.811 172.88 176.208 172.916 173.695C172.935 173.686 172.955 173.676 172.959 173.652C176.604 173.553 180.34 173.656 184.059 173.602C184.094 173.608 184.096 173.582 184.124 173.581C184.124 173.581 184.172 172.022 184.175 171.203C184.175 171.203 184.204 170.55 184.134 170.346C183.876 170.237 183.573 170.252 183.296 170.258C178.92 170.348 174.067 170.162 169.636 170.3C169.632 170.317 169.615 170.321 169.614 170.343C169.466 177.385 169.666 184.668 169.567 191.872C169.565 192.027 169.593 192.176 169.502 192.279C167.049 192.278 164.454 192.362 162.037 192.255C161.928 191.058 161.98 189.836 161.984 188.613C162.008 181.287 161.967 173.908 161.991 166.44C161.994 165.551 161.997 164.599 162 163.677C162.001 163.311 161.956 162.964 162.024 162.713C171.705 162.665 181.95 162.681 191.687 162.722C191.699 162.753 191.721 162.775 191.752 162.787C191.778 172.564 191.826 182.557 191.722 192.285C188.169 192.375 184.513 192.263 180.902 192.315C180.873 192.322 180.868 192.352 180.837 192.357C180.747 192.779 180.788 193.222 180.769 193.664C180.711 194.986 180.781 196.369 180.777 197.756C180.771 199.614 180.783 201.499 180.738 203.325C180.471 203.429 180.181 203.388 179.899 203.387C171.439 203.36 163.208 203.377 154.731 203.349C153.835 203.346 152.894 203.343 151.934 203.34C151.572 203.339 151.219 203.378 150.945 203.316C150.848 199.065 150.908 194.715 150.922 190.398C150.964 177.411 150.856 164.77 150.939 151.752C150.923 151.693 150.981 151.709 150.982 151.666C168.095 151.682 185.555 151.608 202.608 151.725C202.761 153.848 202.589 156.013 202.652 158.173C202.715 160.326 202.659 162.493 202.652 164.643C202.612 177.382 202.678 189.835 202.638 202.647C202.637 202.891 202.689 203.167 202.571 203.396C202.554 203.4 202.55 203.417 202.528 203.417C198.994 203.459 195.357 203.378 191.816 203.447C191.812 203.464 191.794 203.468 191.794 203.49C191.702 206.607 191.752 209.719 191.742 212.916C191.741 213.349 191.792 213.789 191.674 214.201C187.392 214.256 183.088 214.237 178.768 214.223C165.829 214.181 152.747 214.211 139.898 214.077C139.814 212.576 139.843 211.057 139.848 209.536C139.858 206.445 139.847 203.35 139.856 200.26C139.864 197.93 139.871 195.661 139.879 193.34C139.935 175.664 139.798 158.192 139.919 140.684C141.223 140.612 143.02 140.65 144.348 140.654C151.564 140.678 158.946 140.658 166.203 140.682C167.677 140.686 169.157 140.716 170.634 140.674C172.847 140.612 175.019 140.667 177.237 140.674C182.334 140.69 187.549 140.686 192.725 140.703C197.795 140.719 202.932 140.671 208.106 140.688C209.47 140.692 210.508 140.7 211.848 140.679C212.307 140.67 213.016 140.643 213.354 140.747Z" fill="#8D1038"/>
</svg>
