<svg width="135" height="134" viewBox="0 0 135 134" fill="none" xmlns="http://www.w3.org/2000/svg">
<g id="fi_5110900" clip-path="url(#clip0_1163_4133)">
<g id="Group">
<g id="Group_2">
<path id="Vector" d="M128.95 69.7529C127.878 68.0805 127.878 65.9193 128.95 64.2472L133.344 57.394C134.909 54.9515 135.377 51.9434 134.626 49.1408C133.875 46.3387 131.966 43.9672 129.389 42.6355L127.281 41.5459L130.805 38.0217C136.362 32.4644 136.362 23.4216 130.805 17.864L117.112 4.17151C111.555 -1.38556 102.513 -1.3853 96.9547 4.17151L93.4307 7.69546L92.3411 5.58774C91.0089 3.01047 88.6376 1.10167 85.8355 0.350762C83.0332 -0.400144 80.0251 0.0670453 77.5821 1.63272L70.7295 6.02588C69.057 7.09819 66.8957 7.09793 65.2237 6.02588L58.3711 1.63298C55.9286 0.0675688 52.9205 -0.400406 50.1179 0.351023C47.3156 1.10193 44.944 3.01073 43.6123 5.588L39.8743 12.8188C38.9619 14.5834 37.0876 15.6628 35.1061 15.572L26.9743 15.1933C24.077 15.0587 21.2377 16.158 19.186 18.2092C17.1346 20.2609 16.0353 23.0994 16.1701 25.9978L16.5483 34.1292C16.6407 36.1134 15.56 37.9848 13.7954 38.8975L6.5643 42.6352C3.98704 43.9674 2.07823 46.3387 1.32732 49.1408C0.576418 51.9434 1.04361 54.9515 2.60928 57.3942L7.0027 64.2472C8.07475 65.9196 8.07475 68.0805 7.00244 69.7529L2.60954 76.6058C1.04387 79.0483 0.576418 82.0564 1.32759 84.859C2.07849 87.6611 3.9873 90.0326 6.56456 91.3643L8.67254 92.4539L5.14833 95.9781C-0.408999 101.535 -0.408999 110.578 5.14833 116.136L18.8408 129.828C21.6196 132.607 25.2694 133.996 28.9195 133.996C32.5696 133.996 36.2197 132.607 38.9985 129.828L42.5225 126.304L43.6121 128.412C44.9443 130.989 47.3156 132.898 50.1179 133.649C50.9955 133.884 51.8924 134 52.7863 134C54.7479 134 56.6931 133.443 58.3711 132.367L65.2237 127.974C66.8962 126.901 69.0575 126.901 70.7295 127.974L77.5826 132.367C80.0251 133.933 83.0332 134.4 85.8358 133.649C88.6379 132.898 91.0095 130.989 92.3411 128.412L96.0797 121.181C96.9916 119.416 98.8671 118.335 100.847 118.428L108.979 118.806C111.879 118.942 114.716 117.842 116.767 115.79C118.819 113.739 119.918 110.9 119.783 108.002L119.405 99.8706C119.313 97.8864 120.393 96.015 122.158 95.1024L129.389 91.3646C131.966 90.0324 133.875 87.6611 134.626 84.859C135.377 82.0564 134.91 79.0483 133.344 76.6058L128.95 69.7529ZM8.96804 86.7144C7.67744 86.0472 6.75955 84.9074 6.38371 83.504C6.00734 82.1006 6.23243 80.6538 7.01657 79.4307L11.4095 72.578C13.5824 69.1894 13.5824 64.8104 11.4097 61.4218L7.01657 54.5691C6.23243 53.3458 6.0076 51.8992 6.38371 50.4961C6.75981 49.0927 7.67744 47.9526 8.96804 47.2851L16.1994 43.5471C19.7746 41.6988 21.964 37.9063 21.7774 33.8858L21.399 25.7544C21.3314 24.3033 21.8601 22.9381 22.8877 21.9109C23.915 20.8836 25.2817 20.353 26.7312 20.4221L34.8627 20.8003C38.8886 20.9919 42.6756 18.7976 44.5239 15.2221L48.2622 7.99095C48.9294 6.70036 50.0695 5.78247 51.4729 5.40662C52.8758 5.03025 54.3224 5.25508 55.546 6.03949L62.3991 10.4326C65.7872 12.6047 70.1668 12.6047 73.5549 10.4326L80.4078 6.03949C81.6311 5.25508 83.0769 5.02999 84.4811 5.40662C85.8842 5.78273 87.0243 6.70036 87.6917 7.99095L89.5469 11.5795L82.0227 19.1038C68.7262 15.2137 54.3917 17.0029 42.4916 24.0809C41.2492 24.8197 40.8409 26.426 41.58 27.6681C42.0694 28.4913 42.9392 28.9483 43.8319 28.9483C44.2868 28.9483 44.7477 28.8294 45.1673 28.58C54.979 22.745 66.6407 20.9304 77.7237 23.403L24.3803 76.7464C21.9093 65.6736 23.7161 54.0263 29.5419 44.2158C30.2797 42.9731 29.8707 41.3671 28.6277 40.6291C27.385 39.8915 25.779 40.3003 25.0409 41.5433C17.9742 53.4432 16.1944 67.7596 20.0817 81.0448L12.5566 88.5698L8.96804 86.7144ZM35.2969 126.127C31.7803 129.643 26.0588 129.644 22.5425 126.127L8.84973 112.434C5.33312 108.918 5.33312 103.196 8.84973 99.68L100.656 7.87317C102.415 6.11486 104.724 5.23571 107.034 5.23571C109.343 5.23571 111.652 6.11486 113.411 7.87317L127.103 21.5656C130.62 25.0822 130.62 30.8037 127.103 34.32L35.2969 126.127ZM111.501 77.079C109.625 85.2147 105.497 92.6518 99.5628 98.5863C93.6291 104.52 86.1933 108.647 78.059 110.523C71.5178 112.032 64.7411 112.046 58.2313 110.596L111.572 57.2545C113.022 63.7632 113.008 70.5386 111.501 77.079ZM129.569 83.5043C129.193 84.9074 128.276 86.0475 126.985 86.7149L119.754 90.453C116.179 92.3013 113.989 96.0938 114.176 100.114L114.554 108.246C114.622 109.697 114.093 111.062 113.065 112.089C112.038 113.117 110.67 113.646 109.222 113.578L101.09 113.2C97.0698 113.016 93.2771 115.202 91.4293 118.778L87.6907 126.009C87.0235 127.3 85.8837 128.218 84.48 128.593C83.0769 128.97 81.6301 128.745 80.407 127.961L73.5546 123.567C70.1665 121.395 65.787 121.395 62.3989 123.567L55.5457 127.96C54.3226 128.744 52.8758 128.969 51.4726 128.593C50.0695 128.217 48.9291 127.299 48.2617 126.008L46.4066 122.42L53.9326 114.894C58.5072 116.232 63.2351 116.906 67.9729 116.906C71.7458 116.906 75.5249 116.479 79.235 115.624C88.3264 113.528 96.6356 108.916 103.264 102.288C109.894 95.6585 114.506 87.348 116.602 78.255C118.53 69.8869 118.272 61.1731 115.869 52.9576L123.397 45.4305L126.985 47.2859C128.276 47.9531 129.194 49.0929 129.569 50.4963C129.946 51.8997 129.721 53.3466 128.937 54.5694L124.543 61.4226C122.371 64.8109 122.371 69.1899 124.543 72.5786L128.937 79.4312C129.721 80.654 129.946 82.1006 129.569 83.5043Z" fill="#FFF0F0"/>
<path id="Vector_2" d="M65.5786 80.4774C64.9685 81.0975 64.3241 81.7492 63.7533 82.3245L50.8002 69.3711C49.7782 68.3499 48.1214 68.3493 47.0986 69.3711C46.0765 70.3932 46.0765 72.0505 47.0986 73.0728L61.8916 87.8661C62.3965 88.371 63.0665 88.6327 63.7431 88.6327C64.2105 88.6327 64.6811 88.5076 65.102 88.2516C65.4441 88.0438 65.525 87.9946 69.3091 84.1498C70.323 83.1193 70.3099 81.4623 69.2798 80.4484C68.2496 79.4339 66.5923 79.4475 65.5786 80.4774Z" fill="#FFF0F0"/>
<path id="Vector_3" d="M30.7123 115.369L28.1604 117.92L24.4593 114.219L26.6866 111.992C27.7087 110.97 27.7087 109.312 26.6866 108.29C25.6643 107.268 24.0075 107.268 22.9849 108.29L20.7576 110.517L17.0562 106.816L19.6081 104.264C20.6301 103.242 20.6301 101.585 19.6081 100.562C18.5858 99.5407 16.929 99.5407 15.9064 100.562L11.5038 104.965C10.4818 105.987 10.4818 107.644 11.5038 108.667L26.3094 123.472C26.8206 123.983 27.4904 124.239 28.1601 124.239C28.8299 124.239 29.4997 123.983 30.0108 123.472L34.4134 119.07C35.4355 118.048 35.4355 116.39 34.4134 115.368C33.3914 114.347 31.7346 114.347 30.7123 115.369Z" fill="#FFF0F0"/>
<path id="Vector_4" d="M120.748 25.333L118.196 27.8848L114.494 24.1834L116.722 21.9561C117.744 20.9341 117.744 19.2768 116.722 18.2545C115.699 17.2327 114.043 17.2327 113.02 18.2545L110.793 20.4818L107.091 16.7804L109.643 14.2285C110.665 13.2064 110.665 11.5492 109.643 10.5268C108.621 9.50505 106.964 9.50505 105.942 10.5268L101.539 14.9294C100.517 15.9515 100.517 17.6088 101.539 18.6311L116.345 33.4367C116.856 33.9476 117.526 34.2033 118.195 34.2033C118.865 34.2033 119.535 33.9476 120.046 33.4367L124.449 29.0341C125.471 28.012 125.471 26.3548 124.449 25.3324C123.427 24.3109 121.77 24.3109 120.748 25.333Z" fill="#FFF0F0"/>
<path id="Vector_5" d="M54.5702 85.7973C53.2984 86.4841 52.8239 88.0718 53.5107 89.3438C54.1768 90.5776 53.9483 92.1325 52.9551 93.1261C52.3505 93.7304 51.5469 94.0633 50.6921 94.0633C49.8373 94.0633 49.0338 93.7304 48.4292 93.1258L41.8503 86.5472C41.246 85.9426 40.9131 85.1391 40.9131 84.2843C40.9131 83.4294 41.246 82.6259 41.8506 82.0213C42.8462 81.0257 44.4038 80.7983 45.6389 81.4693C46.9085 82.1587 48.4978 81.6887 49.188 80.418C49.8779 79.1475 49.407 77.5588 48.1366 76.8689C44.8796 75.1001 40.772 75.6966 38.1492 78.3197C36.556 79.9128 35.6787 82.0313 35.6787 84.284C35.6787 86.537 36.5563 88.6552 38.1492 90.2483L44.7278 96.8269C46.321 98.4201 48.4394 99.2974 50.6921 99.2974C52.9451 99.2974 55.0633 98.4198 56.6565 96.8269C59.273 94.2101 59.8734 90.1101 58.1164 86.8563C57.4304 85.5848 55.8425 85.1103 54.5702 85.7973Z" fill="#FFF0F0"/>
<path id="Vector_6" d="M47.8543 100.129L36.9189 97.0069L34.2683 87.7024C33.8723 86.3121 32.4231 85.5065 31.0344 85.9022C29.6441 86.2982 28.8379 87.7461 29.2342 89.1362L30.9943 95.3154L24.8198 93.5524C23.4311 93.1564 21.9816 93.9609 21.5846 95.3507C21.1878 96.7408 21.9932 98.1892 23.3829 98.586L32.6825 101.241L35.7992 112.183C36.1269 113.333 37.1754 114.084 38.315 114.084C38.5524 114.084 38.7937 114.051 39.0332 113.983C40.4235 113.587 41.2296 112.139 40.8333 110.749L38.6071 102.933L46.4174 105.163C46.6574 105.232 46.8992 105.264 47.1371 105.264C48.2764 105.264 49.3242 104.515 49.6526 103.365C50.0494 101.975 49.2443 100.526 47.8543 100.129Z" fill="#FFF0F0"/>
<path id="Vector_7" d="M67.0842 53.0862C66.0619 52.0644 64.4051 52.0644 63.3825 53.0862C62.3604 54.1082 62.3604 55.7655 63.3825 56.7878L74.4948 67.9001C74.9822 68.3872 75.4088 69.1012 74.8804 70.703C74.7147 71.2045 74.431 71.651 74.013 72.0682C73.5638 72.516 73.0684 72.7945 72.4968 72.9204C71.1277 73.2227 70.5427 72.9644 69.9951 72.4171L58.8745 61.2964C57.8521 60.2746 56.1954 60.2746 55.1728 61.2964C54.1507 62.3185 54.1507 63.9758 55.1728 64.9981L66.2935 76.1188C67.7299 77.5551 69.473 78.2773 71.4938 78.2773C72.1725 78.2773 72.8823 78.1956 73.6225 78.0325C75.1743 77.691 76.5492 76.9314 77.7089 75.7746C78.7076 74.7784 79.4285 73.6239 79.8512 72.3436C80.89 69.1973 80.3024 66.3046 78.1965 64.1987L67.0842 53.0862Z" fill="#FFF0F0"/>
<path id="Vector_8" d="M83.2209 48.5163C80.7313 49.664 78.3079 50.6264 77.5604 50.919C76.8393 50.9981 76.396 50.533 76.2347 50.3178C76.0112 50.0189 75.5624 49.1906 76.2264 47.9539C77.6824 45.2421 81.1378 44.833 81.2424 44.8215C82.6739 44.688 83.7312 43.4238 83.6069 41.9895C83.4821 40.5495 82.2179 39.4832 80.7734 39.6078C80.5164 39.63 74.4408 40.214 71.6144 45.4776C70.1864 48.1371 70.3513 51.1944 72.0452 53.4557C73.6344 55.5776 76.223 56.5591 78.8026 56.0149C78.9379 55.9867 82.2695 54.7191 85.4126 53.2699C86.3014 52.8603 88.4654 52.0471 89.3697 53.3445C90.0494 54.32 89.8976 56.1835 88.4667 57.6141C86.9956 59.0858 84.9928 59.9134 83.0918 59.8153C81.6476 59.7504 80.4203 60.8572 80.3492 62.3009C80.2782 63.7446 81.3908 64.9727 82.8348 65.0436C83.0131 65.0522 83.191 65.0567 83.3701 65.0567C86.5488 65.0567 89.8024 63.6813 92.1684 61.3155C95.2885 58.1951 95.9174 53.5842 93.6642 50.3511C91.9682 47.9185 88.3346 46.1589 83.2209 48.5163Z" fill="#FFF0F0"/>
<path id="Vector_9" d="M86.9692 33.2017C85.9469 32.1799 84.2901 32.1799 83.2675 33.2017C82.2455 34.2237 82.2455 35.881 83.2675 36.9033L98.0731 51.7089C98.5843 52.2198 99.254 52.4755 99.9238 52.4755C100.594 52.4755 101.263 52.2198 101.775 51.7089C102.797 50.6869 102.797 49.0296 101.775 48.0073L86.9692 33.2017Z" fill="#FFF0F0"/>
<path id="Vector_10" d="M101.025 20.1878C100.312 18.9302 98.7146 18.4884 97.4572 19.2008C96.1994 19.9135 95.7578 21.5106 96.4703 22.7682L103.108 34.482L91.2189 27.9243C89.9537 27.2263 88.361 27.6862 87.663 28.9519C86.9647 30.2176 87.4248 31.8097 88.6906 32.5078L107.502 42.8841C107.975 43.1414 108.485 43.2673 108.987 43.2673C109.766 43.2673 110.526 42.965 111.1 42.3839C112.045 41.4276 112.23 39.9784 111.551 38.765L101.025 20.1878Z" fill="#FFF0F0"/>
<path id="Vector_11" d="M34.5176 36.1604C35.963 36.1604 37.1348 34.9886 37.1348 33.5432C37.1348 32.0978 35.963 30.926 34.5176 30.926C33.0721 30.926 31.9004 32.0978 31.9004 33.5432C31.9004 34.9886 33.0721 36.1604 34.5176 36.1604Z" fill="#FFF0F0"/>
</g>
</g>
</g>
<defs>
<clipPath id="clip0_1163_4133">
<rect width="134" height="134" fill="white" transform="translate(0.976562)"/>
</clipPath>
</defs>
</svg>
