<svg width="135" height="134" viewBox="0 0 135 134" fill="none" xmlns="http://www.w3.org/2000/svg">
<g id="fi_1355174" clip-path="url(#clip0_1163_4114)">
<path id="Vector" d="M74.0375 45.9992C60.6872 31.3137 38.2139 30.4239 23.7511 43.5514C23.084 44.2196 22.1942 44.8867 21.526 45.7765L20.6362 47.3345L21.7488 48.6697L21.9715 48.8913C35.0991 63.3542 57.5723 64.2451 72.0351 51.1164C72.7022 50.4493 73.592 49.7822 74.2602 48.8913L75.3727 47.3345L74.0375 45.9992ZM43.3322 47.3345C43.3322 44.8867 45.3345 42.8844 47.7823 42.8844C50.229 42.8844 52.2324 44.8867 52.2324 47.3345C52.2324 49.7822 50.229 51.7846 47.7823 51.7846C45.3345 51.7846 43.3322 49.7822 43.3322 47.3345ZM44.8891 38.8786C40.2162 40.4366 37.7696 45.3321 39.1037 50.0039C39.9946 52.6744 41.9969 54.8994 44.8891 55.7892C37.9912 55.1221 31.316 52.2289 26.1989 47.3345C31.5388 42.4389 37.9912 39.5468 44.8891 38.8786ZM50.6744 55.7892C55.3472 54.2323 57.795 49.3368 56.4598 44.664C55.57 41.9946 53.5666 39.7695 50.6744 38.8786C57.5723 39.5468 64.2475 42.4389 69.3646 47.3345C64.0247 52.2289 57.5723 55.1221 50.6744 55.7892Z" fill="#FFF0F0"/>
<path id="Vector_2" d="M47.7824 9.50854C26.8661 9.50854 9.95654 26.4191 9.95654 47.3344C9.95654 68.2497 26.8661 85.1603 47.7824 85.1603C68.6977 85.1603 85.6083 68.2497 85.6083 47.3344C85.6083 26.4191 68.6977 9.50854 47.7824 9.50854ZM47.7824 80.7102C29.3138 80.7102 14.4066 65.8019 14.4066 47.3344C14.4066 28.8658 29.3138 13.9586 47.7824 13.9586C66.2499 13.9586 81.1582 28.8658 81.1582 47.3344C81.1582 65.8019 66.2499 80.7102 47.7824 80.7102Z" fill="#FFF0F0"/>
<path id="Vector_3" d="M123.434 96.2856V22.8589C123.434 16.6281 118.538 11.7336 112.309 11.7336H87.833V16.1837H112.309C116.091 16.1837 118.984 19.0759 118.984 22.8589V96.2856H123.434Z" fill="#FFF0F0"/>
<path id="Vector_4" d="M12.1816 89.6104V111.861C12.1816 118.091 17.0761 122.986 23.3069 122.986H101.184V118.536H23.3069C19.5239 118.536 16.6317 115.643 16.6317 111.861V89.6104H12.1816Z" fill="#FFF0F0"/>
<path id="Vector_5" d="M94.5083 22.8589H114.534V27.309H94.5083V22.8589Z" fill="#FFF0F0"/>
<path id="Vector_6" d="M98.9585 33.9841H114.534V38.4342H98.9585V33.9841Z" fill="#FFF0F0"/>
<path id="Vector_7" d="M98.9585 45.1094H114.534V49.5595H98.9585V45.1094Z" fill="#FFF0F0"/>
<path id="Vector_8" d="M98.9585 56.2346H114.534V60.6847H98.9585V56.2346Z" fill="#FFF0F0"/>
<path id="Vector_9" d="M98.9585 67.3599H114.534V71.81H98.9585V67.3599Z" fill="#FFF0F0"/>
<path id="Vector_10" d="M101.184 78.4851H114.534V82.9352H101.184V78.4851Z" fill="#FFF0F0"/>
<path id="Vector_11" d="M21.0815 98.5107H81.1579V102.961H21.0815V98.5107Z" fill="#FFF0F0"/>
<path id="Vector_12" d="M21.0815 107.411H90.0581V111.861H21.0815V107.411Z" fill="#FFF0F0"/>
<path id="Vector_13" d="M32.207 65.135H63.3577V69.5851H32.207V65.135Z" fill="#FFF0F0"/>
<path id="Vector_14" d="M32.207 25.084H63.3577V29.5341H32.207V25.084Z" fill="#FFF0F0"/>
<path id="Vector_15" d="M108.526 93.838C107.19 92.5027 105.633 91.8356 103.853 91.8356H102.296L86.2751 73.8125C100.961 52.4518 95.8424 23.3034 74.4828 8.3962C53.1221 -6.51208 23.7509 -0.949448 9.06539 20.1885C-5.61907 41.3265 -0.501891 70.6976 20.8588 85.6048C37.7694 97.3982 60.4643 96.7301 76.7078 83.8252L92.2832 101.403V103.184C92.2832 104.963 92.9502 106.743 94.2855 107.855L117.426 130.997C121.43 135.001 127.661 135.001 131.666 130.997C135.672 126.991 135.672 120.761 131.666 116.756L108.526 93.838ZM5.50618 47.3346C5.50618 23.9716 24.4191 5.05862 47.7822 5.05862C71.1452 5.05862 90.0581 23.9716 90.0581 47.3346C90.0581 70.6976 71.1452 89.6106 47.7822 89.6106C24.4191 89.6106 5.50618 70.6976 5.50618 47.3346ZM80.0454 81.1547C81.1579 80.0422 82.4921 78.708 83.383 77.5955L98.0674 94.0607L94.5082 97.3982L80.0454 81.1547ZM124.546 129.661C122.988 129.661 121.653 128.993 120.541 128.104L97.4004 104.963C96.9549 104.518 96.7333 104.073 96.7333 103.405V101.626L102.073 96.2857H103.853C104.521 96.2857 104.965 96.5084 105.411 96.9528L128.551 120.093C130.776 122.318 130.776 125.878 128.551 128.104C127.439 128.993 125.881 129.661 124.546 129.661Z" fill="#FFF0F0"/>
</g>
<defs>
<clipPath id="clip0_1163_4114">
<rect width="134" height="134" fill="white" transform="translate(0.488281)"/>
</clipPath>
</defs>
</svg>
