<svg width="42" height="43" viewBox="0 0 42 43" fill="none" xmlns="http://www.w3.org/2000/svg">
<g id="computer 1" clip-path="url(#clip0_1590_5400)">
<g id="g3129">
<g id="g3131">
<g id="Clip path group">
<mask id="mask0_1590_5400" style="mask-type:luminance" maskUnits="userSpaceOnUse" x="0" y="0" width="42" height="43">
<g id="clipPath3137">
<path id="path3135" d="M0 0.666752H42V42.6667H0V0.666752Z" fill="white"/>
</g>
</mask>
<g mask="url(#mask0_1590_5400)">
<g id="g3133">
<g id="g3139">
<path id="path3141" d="M12.2169 41.8462H27.3106V40.7007C27.3106 39.5212 26.3544 38.5649 25.1749 38.5649H14.3527C13.1731 38.5649 12.2169 39.5212 12.2169 40.7007V41.8462Z" stroke="black" stroke-width="1.64062" stroke-miterlimit="10" stroke-linecap="round" stroke-linejoin="round"/>
</g>
<path id="path3143" d="M17.1387 38.5652H22.3887V34.1355H17.1387V38.5652Z" stroke="black" stroke-width="1.64062" stroke-miterlimit="10" stroke-linecap="round" stroke-linejoin="round"/>
<g id="g3149">
<path id="path3151" d="M38.6998 18.1394V31.6718C38.6998 33.0325 37.5968 34.1355 36.236 34.1355H3.28426C1.92361 34.1355 0.820618 33.0325 0.820618 31.6718V9.03672C0.820618 7.67599 1.92361 6.573 3.28426 6.573H23.4612" stroke="black" stroke-width="1.64062" stroke-miterlimit="10" stroke-linecap="round" stroke-linejoin="round"/>
</g>
<g id="g3153">
<path id="path3155" d="M32.1378 28.9771H0.820618" stroke="black" stroke-width="1.64062" stroke-miterlimit="10" stroke-linecap="round" stroke-linejoin="round"/>
</g>
<g id="g3161">
<path id="path3163" d="M1.23062 25.03H7.90255" stroke="black" stroke-width="1.64062" stroke-miterlimit="10" stroke-linecap="round" stroke-linejoin="round"/>
</g>
<g id="g3169">
<path id="path3171" d="M25.6206 19.5361L23.1307 17.0462L24.4819 15.695C24.482 15.6949 24.482 15.6948 24.482 15.6946C23.9802 14.9086 23.6102 14.0304 23.4023 13.0913H21.4926L21.4925 13.0912V9.56993H21.4926H23.4C23.6071 8.62944 23.9765 7.7499 24.478 6.96257C24.4781 6.96248 24.4781 6.9624 24.478 6.96224L23.1307 5.61496L25.6206 3.12506L26.9656 4.46996C26.9657 4.47005 26.9658 4.47005 26.9659 4.46996C27.7536 3.96621 28.634 3.59494 29.5756 3.3865V1.48682L33.0969 1.4869V3.38428C34.0398 3.59182 34.9216 3.96252 35.7105 4.46611C35.7106 4.46619 35.7107 4.46611 35.7108 4.46603L37.0519 3.12506L39.5417 5.61504L38.2008 6.956C38.2007 6.95609 38.2007 6.95625 38.2007 6.95633C38.7043 7.74523 39.0751 8.62698 39.2825 9.56993H41.1799H41.18V13.0912L41.1799 13.0913H39.2803C39.0719 14.0328 38.7006 14.9133 38.1968 15.7009C38.1968 15.701 38.1968 15.7011 38.1968 15.7012L39.5417 17.0462L37.0519 19.5361M25.6206 19.5361C25.6206 19.5362 25.6206 19.5362 25.6206 19.5361ZM25.6206 19.5361L26.9719 18.1849C26.9719 18.1849 26.9721 18.1849 26.9721 18.1849C27.7582 18.6866 28.6364 19.0566 29.5756 19.2645V21.1743H33.0969V19.2668C34.0374 19.0597 34.9169 18.6903 35.7042 18.1888C35.7043 18.1887 35.7045 18.1888 35.7046 18.1889L37.0519 19.5361M37.0519 19.5361C37.0519 19.5362 37.0519 19.5362 37.0519 19.5361Z" stroke="black" stroke-width="1.64062" stroke-miterlimit="10" stroke-linecap="round" stroke-linejoin="round"/>
</g>
<g id="g3173">
<path id="path3175" d="M35.6017 11.3308C35.6017 8.97496 33.6919 7.06519 31.3361 7.06519C28.9802 7.06519 27.0705 8.97496 27.0705 11.3308C27.0705 13.6867 28.9802 15.5964 31.3361 15.5964C33.6919 15.5964 35.6017 13.6867 35.6017 11.3308Z" stroke="black" stroke-width="1.64062" stroke-miterlimit="10" stroke-linecap="round" stroke-linejoin="round"/>
</g>
<g id="g3181">
<path id="path3183" d="M17.858 16.8453C17.858 16.5348 17.8259 16.2318 17.7651 15.9394L19.0362 15.2055L17.6512 12.8065L16.3792 13.5409C15.9295 13.1387 15.3973 12.827 14.8109 12.6342V11.1667H12.0409V12.6342C11.4545 12.827 10.9222 13.1387 10.4725 13.5409L9.20057 12.8065L7.81555 15.2055L9.08663 15.9394C9.02584 16.2318 8.99377 16.5348 8.99377 16.8453C8.99377 17.1558 9.02584 17.4588 9.08663 17.7513L7.81555 18.4851L9.20057 20.8841L10.4725 20.1497C10.9222 20.5519 11.4545 20.8636 12.0409 21.0564V22.5239H14.8109V21.0564C15.3973 20.8636 15.9295 20.5519 16.3792 20.1497L17.6512 20.8841L19.0362 18.4851L17.7651 17.7513C17.8259 17.4588 17.858 17.1558 17.858 16.8453Z" stroke="black" stroke-width="1.64062" stroke-miterlimit="10" stroke-linecap="round" stroke-linejoin="round"/>
</g>
</g>
</g>
</g>
</g>
</g>
</g>
<defs>
<clipPath id="clip0_1590_5400">
<rect width="42" height="42" fill="white" transform="translate(0 0.666748)"/>
</clipPath>
</defs>
</svg>
