<svg width="123" height="31" viewBox="0 0 123 31" fill="none" xmlns="http://www.w3.org/2000/svg">
<g id="_&#208;&#161;&#208;&#187;&#208;&#190;&#208;&#185;_1" opacity="0.8" clip-path="url(#clip0_1195_16223)">
<path id="Vector" d="M33.2374 20.9964C33.5533 25.1342 37.4682 27.3102 40.8924 25.3202C41.5073 24.9651 42.0488 24.1984 42.2688 23.505C42.5452 22.62 42.9571 22.2535 43.8427 22.293C44.3109 22.3156 44.7791 22.2705 45.253 22.2535C47.7972 22.1521 48.0849 22.541 47.2838 24.9876C46.2458 28.167 42.8273 30.3825 38.7149 30.5347C31.7255 30.794 26.9531 25.3597 27.6808 17.9805C28.1885 12.8112 30.8963 9.29916 35.2118 8.19426C41.6878 6.54255 47.4305 10.6521 47.972 17.3322C48.0228 17.9862 48.0341 18.6457 48.0341 19.3053C48.0341 20.8724 47.5489 21.1712 45.9694 21.1035C42.077 20.9401 38.179 20.8837 34.281 20.8048C33.9651 20.7991 33.6492 20.9232 33.243 21.0021L33.2374 20.9964ZM42.5396 16.3401C42.0827 13.7808 39.8544 12.0614 37.4795 12.2643C35.0764 12.4729 33.4517 14.0626 33.4348 16.3401H42.5396Z" fill="#191923"/>
<path id="Vector_2" d="M14.1702 22.7166C14.943 20.7604 15.6143 19.1764 16.201 17.5641C18.119 12.3158 20.0144 7.06756 21.8929 1.80237C22.1862 0.979336 22.6544 0.567818 23.5401 0.584729C24.9786 0.607278 26.4171 0.590367 27.9571 0.590367C27.8894 1.0639 27.9007 1.34576 27.8105 1.58816C24.2735 10.5852 20.697 19.5653 17.1995 28.5793C16.7651 29.7067 16.1558 30.0281 15.022 29.9886C11.0224 29.8589 11.9588 30.541 10.5429 26.8599C7.44028 18.8043 4.26432 10.7712 1.10527 2.73816C0.338079 0.776396 0.428337 0.62419 2.57197 0.612916C5.88332 0.590367 5.90025 0.584729 7.06232 3.71904C9.26801 9.66069 11.4455 15.608 13.6399 21.5496C13.7358 21.809 13.8655 22.0514 14.1702 22.7166Z" fill="#191923"/>
<path id="Vector_3" d="M102.064 19.182C102.081 19.4357 102.346 25.6479 97.3936 28.8893C93.1796 31.6459 87.5272 30.744 84.4923 27.7111C83.0594 26.2849 82.0158 24.3006 81.6548 21.7356C81.1696 18.28 81.4066 14.9822 83.4035 12.0058C85.8179 8.4092 89.3888 7.48469 93.4166 8.02023C95.3458 8.27391 96.9705 8.95601 98.2623 10.0384C99.9095 11.4195 100.558 13.0768 101.077 14.4016C101.844 16.3408 102.025 18.0658 102.064 19.182ZM95.9889 15.1175C95.5207 14.0577 95.0638 13.5955 94.8043 13.37C93.992 12.6653 92.9145 12.3158 91.6735 12.2933C89.716 12.2482 88.097 13.2798 87.4313 15.1739C86.4836 17.8629 86.4215 20.6082 87.5159 23.2859C88.2662 25.118 89.7273 26.0594 91.7073 26.0425C92.8186 26.0312 93.7776 25.7268 94.5222 25.1349C94.8889 24.8418 95.3571 24.357 95.8535 23.2239C96.0566 22.7616 97.67 18.9227 95.9889 15.1232V15.1175Z" fill="#191923"/>
<path id="Vector_4" d="M56.3029 8.88693C57.7131 8.60507 59.3829 8.03571 61.0696 7.99061C65.34 7.86659 68.0477 10.2962 68.2452 14.5862C68.4652 19.3609 68.3411 24.1526 68.3918 28.9386C68.4031 29.756 68.0308 29.9984 67.2805 29.9702C66.3441 29.9364 65.3964 29.9195 64.4656 29.9871C63.4558 30.0604 63.185 29.6264 63.1907 28.6737C63.2358 24.4514 63.2358 20.2291 63.2245 16.0068C63.2189 12.6695 61.0696 11.3842 58.0742 12.9739C56.5172 13.8026 55.4849 14.9075 55.5695 16.9538C55.7275 20.8435 55.5977 24.7389 55.6541 28.6342C55.671 29.6884 55.3269 29.9871 54.2833 29.9928C50.4756 30.0041 50.4812 30.0379 50.4812 26.306C50.4812 21.007 50.4586 15.7024 50.4417 10.4034C50.4361 8.27811 50.4248 8.27811 52.5007 8.24992C52.8787 8.24992 53.2623 8.18228 53.6233 8.24992C54.4751 8.4134 55.31 8.64453 56.2972 8.88693H56.3029Z" fill="#191923"/>
<path id="Vector_5" d="M72.5784 19.1079C72.5784 17.3717 72.5559 15.6354 72.5897 13.8991C72.6066 13.0817 72.46 12.4842 71.4671 12.5518C70.2543 12.6307 69.9215 11.9261 69.9553 10.8776C69.9666 10.5055 69.9553 10.1278 69.944 9.75011C69.9158 8.77487 70.2881 8.18296 71.3543 8.3408C72.3471 8.48737 72.5954 8.02511 72.5164 7.14007C72.4543 6.44105 72.4769 5.73639 72.46 5.03174C72.46 4.79497 72.4036 4.5413 72.4712 4.33272C73.2272 2.16238 75.0323 3.61679 76.3129 3.27292C77.1647 3.04743 77.7514 3.50404 77.6893 4.51875C77.6385 5.3587 77.6667 6.20992 77.6103 7.04987C77.5539 7.92364 77.8303 8.32952 78.7893 8.33516C79.4776 8.33516 80.713 8.53247 80.7524 8.79178C80.9386 9.96433 80.8483 11.1989 80.6791 12.3883C80.6509 12.58 79.6863 12.7717 79.1729 12.7209C77.9657 12.6082 77.5088 12.9803 77.5483 14.2712C77.6442 17.3209 77.5821 20.3707 77.6047 23.4204C77.6216 25.6246 77.8755 25.929 80.0529 25.7317C81.2884 25.619 81.4689 26.1263 81.4632 27.1579C81.4519 30.1626 81.3673 30.2584 78.3268 30.2866C76.3241 30.3035 74.3215 30.0837 73.3343 28.1219C72.7533 26.9606 72.6179 25.5175 72.5164 24.1871C72.381 22.5072 72.4825 20.8104 72.4825 19.1192C72.5107 19.1192 72.5446 19.1192 72.5728 19.1192L72.5784 19.1079Z" fill="#191923"/>
<path id="Vector_6" d="M104.3 29.9821C104.3 29.0181 104.3 28.2796 104.3 27.5355C104.289 21.8137 104.283 16.0975 104.272 10.3757C104.272 8.41396 104.272 8.36886 106.167 8.34631C107.425 8.3294 108.683 8.51543 109.941 8.50415C110.674 8.49852 111.402 8.17719 112.135 8.16592C113.461 8.14337 114.792 8.25048 116.118 8.30121C116.231 9.77253 116.372 11.2382 116.406 12.7095C116.406 12.8505 115.712 13.1549 115.357 13.1323C113.766 13.0365 112.169 12.7434 110.77 13.8595C109.913 14.5416 109.45 15.3365 109.467 16.4978C109.518 20.5284 109.462 24.559 109.507 28.5897C109.518 29.5931 109.275 30.061 108.175 29.9877C106.968 29.9088 105.75 29.9708 104.3 29.9708V29.9821Z" fill="#191923"/>
<path id="Vector_7" d="M117.088 19.2211C117.088 16.0811 117.116 12.9355 117.071 9.79559C117.054 8.69069 117.364 8.17771 118.583 8.21153C123.135 8.34682 122.436 7.50687 122.486 12.0561C122.543 17.5017 122.447 22.9473 122.481 28.3872C122.486 29.5936 122.114 30.0108 120.867 30.0164C117.308 30.0333 117.246 30.0897 117.088 26.5382C116.981 24.1029 117.065 21.662 117.065 19.2211C117.071 19.2211 117.082 19.2211 117.088 19.2211Z" fill="#191923"/>
<path id="Vector_8" d="M122.469 3.60002C122.362 6.40173 123.09 6.48628 119.547 6.4581C119.124 6.4581 118.701 6.44682 118.278 6.44682C117.483 6.44119 117.059 6.0804 117.082 5.24609C117.11 4.07354 117.014 2.88972 117.167 1.73409C117.223 1.31693 117.793 0.888501 118.227 0.62355C118.504 0.454433 118.961 0.572815 119.333 0.555904C121.446 0.469466 122.492 1.48229 122.469 3.59438V3.60002Z" fill="#191923"/>
</g>
<defs>
<clipPath id="clip0_1195_16223">
<rect width="121.837" height="30.0296" fill="white" transform="translate(0.665924 0.516113)"/>
</clipPath>
</defs>
</svg>
