<svg width="58" height="60" viewBox="0 0 58 60" fill="none" xmlns="http://www.w3.org/2000/svg">
<g id="fi_5110900" clip-path="url(#clip0_1163_4206)">
<g id="Group">
<g id="Group_2">
<path id="Vector" d="M55.1919 31.1118C54.733 30.3846 54.733 29.4449 55.1919 28.7178L57.0723 25.738C57.7424 24.676 57.9425 23.368 57.621 22.1494C57.2996 20.931 56.4826 19.8999 55.3795 19.3208L54.4772 18.8471L55.9856 17.3147C58.3643 14.8983 58.3643 10.9664 55.9856 8.54991L50.125 2.59629C47.7463 0.180014 43.876 0.180128 41.4972 2.59629L39.9889 4.12854L39.5225 3.21208C38.9523 2.09146 37.9374 1.26149 36.738 0.934986C35.5386 0.608484 34.2511 0.811623 33.2054 1.49239L30.2724 3.40258C29.5565 3.86884 28.6314 3.86872 27.9158 3.40258L24.9828 1.49251C23.9374 0.81185 22.6499 0.60837 21.4503 0.935099C20.2508 1.2616 19.2358 2.09157 18.6658 3.21219L17.0659 6.35624C16.6753 7.1235 15.8731 7.59282 15.025 7.55333L11.5445 7.38866C10.3043 7.33016 9.0891 7.80814 8.21094 8.70002C7.33288 9.59212 6.86238 10.8263 6.92007 12.0866L7.08195 15.6222C7.12149 16.485 6.65894 17.2987 5.90367 17.6955L2.80864 19.3207C1.70552 19.9 0.888524 20.931 0.567124 22.1494C0.245724 23.368 0.445689 24.676 1.11582 25.7381L2.99628 28.7178C3.45513 29.445 3.45513 30.3846 2.99617 31.1118L1.11594 34.0915C0.445801 35.1535 0.245724 36.4614 0.567236 37.68C0.888636 38.8984 1.70564 39.9296 2.80875 40.5086L3.711 40.9824L2.20258 42.5147C-0.176051 44.9311 -0.176051 48.863 2.20258 51.2795L8.06317 57.2332C9.25255 58.4413 10.8147 59.0455 12.377 59.0455C13.9393 59.0455 15.5016 58.4413 16.691 57.2332L18.1993 55.7009L18.6657 56.6174C19.2359 57.738 20.2508 58.568 21.4503 58.8945C21.8259 58.9967 22.2098 59.0471 22.5924 59.0471C23.432 59.047 24.2646 58.8047 24.9828 58.337L27.9158 56.4269C28.6317 55.9605 29.5568 55.9605 30.2724 56.4269L33.2057 58.337C34.2511 59.0179 35.5386 59.2212 36.7381 58.8945C37.9375 58.568 38.9525 57.738 39.5225 56.6175L41.1227 53.4732C41.513 52.7059 42.3158 52.2357 43.1633 52.2762L46.6437 52.4407C47.885 52.4997 49.0992 52.0213 49.9773 51.1293C50.8553 50.2373 51.3258 49.003 51.2681 47.7429L51.1063 44.2072C51.0667 43.3445 51.5293 42.5308 52.2845 42.134L55.3796 40.5087C56.4827 39.9295 57.2997 38.8984 57.6211 37.68C57.9425 36.4614 57.7425 35.1535 57.0724 34.0915L55.1919 31.1118ZM3.83747 38.4868C3.28508 38.1967 2.89221 37.7011 2.73134 37.0909C2.57025 36.4807 2.66659 35.8516 3.00221 35.3198L4.88244 32.3402C5.81248 30.8667 5.81248 28.9627 4.88256 27.4893L3.00221 24.5097C2.66659 23.9778 2.57036 23.3488 2.73134 22.7387C2.89232 22.1285 3.28508 21.6327 3.83747 21.3425L6.93262 19.7172C8.46288 18.9135 9.39997 17.2645 9.3201 15.5164L9.15811 11.9807C9.12921 11.3498 9.3555 10.7562 9.79531 10.3095C10.235 9.86286 10.82 9.63218 11.4404 9.66222L14.9208 9.82667C16.644 9.90997 18.2649 8.95584 19.056 7.40118L20.656 4.25702C20.9416 3.69585 21.4296 3.29675 22.0302 3.13332C22.6307 2.96968 23.2499 3.06743 23.7736 3.4085L26.7068 5.31869C28.157 6.26314 30.0315 6.26314 31.4817 5.31869L34.4149 3.4085C34.9385 3.06743 35.5573 2.96956 36.1583 3.13332C36.7589 3.29686 37.2468 3.69585 37.5325 4.25702L38.3265 5.81738L35.106 9.08899C29.4149 7.39754 23.2796 8.1755 18.1861 11.2531C17.6543 11.5743 17.4796 12.2728 17.7959 12.8129C18.0054 13.1708 18.3777 13.3695 18.7598 13.3695C18.9545 13.3695 19.1518 13.3178 19.3313 13.2094C23.5309 10.6722 28.5223 9.88323 33.266 10.9583L10.4342 34.1526C9.37656 29.338 10.1499 24.2737 12.6434 20.008C12.9592 19.4676 12.7841 18.7693 12.2521 18.4484C11.7202 18.1277 11.0328 18.3055 10.7169 18.8459C7.69226 24.0201 6.93049 30.245 8.59429 36.0216L5.37345 39.2935L3.83747 38.4868ZM15.1066 55.6237C13.6015 57.1527 11.1526 57.1529 9.64755 55.6237L3.78684 49.6701C2.28167 48.1411 2.28167 45.6533 3.78684 44.1244L43.0816 4.20581C43.8341 3.44128 44.8227 3.05901 45.8112 3.05901C46.7996 3.05901 47.7881 3.44128 48.5407 4.20581L54.4013 10.1594C55.9064 11.6885 55.9064 14.1762 54.4013 15.7052L15.1066 55.6237ZM47.7231 34.2972C46.9204 37.8347 45.1536 41.0684 42.6135 43.6488C40.0738 46.2288 36.8912 48.0235 33.4095 48.8391C30.6098 49.495 27.7092 49.501 24.923 48.8705L47.7538 25.6773C48.3743 28.5074 48.3684 31.4534 47.7231 34.2972ZM55.4569 37.091C55.2959 37.7011 54.9031 38.1968 54.3507 38.487L51.2556 40.1124C49.7253 40.916 48.7882 42.565 48.8681 44.3132L49.03 47.8488C49.0589 48.4799 48.8326 49.0733 48.3928 49.5201C47.9531 49.9668 47.3674 50.197 46.7477 50.1673L43.2673 50.0029C41.5465 49.923 39.9231 50.8736 39.1322 52.4283L37.5321 55.5725C37.2465 56.1337 36.7586 56.5328 36.1578 56.6962C35.5573 56.8599 34.938 56.762 34.4145 56.4211L31.4816 54.5106C30.0314 53.5662 28.1569 53.5662 26.7067 54.5106L23.7735 56.4209C23.25 56.7618 22.6307 56.8595 22.0301 56.696C21.4296 56.5325 20.9415 56.1335 20.6558 55.5722L19.8618 54.012L23.0831 50.7395C25.041 51.3212 27.0647 51.6143 29.0925 51.6143C30.7074 51.6143 32.3249 51.429 33.9129 51.057C37.8042 50.1455 41.3606 48.1403 44.1978 45.2583C47.0353 42.3758 49.0093 38.7623 49.9064 34.8085C50.732 31.17 50.6213 27.3812 49.593 23.809L52.8148 20.5361L54.3507 21.3429C54.9031 21.633 55.296 22.1286 55.4569 22.7388C55.618 23.349 55.5216 23.9781 55.186 24.5098L53.3057 27.4896C52.376 28.9629 52.376 30.867 53.3057 32.3404L55.186 35.32C55.5216 35.8517 55.618 36.4807 55.4569 37.091Z" fill="url(#paint0_linear_1163_4206)"/>
<path id="Vector_2" d="M28.067 35.7748C27.8058 36.0444 27.53 36.3278 27.2857 36.5779L21.7416 30.9457C21.3041 30.5016 20.595 30.5014 20.1572 30.9457C19.7197 31.3901 19.7197 32.1107 20.1572 32.5552L26.4889 38.9875C26.705 39.207 26.9917 39.3208 27.2813 39.3208C27.4814 39.3208 27.6828 39.2664 27.863 39.1551C28.0094 39.0648 28.044 39.0434 29.6637 37.3716C30.0976 36.9235 30.092 36.2031 29.6511 35.7622C29.2102 35.3211 28.5008 35.327 28.067 35.7748Z" fill="url(#paint1_linear_1163_4206)"/>
<path id="Vector_3" d="M13.1443 50.9459L12.0521 52.0555L10.468 50.446L11.4213 49.4776C11.8587 49.0332 11.8587 48.3126 11.4213 47.8681C10.9837 47.4238 10.2746 47.4238 9.83692 47.8681L8.88358 48.8365L7.29932 47.2271L8.39157 46.1175C8.82903 45.6731 8.82903 44.9525 8.39157 44.508C7.954 44.0637 7.24488 44.0637 6.8072 44.508L4.92282 46.4223C4.48536 46.8667 4.48536 47.5873 4.92282 48.0318L11.2599 54.4695C11.4786 54.6916 11.7653 54.8028 12.052 54.8028C12.3387 54.8028 12.6253 54.6916 12.8441 54.4695L14.7285 52.5552C15.166 52.1108 15.166 51.3902 14.7285 50.9456C14.291 50.5015 13.5819 50.5015 13.1443 50.9459Z" fill="url(#paint2_linear_1163_4206)"/>
<path id="Vector_4" d="M51.6816 11.7974L50.5893 12.907L49.0051 11.2976L49.9584 10.3291C50.3959 9.88475 50.3959 9.16414 49.9584 8.71963C49.5208 8.27534 48.8117 8.27534 48.374 8.71963L47.4207 9.68809L45.8364 8.07869L46.9287 6.9691C47.3661 6.5247 47.3661 5.8041 46.9287 5.35958C46.4911 4.9153 45.782 4.9153 45.3443 5.35958L43.4599 7.27387C43.0225 7.71827 43.0225 8.43887 43.4599 8.88339L49.797 15.321C50.0158 15.5432 50.3024 15.6543 50.5891 15.6543C50.8758 15.6543 51.1624 15.5432 51.3812 15.321L53.2656 13.4067C53.7031 12.9623 53.7031 12.2417 53.2656 11.7972C52.8283 11.353 52.1191 11.353 51.6816 11.7974Z" fill="url(#paint3_linear_1163_4206)"/>
<path id="Vector_5" d="M23.3564 38.0879C22.812 38.3865 22.6089 39.0769 22.9029 39.6299C23.188 40.1664 23.0902 40.8425 22.6651 41.2745C22.4063 41.5373 22.0624 41.682 21.6965 41.682C21.3306 41.682 20.9867 41.5373 20.7279 41.2744L17.9121 38.414C17.6534 38.1511 17.5109 37.8017 17.5109 37.43C17.5109 37.0583 17.6534 36.7089 17.9122 36.4461C18.3383 36.0132 19.005 35.9143 19.5336 36.2061C20.0771 36.5058 20.7573 36.3014 21.0527 35.7489C21.348 35.1965 21.1465 34.5057 20.6027 34.2057C19.2086 33.4366 17.4505 33.696 16.3279 34.8365C15.646 35.5293 15.2705 36.4504 15.2705 37.4299C15.2705 38.4095 15.6461 39.3305 16.3279 40.0232L19.1437 42.8837C19.8256 43.5764 20.7323 43.9579 21.6965 43.9579C22.6608 43.9579 23.5674 43.5763 24.2493 42.8837C25.3692 41.7459 25.6262 39.9632 24.8742 38.5484C24.5806 37.9955 23.9009 37.7892 23.3564 38.0879Z" fill="url(#paint4_linear_1163_4206)"/>
<path id="Vector_6" d="M20.4815 44.3196L15.801 42.9621L14.6665 38.9164C14.497 38.3119 13.8767 37.9616 13.2823 38.1336C12.6872 38.3058 12.3422 38.9354 12.5118 39.5398L13.2652 42.2266L10.6224 41.46C10.028 41.2878 9.40759 41.6376 9.23765 42.2419C9.06782 42.8463 9.41252 43.4761 10.0074 43.6487L13.9877 44.8032L15.3217 49.5606C15.462 50.0609 15.9108 50.3873 16.3985 50.3873C16.5001 50.3873 16.6034 50.3731 16.7059 50.3434C17.301 50.1712 17.646 49.5416 17.4764 48.9372L16.5235 45.5388L19.8665 46.5084C19.9692 46.5382 20.0727 46.5525 20.1746 46.5525C20.6622 46.5525 21.1106 46.2265 21.2512 45.7265C21.4211 45.1221 21.0765 44.4923 20.4815 44.3196Z" fill="url(#paint5_linear_1163_4206)"/>
<path id="Vector_7" d="M28.7115 23.865C28.2739 23.4207 27.5648 23.4207 27.1271 23.865C26.6897 24.3094 26.6897 25.03 27.1271 25.4745L31.8834 30.3062C32.092 30.518 32.2746 30.8285 32.0484 31.5249C31.9775 31.743 31.8561 31.9371 31.6772 32.1185C31.4849 32.3133 31.2729 32.4343 31.0282 32.4891C30.4422 32.6205 30.1918 32.5082 29.9575 32.2702L25.1976 27.4349C24.7601 26.9906 24.0509 26.9906 23.6132 27.4349C23.1758 27.8793 23.1758 28.5999 23.6132 29.0444L28.3731 33.8798C28.9879 34.5043 29.734 34.8183 30.5989 34.8183C30.8894 34.8183 31.1932 34.7828 31.51 34.7119C32.1742 34.5634 32.7627 34.2331 33.2591 33.7301C33.6866 33.297 33.9951 32.795 34.176 32.2383C34.6206 30.8702 34.3691 29.6125 33.4678 28.6968L28.7115 23.865Z" fill="url(#paint6_linear_1163_4206)"/>
<path id="Vector_8" d="M35.6185 21.8778C34.5529 22.3769 33.5157 22.7953 33.1957 22.9225C32.8871 22.9569 32.6973 22.7547 32.6283 22.6611C32.5327 22.5312 32.3405 22.171 32.6248 21.6333C33.2479 20.4541 34.7269 20.2763 34.7717 20.2713C35.3844 20.2132 35.837 19.6636 35.7837 19.0399C35.7303 18.4138 35.1892 17.9501 34.571 18.0043C34.461 18.014 31.8605 18.2679 30.6508 20.5566C30.0395 21.7129 30.1101 23.0423 30.8351 24.0255C31.5154 24.9481 32.6233 25.3749 33.7274 25.1383C33.7853 25.126 35.2113 24.5749 36.5566 23.9447C36.937 23.7666 37.8633 23.413 38.2503 23.9772C38.5412 24.4013 38.4763 25.2116 37.8638 25.8336C37.2341 26.4735 36.3769 26.8334 35.5633 26.7907C34.9451 26.7625 34.4198 27.2438 34.3894 27.8715C34.359 28.4992 34.8352 29.0332 35.4533 29.0641C35.5296 29.0678 35.6057 29.0697 35.6824 29.0697C37.0429 29.0697 38.4355 28.4717 39.4482 27.443C40.7837 26.0863 41.0529 24.0814 40.0884 22.6756C39.3625 21.6179 37.8073 20.8528 35.6185 21.8778Z" fill="url(#paint7_linear_1163_4206)"/>
<path id="Vector_9" d="M37.223 15.219C36.7854 14.7747 36.0763 14.7747 35.6386 15.219C35.2012 15.6634 35.2012 16.384 35.6386 16.8285L41.9757 23.2661C42.1945 23.4883 42.4811 23.5994 42.7678 23.5994C43.0545 23.5994 43.3412 23.4883 43.5599 23.2661C43.9974 22.8217 43.9974 22.1011 43.5599 21.6566L37.223 15.219Z" fill="url(#paint8_linear_1163_4206)"/>
<path id="Vector_10" d="M43.2394 9.56036C42.9343 9.01353 42.2507 8.82143 41.7125 9.1312C41.1741 9.44109 40.9851 10.1355 41.2901 10.6823L44.131 15.7756L39.0424 12.9243C38.5009 12.6208 37.8192 12.8207 37.5204 13.3711C37.2216 13.9214 37.4185 14.6137 37.9602 14.9172L46.0119 19.4289C46.2145 19.5408 46.4327 19.5955 46.6476 19.5955C46.9808 19.5955 47.3061 19.4641 47.5518 19.2114C47.9565 18.7956 48.0353 18.1655 47.745 17.6379L43.2394 9.56036Z" fill="url(#paint9_linear_1163_4206)"/>
<path id="Vector_11" d="M14.7735 16.5055C15.3922 16.5055 15.8937 15.996 15.8937 15.3675C15.8937 14.739 15.3922 14.2295 14.7735 14.2295C14.1549 14.2295 13.6533 14.739 13.6533 15.3675C13.6533 15.996 14.1549 16.5055 14.7735 16.5055Z" fill="url(#paint10_linear_1163_4206)"/>
</g>
</g>
</g>
<defs>
<linearGradient id="paint0_linear_1163_4206" x1="29.0941" y1="0.782471" x2="29.0941" y2="59.0471" gradientUnits="userSpaceOnUse">
<stop stop-color="#8D1038"/>
<stop offset="1" stop-color="#191923"/>
</linearGradient>
<linearGradient id="paint1_linear_1163_4206" x1="24.9073" y1="30.6125" x2="24.9073" y2="39.3208" gradientUnits="userSpaceOnUse">
<stop stop-color="#8D1038"/>
<stop offset="1" stop-color="#191923"/>
</linearGradient>
<linearGradient id="paint2_linear_1163_4206" x1="9.82566" y1="44.1748" x2="9.82566" y2="54.8028" gradientUnits="userSpaceOnUse">
<stop stop-color="#8D1038"/>
<stop offset="1" stop-color="#191923"/>
</linearGradient>
<linearGradient id="paint3_linear_1163_4206" x1="48.3628" y1="5.02637" x2="48.3628" y2="15.6543" gradientUnits="userSpaceOnUse">
<stop stop-color="#8D1038"/>
<stop offset="1" stop-color="#191923"/>
</linearGradient>
<linearGradient id="paint4_linear_1163_4206" x1="20.2865" y1="33.7664" x2="20.2865" y2="43.9579" gradientUnits="userSpaceOnUse">
<stop stop-color="#8D1038"/>
<stop offset="1" stop-color="#191923"/>
</linearGradient>
<linearGradient id="paint5_linear_1163_4206" x1="15.2444" y1="38.0898" x2="15.2444" y2="50.3873" gradientUnits="userSpaceOnUse">
<stop stop-color="#8D1038"/>
<stop offset="1" stop-color="#191923"/>
</linearGradient>
<linearGradient id="paint6_linear_1163_4206" x1="28.8378" y1="23.5317" x2="28.8378" y2="34.8183" gradientUnits="userSpaceOnUse">
<stop stop-color="#8D1038"/>
<stop offset="1" stop-color="#191923"/>
</linearGradient>
<linearGradient id="paint7_linear_1163_4206" x1="35.4508" y1="18" x2="35.4508" y2="29.0697" gradientUnits="userSpaceOnUse">
<stop stop-color="#8D1038"/>
<stop offset="1" stop-color="#191923"/>
</linearGradient>
<linearGradient id="paint8_linear_1163_4206" x1="39.5993" y1="14.8857" x2="39.5993" y2="23.5994" gradientUnits="userSpaceOnUse">
<stop stop-color="#8D1038"/>
<stop offset="1" stop-color="#191923"/>
</linearGradient>
<linearGradient id="paint9_linear_1163_4206" x1="42.6499" y1="8.98315" x2="42.6499" y2="19.5955" gradientUnits="userSpaceOnUse">
<stop stop-color="#8D1038"/>
<stop offset="1" stop-color="#191923"/>
</linearGradient>
<linearGradient id="paint10_linear_1163_4206" x1="14.7735" y1="14.2295" x2="14.7735" y2="16.5055" gradientUnits="userSpaceOnUse">
<stop stop-color="#8D1038"/>
<stop offset="1" stop-color="#191923"/>
</linearGradient>
<clipPath id="clip0_1163_4206">
<rect width="57.3542" height="58.2646" fill="white" transform="translate(0.418945 0.782471)"/>
</clipPath>
</defs>
</svg>
