<svg width="122" height="100" viewBox="0 0 122 100" fill="none" xmlns="http://www.w3.org/2000/svg">
<g id="Frame 5464">
<g id="Group 16">
<g id="FirsTCall">
<path d="M9.60156 85.1972V69.8948H19.6289V71.4393H11.55V76.7857H18.7497V78.3064H11.55V85.1972H9.60156Z" fill="#191923"/>
<path d="M22.016 85.1972V69.8948H23.9644V85.1972H22.016Z" fill="#191923"/>
<path d="M27.2834 85.1972V69.8948H34.0079C35.6553 69.8948 36.8513 70.3225 37.5959 71.178C38.3562 72.0334 38.7364 73.1898 38.7364 74.6471C38.7364 75.7718 38.4592 76.7065 37.9048 77.451C37.3662 78.1955 36.5583 78.6945 35.4811 78.9479C35.7979 79.138 36.0355 79.3598 36.1939 79.6133C36.3682 79.8509 36.5424 80.1756 36.7167 80.5875L38.7127 85.1972H36.7167L34.7683 80.7538C34.5623 80.2786 34.3089 79.938 34.0079 79.7321C33.7228 79.5261 33.2079 79.4232 32.4634 79.4232H29.2318V85.1972H27.2834ZM29.2318 77.9024H33.4614C34.491 77.9024 35.2989 77.649 35.885 77.1421C36.487 76.6193 36.788 75.7877 36.788 74.6471C36.788 72.5086 35.7662 71.4393 33.7228 71.4393H29.2318V77.9024Z" fill="#191923"/>
<path d="M46.0683 85.4348C44.1674 85.4348 42.6308 85.1972 41.4586 84.722V82.9874C42.1239 83.2408 42.8288 83.4389 43.5733 83.5814C44.3337 83.7082 45.1099 83.7715 45.902 83.7715C47.2643 83.7715 48.286 83.5893 48.9672 83.225C49.6484 82.8448 49.9889 82.1716 49.9889 81.2053C49.9889 80.6033 49.8464 80.1281 49.5612 79.7796C49.2919 79.4153 48.8405 79.1143 48.2068 78.8767C47.5732 78.6232 46.7257 78.3698 45.6644 78.1163C43.9852 77.7044 42.8051 77.1738 42.1239 76.5243C41.4427 75.859 41.1022 74.9719 41.1022 73.863C41.1022 72.564 41.5695 71.5423 42.5041 70.7978C43.4387 70.0374 44.8644 69.6572 46.7811 69.6572C47.6682 69.6572 48.492 69.7206 49.2523 69.8473C50.0127 69.974 50.5988 70.1087 51.0107 70.2513V71.9621C50.4404 71.7562 49.8226 71.5977 49.1573 71.4869C48.492 71.376 47.8029 71.3205 47.09 71.3205C45.7911 71.3205 44.7931 71.5106 44.0961 71.8908C43.3991 72.271 43.0506 72.9284 43.0506 73.863C43.0506 74.3858 43.1694 74.8135 43.407 75.1461C43.6605 75.4629 44.0803 75.7402 44.6664 75.9778C45.2525 76.1995 46.0683 76.4372 47.1138 76.6906C48.3652 76.9916 49.3395 77.3559 50.0365 77.7836C50.7335 78.1955 51.2245 78.6866 51.5097 79.2568C51.7948 79.8271 51.9374 80.4766 51.9374 81.2053C51.9374 82.5518 51.4463 83.5973 50.4642 84.3418C49.482 85.0705 48.0167 85.4348 46.0683 85.4348Z" fill="#191923"/>
<path d="M57.9639 85.1972V71.4393H52.8789V69.8948H64.9972V71.4393H59.9123V85.1972H57.9639Z" fill="#191923"/>
<path d="M73.2965 85.4348C71.649 85.4348 70.2788 85.1259 69.1858 84.5081C68.1086 83.8745 67.3007 82.9953 66.7621 81.8706C66.2235 80.7301 65.9542 79.3994 65.9542 77.8787C65.9542 76.2154 66.2077 74.7659 66.7146 73.5303C67.2215 72.2947 68.0135 71.3443 69.0907 70.679C70.1679 69.9978 71.5619 69.6572 73.2727 69.6572C74.1598 69.6572 74.9598 69.7206 75.6726 69.8473C76.4013 69.974 77.0825 70.1483 77.7161 70.3701V72.0809C77.0825 71.8433 76.4092 71.6611 75.6964 71.5344C74.9835 71.3918 74.2311 71.3205 73.4391 71.3205C72.0609 71.3205 70.9679 71.5819 70.16 72.1047C69.3521 72.6274 68.7739 73.3799 68.4254 74.362C68.0769 75.3441 67.9026 76.5164 67.9026 77.8787C67.9026 79.7638 68.3462 81.2211 69.2333 82.2508C70.1362 83.2646 71.554 83.7715 73.4866 83.7715C74.1994 83.7715 74.9202 83.7161 75.6489 83.6052C76.3934 83.4943 77.0825 83.3201 77.7161 83.0824V84.817C77.0983 85.0071 76.4251 85.1576 75.6964 85.2685C74.9835 85.3794 74.1836 85.4348 73.2965 85.4348Z" fill="#191923"/>
<path d="M79.1344 85.1972L84.9559 69.8948H87.237L93.0348 85.1972H91.0388L89.4231 80.9914H82.7699L81.1541 85.1972H79.1344ZM83.1025 79.4469H89.0667L86.0727 71.5819L83.1025 79.4469Z" fill="#191923"/>
<path d="M95.876 85.1972V69.8948H97.8244V83.6765H105.975V85.1972H95.876Z" fill="#191923"/>
<path d="M108.36 85.1972V69.8948H110.308V83.6765H118.459V85.1972H108.36Z" fill="#191923"/>
</g>
<g id="AGENCY">
<path d="M43.8379 99.4393L46.0658 93.5591H46.7049L48.9237 99.4393H48.4124L47.7641 97.7227H45.0066L44.3583 99.4393H43.8379ZM45.1162 97.3118H47.6454L46.3762 93.9608L45.1162 97.3118Z" fill="#191923"/>
<path d="M53.5923 99.5306C52.9714 99.5306 52.4601 99.4119 52.0583 99.1745C51.6627 98.931 51.3674 98.5962 51.1726 98.1701C50.9839 97.7379 50.8896 97.2357 50.8896 96.6635C50.8896 96.0244 50.9779 95.4674 51.1544 94.9926C51.3309 94.5117 51.617 94.1374 52.0127 93.8695C52.4083 93.6017 52.9318 93.4678 53.5832 93.4678C53.918 93.4678 54.2223 93.4891 54.4962 93.5317C54.7762 93.5743 55.0319 93.6352 55.2632 93.7143V94.1617C55.0319 94.0826 54.7762 94.0217 54.4962 93.9791C54.2223 93.9304 53.9362 93.906 53.6379 93.906C53.0658 93.906 52.6153 94.0217 52.2866 94.253C51.9579 94.4782 51.7235 94.7978 51.5835 95.2117C51.4496 95.6196 51.3827 96.1035 51.3827 96.6635C51.3827 97.4305 51.5592 98.0301 51.9122 98.4623C52.2714 98.8884 52.8497 99.1014 53.6471 99.1014C53.9332 99.1014 54.2132 99.0771 54.4871 99.0284C54.7671 98.9736 55.0076 98.9066 55.2084 98.8275V96.7366H53.5375V96.3348H55.665V99.0832C55.5006 99.1927 55.251 99.2962 54.9162 99.3936C54.5875 99.4849 54.1462 99.5306 53.5923 99.5306Z" fill="#191923"/>
<path d="M58.3112 99.4393V93.5591H62.1552V93.97H58.8134V96.2983H61.8356V96.7001H58.8134V99.0375H62.1552V99.4393H58.3112Z" fill="#191923"/>
<path d="M64.7119 99.4393V93.5591H65.1867L68.8299 98.6905V93.5591H69.3321V99.4393H68.8482L65.2141 94.3169V99.4393H64.7119Z" fill="#191923"/>
<path d="M74.685 99.5306C74.0641 99.5306 73.5528 99.4119 73.151 99.1745C72.7554 98.931 72.4601 98.5962 72.2653 98.1701C72.0766 97.7379 71.9823 97.2357 71.9823 96.6635C71.9823 96.0244 72.0705 95.4674 72.2471 94.9926C72.4236 94.5117 72.7097 94.1374 73.1054 93.8695C73.501 93.6017 74.0245 93.4678 74.6758 93.4678C75.0106 93.4678 75.315 93.4921 75.5889 93.5408C75.8689 93.5834 76.1246 93.6473 76.3559 93.7326V94.18C76.1246 94.0947 75.8689 94.0278 75.5889 93.9791C75.315 93.9304 75.0259 93.906 74.7215 93.906C74.1554 93.906 73.708 94.0217 73.3793 94.253C73.0506 94.4782 72.8162 94.7978 72.6762 95.2117C72.5423 95.6196 72.4753 96.1035 72.4753 96.6635C72.4753 97.4305 72.6549 98.0301 73.0141 98.4623C73.3732 98.8884 73.9515 99.1014 74.7489 99.1014C75.0167 99.1014 75.2937 99.0801 75.5798 99.0375C75.8659 98.9949 76.1246 98.934 76.3559 98.8549V99.3023C76.1246 99.3754 75.8689 99.4301 75.5889 99.4667C75.315 99.5093 75.0137 99.5306 74.685 99.5306Z" fill="#191923"/>
<path d="M80.6791 99.4393V97.2388L78.5881 93.5591H79.1086L80.9347 96.8005L82.7609 93.5591H83.2813L81.1813 97.2388V99.4393H80.6791Z" fill="#191923"/>
</g>
<path id="Vector" fill-rule="evenodd" clip-rule="evenodd" d="M86.8456 0.0526914C86.8955 8.73989 86.9661 17.4103 86.9661 25.9441C86.9661 34.388 87.0465 43.0417 86.9966 51.6848C86.7506 51.7645 86.4808 51.7298 86.2288 51.7298C82.2619 51.7301 78.3648 51.7557 74.3374 51.7451C74.3225 51.7247 74.2972 51.7149 74.2772 51.7C74.2224 50.4228 74.2759 49.0909 74.2619 47.7863C74.2577 47.3649 74.1977 46.9314 74.2921 46.5368C74.3043 46.5338 74.307 46.5216 74.3222 46.5216C76.73 46.444 79.203 46.5533 81.5925 46.4915C81.6832 46.489 81.7599 46.4942 81.8333 46.4464C81.8695 32.7939 81.7946 18.9932 81.728 5.44208C81.7146 5.43538 81.7012 5.42868 81.6978 5.41194C68.189 5.40341 54.4775 5.46522 40.8606 5.50205C40.8539 5.51545 40.8475 5.52915 40.8304 5.53219C40.7936 15.6871 40.8907 26.0117 40.8907 36.3307C40.8907 39.2672 40.9209 42.2121 40.9209 45.2122C40.9209 45.6862 40.8755 46.2168 40.9659 46.5368C46.2327 46.581 51.6389 46.5365 56.9815 46.5368C59.1399 46.5368 61.1775 46.5216 63.3488 46.5216C64.4119 46.5216 65.4725 46.5581 66.525 46.4765C66.6133 44.5195 66.5128 42.456 66.5399 40.6058C66.5469 40.1315 66.5569 39.6876 66.5548 39.191C66.5542 39.0434 66.4951 38.8869 66.5849 38.7545C66.5971 38.7517 66.5999 38.7395 66.6151 38.7395C69.1112 38.7024 71.7549 38.7462 74.1864 38.6945C74.1931 38.6811 74.1995 38.6677 74.2166 38.6643C74.2622 31.2619 74.1709 23.9585 74.1715 16.5213C74.1715 15.9907 74.184 15.4573 74.1715 14.9257C74.1575 14.3448 74.1776 13.718 74.1265 13.1797C70.981 13.0719 67.729 13.2168 64.5081 13.1648C62.3834 13.1304 60.2596 13.1797 58.1109 13.1797C55.95 13.1797 53.8351 13.1946 51.7737 13.1946C50.9676 13.1946 50.1758 13.2098 49.3504 13.2098C49.1014 13.2098 48.8417 13.1739 48.5979 13.2549C48.5951 13.2674 48.5829 13.2698 48.5829 13.285C48.5738 15.393 48.5528 17.4889 48.5979 19.5923C48.6423 21.6675 48.5555 23.8221 48.6131 25.8844C48.6426 26.9476 48.6332 28.0265 48.6131 29.0909C48.5927 30.1534 48.628 31.2172 48.628 32.2821C48.628 34.4093 48.639 36.5423 48.6429 38.6646C48.6517 38.696 48.6746 38.7134 48.688 38.7398C51.9199 38.7886 55.3128 38.7639 58.5773 38.7249C58.5971 38.7194 58.6011 38.6984 58.6224 38.6948C58.6857 36.2978 58.5962 33.6272 58.6525 31.1082C58.6647 31.1051 58.6674 31.093 58.6827 31.093C61.2387 31.0053 63.9808 31.1197 66.4948 31.0178C66.5499 30.3187 66.5374 29.431 66.4948 28.7295C66.2997 28.6555 65.8132 28.6994 65.4713 28.6994C63.2687 28.6991 60.9206 28.71 58.6979 28.6841C58.6735 28.6884 58.6717 28.6701 58.6528 28.6692C58.6017 26.8906 58.6032 25.0612 58.6227 23.2954C58.6361 23.2887 58.6495 23.282 58.6528 23.2652C61.2031 23.1876 63.8176 23.2509 66.4199 23.2049C66.4443 23.2092 66.4458 23.1906 66.465 23.19C66.465 23.19 66.4951 22.0943 66.4951 21.5192C66.4951 21.5192 66.5143 21.0598 66.465 20.917C66.2842 20.8412 66.072 20.8521 65.878 20.8567C62.8163 20.9301 59.4203 20.8101 56.3199 20.917C56.3172 20.9292 56.3047 20.9319 56.3047 20.9471C56.2167 25.8957 56.3732 31.0129 56.3199 36.0753C56.3187 36.1843 56.3385 36.289 56.2749 36.3612C54.5584 36.366 52.7431 36.4315 51.0516 36.3612C50.9722 35.5206 51.0063 34.6617 51.0063 33.8023C51.0063 28.6546 50.9615 23.4695 50.9612 18.2223C50.9612 17.5976 50.9612 16.9284 50.9612 16.2805C50.9612 16.0236 50.9292 15.78 50.9761 15.6031C57.7505 15.5474 64.9197 15.5355 71.7333 15.5428C71.7418 15.5645 71.757 15.5797 71.7786 15.5879C71.8185 22.4578 71.8748 29.48 71.8237 36.3158C69.3377 36.387 66.7795 36.3161 64.2523 36.3609C64.2325 36.3663 64.2286 36.3874 64.2073 36.391C64.1452 36.6872 64.1747 36.9987 64.1622 37.3092C64.1251 38.2381 64.1771 39.2099 64.1771 40.1845C64.1771 41.4903 64.1896 42.8146 64.1622 44.0982C63.9756 44.1719 63.7728 44.1432 63.5753 44.1432C57.6555 44.1435 51.8955 44.1737 45.9639 44.1734C45.337 44.1734 44.6782 44.1734 44.0069 44.1734C43.7536 44.1734 43.5061 44.202 43.3146 44.1585C43.237 41.1718 43.2696 38.1154 43.2696 35.0816C43.2696 25.9557 43.1658 17.0739 43.1944 7.92609C43.1834 7.88499 43.2242 7.89564 43.2245 7.86581C55.1993 7.8381 67.417 7.74677 79.3503 7.79061C79.4623 9.28242 79.3463 10.8038 79.3954 12.3217C79.4444 13.8343 79.4103 15.3568 79.4103 16.8678C79.4109 25.819 79.4849 34.5692 79.4855 43.5718C79.4855 43.7438 79.5223 43.9374 79.4404 44.0988C79.4282 44.1015 79.4255 44.1137 79.4103 44.1137C76.9376 44.1512 74.3922 44.1024 71.9144 44.1588C71.9117 44.1709 71.8992 44.1737 71.8995 44.1889C71.8423 46.3794 71.8843 48.5657 71.8843 50.8122C71.8843 51.1164 71.9208 51.426 71.8392 51.7152C68.8433 51.7636 65.8312 51.7603 62.8081 51.7603C53.7541 51.76 44.5997 51.8102 35.6084 51.7454C35.546 50.6908 35.5634 49.623 35.5634 48.5541C35.5634 46.3825 35.5484 44.2075 35.5484 42.0361C35.5484 40.3991 35.5484 38.805 35.5484 37.174C35.5484 24.7531 35.413 12.4764 35.4583 0.173863C36.371 0.120279 37.6287 0.143113 38.5575 0.143113C43.6069 0.143113 48.7726 0.112973 53.8506 0.112973C54.8821 0.112973 55.9184 0.130326 56.9513 0.0977501C58.5003 0.0493425 60.02 0.082832 61.5724 0.082832C65.1386 0.082832 68.7878 0.0679139 72.41 0.0679139C75.958 0.0679139 79.5521 0.0228553 83.1728 0.0228553C84.1275 0.0228553 84.8539 0.0262042 85.7916 0.00793717C86.1122 0.00123925 86.6084 -0.0194634 86.8456 0.0526914Z" fill="#191923"/>
<path id="Vector 14 (Stroke)" fill-rule="evenodd" clip-rule="evenodd" d="M122 96.3199H86.8652V96.2021H122V96.3199Z" fill="#191923"/>
<path id="Vector 15 (Stroke)" fill-rule="evenodd" clip-rule="evenodd" d="M35.1345 96.3199H0V96.2021H35.1345V96.3199Z" fill="#191923"/>
</g>
</g>
</svg>
