<svg width="123" height="59" viewBox="0 0 123 59" fill="none" xmlns="http://www.w3.org/2000/svg">
<g id="_&#208;&#160;&#208;&#181;&#208;&#182;&#208;&#184;&#208;&#188;_&#208;&#184;&#208;&#183;&#208;&#190;&#208;&#187;&#209;&#143;&#209;&#134;&#208;&#184;&#208;&#184;" opacity="0.8" clip-path="url(#clip0_1195_16237)">
<path id="Vector" d="M49.5155 13.6841C51.4376 12.1992 53.2747 10.9122 55.721 11.0631C58.1673 11.2139 59.9335 12.4019 61.2133 14.2545C62.5167 13.3966 63.6502 12.4632 64.9347 11.8362C68.9489 9.87512 73.3314 11.7136 74.4696 16.3712C75.4849 20.5338 74.7435 24.6869 74.9701 28.8354C74.989 29.2031 74.2854 29.7452 73.8084 29.962C73.3834 30.1553 72.8025 29.9715 72.2924 30.0186C71.3243 30.1082 70.989 29.7169 70.9985 28.7411C71.0363 25.3233 71.0315 21.9103 70.9796 18.4926C70.956 17.0689 70.3656 15.8432 69.1567 15.0182C68.0799 14.2875 66.9323 14.3064 65.695 14.7118C62.5829 15.7254 62.0067 18.1956 61.9642 20.9769C61.9264 23.5272 61.9123 26.0823 61.9736 28.6326C61.9973 29.7263 61.5958 30.1459 60.5333 30.0092C60.2216 29.9715 59.9004 29.9762 59.5887 30.0092C58.6915 30.0987 58.4364 29.665 58.4506 28.8306C58.4837 26.2379 58.512 23.6451 58.4412 21.057C58.4034 19.6994 58.2475 18.3323 57.9972 16.9982C57.6383 15.0795 54.8756 13.8444 52.878 14.6317C50.5214 15.5604 49.3786 17.2433 49.3738 19.7842C49.3738 22.7683 49.3408 25.7523 49.3833 28.7364C49.3975 29.7122 49.0574 30.1223 48.0893 30.0186C47.7776 29.9856 47.4565 29.9856 47.1448 30.0186C45.983 30.1412 45.6194 29.5236 45.6288 28.4818C45.643 25.5779 45.6383 22.6693 45.6383 19.7654C45.6383 17.5686 45.6241 15.3671 45.6383 13.1703C45.6477 11.7372 45.8555 11.5581 47.2817 11.5439C47.5179 11.5439 47.754 11.5628 47.9901 11.5392C48.9441 11.4308 49.5297 11.6995 49.3738 12.8073C49.3502 12.9864 49.4258 13.1797 49.5108 13.6936L49.5155 13.6841Z" fill="#191923"/>
<path id="Vector_2" d="M89.4864 11.0154C90.7945 11.4915 92.4663 12.0006 94.0389 12.7125C94.8417 13.0755 95.3187 12.9482 95.7013 12.2929C96.4096 11.0767 97.3541 11.6471 98.2609 11.8922C99.3707 12.1892 99.1157 13.0189 98.9834 13.7967C98.889 14.3718 98.7048 14.947 98.7001 15.5221C98.667 18.8408 98.6387 22.1596 98.6859 25.4783C98.7001 26.4825 98.9409 27.4818 99.1157 28.4812C99.281 29.4146 98.5773 29.6833 97.9681 29.8059C97.2314 29.9521 96.301 30.4329 95.7721 29.4288C95.229 28.3917 94.5678 28.3068 93.5808 28.8442C90.53 30.5083 87.3423 30.4753 84.3765 28.8678C82.5583 27.8778 81.0802 26.2137 80.3624 24.1725C78.9645 20.1891 79.7343 16.0689 83.1014 13.2357C84.8252 11.7838 86.9456 11.4821 89.4816 11.0201L89.4864 11.0154ZM88.9999 26.0299C92.7921 26.2892 94.4687 23.1166 94.5489 20.6841C94.6528 17.4455 92.0271 14.8385 88.9291 14.8904C86.4167 14.9328 83.3942 17.0778 83.3754 20.7029C83.3612 23.7765 86.1947 26.3457 88.9999 26.0299Z" fill="#191923"/>
<path id="Vector_3" d="M79.6084 48.13C79.5659 43.5573 82.952 39.9699 87.004 39.0601C89.5494 38.4896 91.7029 39.1261 93.8706 40.149C94.612 40.4979 95.0796 40.6676 95.5707 39.7719C96.0146 38.9658 97.3322 38.9846 98.5554 39.5739C99.4951 40.0265 99.0607 40.7571 98.9946 41.403C98.9284 42.0205 98.7159 42.6239 98.6876 43.2368C98.5176 46.5508 98.324 49.8648 98.6687 53.1742C98.7348 53.7917 98.8529 54.4046 98.9662 55.0174C99.1221 55.8235 99.4149 56.6202 98.3098 57.0728C97.1386 57.5536 96.1799 57.4169 95.6226 56.4882C95.1126 55.6397 94.4656 55.7009 93.7289 56.1111C92.1988 56.9643 90.5884 57.3886 88.8033 57.3556C84.8788 57.2896 81.4927 55.0457 80.2885 51.2885C79.9626 50.2655 79.8257 49.1766 79.6037 48.1206L79.6084 48.13ZM89.0063 53.6314C92.7702 53.8954 94.5978 50.7464 94.5459 48.1772C94.4798 44.9763 92.3121 42.4071 88.8552 42.4825C85.9508 42.5438 83.2967 44.7076 83.2495 48.1725C83.207 51.0764 85.5872 53.7634 89.0063 53.6314Z" fill="#191923"/>
<path id="Vector_4" d="M1.44061 30.0086V0.955415C2.42763 0.955415 3.43826 0.889417 4.43 1.00256C4.67085 1.03084 5.01087 1.64839 5.01559 2.00195C5.05338 5.37727 5.02032 8.7573 5.03921 12.1326C5.03921 12.5805 5.19505 13.0236 5.26117 13.3866C6.68738 12.6559 7.85386 11.8828 9.13839 11.4396C12.2742 10.3601 16.1561 11.5952 17.4501 15.1921C17.7476 16.0218 17.9365 16.9316 17.9554 17.8084C18.0215 21.4619 17.9838 25.1106 18.0263 28.7641C18.0357 29.6456 17.7854 30.0275 16.8267 30.0275C14.5599 30.0275 14.5599 30.0699 14.5599 27.8495C14.5599 25.4925 14.6071 23.1354 14.541 20.7831C14.5032 19.5432 14.3521 18.294 14.0876 17.0825C13.8137 15.8049 11.6083 13.9994 9.39341 14.5227C7.56578 14.9517 6.01678 15.9086 5.29423 17.7801C5.12894 18.2044 5.06282 18.6853 5.0581 19.1425C5.03921 22.2821 5.01087 25.4265 5.07699 28.5661C5.1006 29.6928 4.75113 30.1595 3.60355 30.0322C2.94711 29.9615 2.27178 30.018 1.45006 30.018L1.44061 30.0086Z" fill="#191923"/>
<path id="Vector_5" d="M56.6879 48.408C57.2687 53.603 51.7669 58.1757 46.9688 58.0437C42.2321 57.9117 37.4859 53.8859 37.604 48.1158C37.7126 42.7416 41.7976 38.6356 47.2663 38.6734C51.9133 38.7064 57.1507 42.4729 56.6926 48.4033L56.6879 48.408ZM52.6878 48.309C52.6878 47.9555 52.702 47.6019 52.6878 47.2531C52.5792 44.7782 50.9263 42.7511 48.5225 42.1241C46.1565 41.5065 43.6677 42.5012 42.3029 44.5377C40.3572 47.4416 40.8389 51.8635 44.3478 53.7916C45.7882 54.5835 47.3561 54.8004 48.957 54.2111C51.7197 53.2023 52.7634 51.0998 52.6878 48.3043V48.309Z" fill="#191923"/>
<path id="Vector_6" d="M35.199 28.0253C32.7763 30.6181 28.101 31.4384 25.4375 29.0719C23.7562 27.5775 23.0053 25.5693 22.9345 23.4055C22.8164 19.8793 22.9203 16.3437 22.8778 12.8081C22.8684 11.8182 23.2651 11.5117 24.2096 11.5259C27.0148 11.5636 26.6276 11.3467 26.6417 13.8877C26.6559 16.7539 26.6889 19.62 26.6417 22.4815C26.5851 25.8286 29.3478 27.8179 32.6158 26.3565C34.5048 25.5127 35.6477 24.2965 35.5201 22.0007C35.3643 19.1439 35.4824 16.273 35.4871 13.4068C35.4871 11.6579 35.6193 11.5353 37.3525 11.5306C37.7067 11.5306 38.1128 11.4269 38.4009 11.5636C38.7315 11.7239 39.1896 12.101 39.1943 12.3886C39.2415 17.9607 39.2274 23.5328 39.2368 29.1096C39.2368 29.7601 38.9629 30.043 38.3159 30.0006C37.9617 29.977 37.6028 29.9581 37.2533 30.0053C36.016 30.1703 35.3974 29.6564 35.3974 28.4025C35.3974 28.2941 35.336 28.1809 35.2935 28.0725C35.284 28.0442 35.2321 28.0348 35.199 28.0206V28.0253Z" fill="#191923"/>
<path id="Vector_7" d="M122.273 33.6396C122.184 39.8387 120.158 44.3501 115.605 47.7726C113.23 49.5592 110.722 50.7519 107.808 51.1526C106.996 51.2658 106.198 51.2422 106.042 50.1344C105.848 48.7861 106.255 47.8433 107.294 47.6123C110.543 46.8863 113.353 45.4344 115.624 42.9406C117.131 41.2859 118.16 39.4286 118.552 37.2176C118.873 35.4027 119.076 33.6396 118.595 31.7728C117.183 26.3044 113.716 22.9951 108.309 21.6374C106.292 21.133 105.976 20.9256 105.985 19.5962C105.995 18.0547 106.798 17.357 108.243 17.8379C110.037 18.4318 111.851 19.0588 113.523 19.9215C116.592 21.5054 119.223 23.6834 120.578 26.9456C121.542 29.2649 122.524 31.6503 122.273 33.6396Z" fill="#191923"/>
<path id="Vector_8" d="M19.9315 41.1631C20.9752 40.5361 21.9008 39.862 22.9256 39.3859C26.4534 37.7359 30.5856 38.9805 32.0874 42.6481C32.5077 43.671 32.7391 44.8307 32.7674 45.9385C32.8572 49.3516 32.7769 52.7693 32.8241 56.1823C32.8383 57.1393 32.451 57.3797 31.5679 57.3797C29.0413 57.3892 29.0461 57.4174 29.0413 54.9284C29.0319 51.9066 29.0697 48.8802 28.9799 45.8631C28.9138 43.5768 26.8123 41.7665 24.5549 42.0824C22.647 42.3464 21.0791 43.3458 20.0071 44.9816C19.7945 45.3068 19.8134 45.8065 19.8087 46.2308C19.7945 49.4883 19.7662 52.7457 19.8182 56.0032C19.8323 57.0026 19.5584 57.4127 18.4958 57.3845C15.6434 57.3137 16.0401 57.573 16.0259 54.9142C16.0071 50.1247 16.0496 45.3351 15.9882 40.5503C15.974 39.3906 16.366 38.9663 17.471 39.1219C17.5088 39.1266 17.5513 39.1219 17.5891 39.1219C18.9587 39.1156 19.7363 39.7945 19.9221 41.1584L19.9315 41.1631Z" fill="#191923"/>
<path id="Vector_9" d="M77.6083 39.1638C76.4088 41.8226 75.3131 44.0995 74.3497 46.4236C73.051 49.5538 71.842 52.7216 70.6047 55.8754C70.2883 56.6815 70.038 57.5301 68.881 57.3604C67.7192 57.1906 66.3639 57.9119 65.7169 56.0404C64.8574 53.5513 63.5823 51.2084 62.5716 48.7665C61.3532 45.8107 60.2198 42.8173 59.0675 39.8379C59.0061 39.6776 59.077 39.4655 59.0911 39.1449C60.1395 39.1449 61.1738 39.0412 62.1608 39.1968C62.5433 39.2581 62.94 39.8709 63.1336 40.3141C64.1112 42.5627 65.0463 44.8302 65.9625 47.1071C66.5953 48.6769 67.1573 50.275 67.7712 51.8542C67.8704 52.1041 68.0687 52.3162 68.3899 52.8018C69.3391 50.2514 70.1703 47.9887 71.0298 45.7353C71.7854 43.7507 72.5646 41.7754 73.358 39.8096C73.4619 39.5551 73.7169 39.1921 73.92 39.1827C75.0345 39.1214 76.1537 39.1544 77.613 39.1544L77.6083 39.1638Z" fill="#191923"/>
</g>
<defs>
<clipPath id="clip0_1195_16237">
<rect width="121.837" height="57.107" fill="white" transform="translate(0.478516 0.936279)"/>
</clipPath>
</defs>
</svg>
