<svg width="85" height="85" viewBox="0 0 85 85" fill="none" xmlns="http://www.w3.org/2000/svg">
<g id="icon-park-outline:circular-connection">
<g id="Group">
<path id="Vector" d="M23.9063 69.7177C29.2045 73.8913 35.7554 76.156 42.5 76.1458C49.5179 76.1458 55.9761 73.7446 61.0938 69.7177M33.6459 17.2603C21.3404 21.041 12.3959 32.4966 12.3959 46.0417C12.3959 49.4505 12.9625 52.7266 14.0073 55.7813M51.3542 17.2603C63.6597 21.041 72.6042 32.4966 72.6042 46.0417C72.6042 49.4505 72.0375 52.7266 70.9927 55.7813" stroke="url(#paint0_linear_1195_16141)" stroke-width="4"/>
<path id="Vector_2" d="M76.1459 63.75C76.1459 66.1264 75.2108 68.2833 73.6879 69.8735C72.2658 71.3593 70.3707 72.3036 68.3281 72.5444C66.2855 72.7851 64.2229 72.3073 62.4942 71.1929C60.7656 70.0785 59.4788 68.3971 58.8548 66.4373C58.2308 64.4775 58.3086 62.3616 59.0747 60.4529C59.8409 58.5442 61.2476 56.9617 63.0534 55.9772C64.8591 54.9927 66.9513 54.6676 68.9707 55.0576C70.9901 55.4476 72.8108 56.5285 74.1201 58.1146C75.4293 59.7008 76.1456 61.6933 76.1459 63.75ZM26.5625 63.75C26.5625 66.1264 25.6275 68.2833 24.1046 69.8735C22.6824 71.3593 20.7874 72.3036 18.7448 72.5444C16.7022 72.7851 14.6395 72.3073 12.9109 71.1929C11.1822 70.0785 9.89546 68.3971 9.27149 66.4373C8.64752 64.4775 8.72528 62.3616 9.49141 60.4529C10.2575 58.5442 11.6642 56.9617 13.47 55.9772C15.2758 54.9927 17.368 54.6676 19.3874 55.0576C21.4068 55.4476 23.2274 56.5285 24.5367 58.1146C25.846 59.7008 26.5623 61.6933 26.5625 63.75ZM51.3542 15.9375C51.3542 18.3139 50.4192 20.4708 48.8963 22.061C47.4741 23.5468 45.579 24.4911 43.5365 24.7319C41.4939 24.9726 39.4312 24.4948 37.7025 23.3804C35.9739 22.266 34.6871 20.5846 34.0632 18.6248C33.4392 16.665 33.5169 14.5491 34.2831 12.6404C35.0492 10.7317 36.4559 9.14925 38.2617 8.16474C40.0675 7.18022 42.1597 6.85506 44.1791 7.24509C46.1985 7.63511 48.0191 8.71598 49.3284 10.3021C50.6377 11.8883 51.3539 13.8808 51.3542 15.9375Z" stroke="url(#paint1_linear_1195_16141)" stroke-width="4" stroke-linecap="round" stroke-linejoin="round"/>
</g>
</g>
<defs>
<linearGradient id="paint0_linear_1195_16141" x1="42.5" y1="17.2603" x2="42.5" y2="76.1459" gradientUnits="userSpaceOnUse">
<stop stop-color="#8D1038"/>
<stop offset="1" stop-color="#191923"/>
</linearGradient>
<linearGradient id="paint1_linear_1195_16141" x1="42.5" y1="7.08441" x2="42.5" y2="72.6053" gradientUnits="userSpaceOnUse">
<stop stop-color="#8D1038"/>
<stop offset="1" stop-color="#191923"/>
</linearGradient>
</defs>
</svg>
