<svg width="121" height="103" viewBox="0 0 121 103" fill="none" xmlns="http://www.w3.org/2000/svg">
<g id="Group 5456">
<g id="Group 5367">
<path id="Rectangle 611" d="M116.091 92.3174C116.091 97.8402 111.614 102.317 106.091 102.317L14.919 102.317C9.39616 102.317 4.91901 97.8402 4.91901 92.3174L4.919 13.9353C4.919 8.41242 9.39615 3.93526 14.919 3.93526L106.091 3.93525C111.614 3.93525 116.091 8.4124 116.091 13.9352L116.091 92.3174Z" fill="#F2F1EE"/>
<path id="Rectangle 612" d="M110.68 88.3823C110.68 93.6335 106.423 97.8904 101.172 97.8904L10.0001 97.8904C4.74889 97.8904 0.491973 93.6335 0.491973 88.3823L0.491966 10.0002C0.491966 4.74903 4.74888 0.492113 10.0001 0.492112L101.172 0.492104C106.423 0.492104 110.68 4.74902 110.68 10.0002L110.68 88.3823Z" stroke="#1B1B1B" stroke-width="0.983821"/>
</g>
<g id="Group 5408">
<path id="Vector 106" d="M33.8444 28.794L73.5944 28.794V19.0773C73.5944 16.7218 74.6791 13.8884 79.0416 13.3356C79.0755 13.3314 53.3759 13.0902 38.1138 13.3356C36.7888 13.3356 33.8444 15.1024 33.8444 18.0469C33.8444 22.4635 33.599 27.0274 33.8444 28.794Z" fill="#E7EBF0"/>
<path id="Vector 108" d="M76.3155 83.2663H98.1189V33.5051C98.1189 31.9817 100.646 29.5932 103.481 29.2357C103.503 29.2329 90.1384 29.077 80.2196 29.2357C79.3585 29.2357 76.3155 30.6867 76.3155 32.5909C76.3155 35.4473 76.156 82.1237 76.3155 83.2663Z" fill="#E7EBF0"/>
<path id="Vector 110" d="M109.075 83.2659H116.584C117.761 83.2659 120.264 81.0576 120.853 77.8187C121.147 76.1992 120.804 71.2918 121 69.5742L119.381 70.3104L118.056 69.427L116.584 70.4576L115.111 69.427L113.639 70.4576L112.02 69.427L110.989 70.3104L109.075 68.9854V83.2659Z" fill="#E7EBF0"/>
<path id="Vector 107" d="M85.0776 83.414H73.5942V19.2252C73.5942 14.2191 77.422 13.4583 79.4831 13.483C81.5442 13.5076 84.4887 14.5132 85.0776 19.2252C85.0776 19.2252 85.0776 77.6714 85.0776 83.414Z" fill="#BDC6D1"/>
<path id="Vector 109" d="M98.0334 83.2662H109.517H113.639C112.412 83.0699 109.87 81.794 109.517 78.2606V34.1611C109.517 31.1495 105.983 29.2516 103.922 29.2355C101.861 29.2194 98.0334 30.894 98.0334 34.1611V77.9271C97.788 79.5957 96.62 82.5595 93.9111 83.2662H98.0334Z" fill="#BDC6D1"/>
<g id="Group 5407">
<path id="Rectangle 627" d="M30.8999 29.7728C30.8999 28.2985 31.8109 26.983 33.2094 26.5162C37.7501 25.0006 48.1159 21.8745 56.3693 21.8745C65.5519 21.8745 75.8153 24.7011 80.3496 26.106C81.7792 26.549 82.7221 27.8802 82.7221 29.3769V76.0897C82.7221 77.4211 81.9731 78.634 80.7394 79.1346C76.9448 80.6741 67.9771 83.7074 56.2221 83.7074C44.5223 83.7074 36.2334 80.7025 32.7426 79.1563C31.5814 78.642 30.8999 77.4758 30.8999 76.2057V29.7728Z" fill="#9DA9B8"/>
<path id="Rectangle 626" d="M25.3057 29.7449C25.3057 28.2848 26.2042 26.9777 27.5873 26.5098C31.9394 25.0374 41.7819 22.0735 50.6279 22.022C58.3463 21.977 67.3293 23.4983 72.6046 24.5523C75.2686 25.0845 77.1279 27.4441 77.1279 30.1607V76.0904C77.1279 77.4218 76.3789 78.6347 75.1452 79.1352C71.3505 80.6748 62.3829 83.708 50.6279 83.708C38.9281 83.708 30.6392 80.7032 27.1484 79.157C25.9871 78.6427 25.3057 77.4765 25.3057 76.2064V29.7449Z" fill="#D4DAE8"/>
<rect id="Rectangle 628" x="31.7832" y="31.002" width="39.75" height="17.6667" rx="2.35556" fill="white"/>
<path id="*" d="M40.2095 42.8946C40.0646 42.9773 39.88 42.9231 39.8027 42.7754L39.1603 41.5476C39.0504 41.3376 38.75 41.3369 38.6391 41.5465L37.9935 42.7674C37.9149 42.916 37.728 42.9688 37.5833 42.8833L37.2613 42.6929C37.1175 42.6079 37.0732 42.4204 37.1636 42.28L37.9136 41.115C38.0424 40.9148 37.8928 40.6524 37.6548 40.6614L36.2703 40.7139C36.1034 40.7203 35.9647 40.5867 35.9647 40.4197L35.9647 40.0455C35.9648 39.8774 36.1053 39.7435 36.2732 39.7515L37.6528 39.8172C37.8896 39.8285 38.042 39.5696 37.9171 39.3681L37.1874 38.1902C37.0995 38.0484 37.1469 37.862 37.2918 37.7793L37.6126 37.5963C37.7575 37.5137 37.9421 37.5678 38.0194 37.7156L38.6618 38.9433C38.7717 39.1534 39.0722 39.154 39.183 38.9444L39.8287 37.7235C39.9072 37.5749 40.0941 37.5221 40.2388 37.6077L40.5608 37.7981C40.7046 37.8831 40.749 38.0705 40.6586 38.2109L39.9086 39.3759C39.7797 39.5761 39.9294 39.8385 40.1673 39.8295L41.5518 39.777C41.7187 39.7706 41.8575 39.9042 41.8575 40.0713L41.8574 40.4454C41.8574 40.6135 41.7168 40.7474 41.5489 40.7394L40.1693 40.6737C39.9325 40.6624 39.7802 40.9213 39.905 41.1229L40.6348 42.3008C40.7226 42.4426 40.6752 42.6289 40.5303 42.7116L40.2095 42.8946Z" fill="#1C3754"/>
<path id="*_2" d="M48.4536 42.8946C48.3087 42.9773 48.1242 42.9231 48.0469 42.7754L47.4045 41.5476C47.2945 41.3376 46.9941 41.3369 46.8833 41.5465L46.2376 42.7674C46.159 42.916 45.9722 42.9688 45.8275 42.8833L45.5054 42.6929C45.3617 42.6079 45.3173 42.4204 45.4077 42.28L46.1577 41.115C46.2866 40.9148 46.1369 40.6524 45.899 40.6614L44.5144 40.7139C44.3475 40.7203 44.2088 40.5867 44.2088 40.4197L44.2089 40.0455C44.2089 39.8774 44.3494 39.7435 44.5173 39.7515L45.8969 39.8172C46.1337 39.8285 46.2861 39.5696 46.1613 39.3681L45.4315 38.1902C45.3437 38.0484 45.391 37.862 45.5359 37.7793L45.8568 37.5963C46.0017 37.5137 46.1862 37.5678 46.2636 37.7156L46.906 38.9433C47.0159 39.1534 47.3163 39.154 47.4271 38.9444L48.0728 37.7235C48.1514 37.5749 48.3382 37.5221 48.4829 37.6077L48.805 37.7981C48.9488 37.8831 48.9931 38.0705 48.9027 38.2109L48.1527 39.3759C48.0238 39.5761 48.1735 39.8385 48.4115 39.8295L49.796 39.777C49.9629 39.7706 50.1016 39.9042 50.1016 40.0713L50.1015 40.4454C50.1015 40.6135 49.961 40.7474 49.7931 40.7394L48.4135 40.6737C48.1767 40.6624 48.0243 40.9213 48.1492 41.1229L48.8789 42.3008C48.9668 42.4426 48.9194 42.6289 48.7745 42.7116L48.4536 42.8946Z" fill="#1C3754"/>
<path id="*_3" d="M56.6983 42.8946C56.5534 42.9773 56.3688 42.9231 56.2915 42.7754L55.6491 41.5476C55.5392 41.3376 55.2387 41.3369 55.1279 41.5465L54.4822 42.7674C54.4037 42.916 54.2168 42.9688 54.0721 42.8833L53.7501 42.6929C53.6063 42.6079 53.5619 42.4204 53.6523 42.28L54.4023 41.115C54.5312 40.9148 54.3815 40.6524 54.1436 40.6614L52.7591 40.7139C52.5922 40.7203 52.4534 40.5867 52.4535 40.4197L52.4535 40.0455C52.4535 39.8774 52.5941 39.7435 52.762 39.7515L54.1416 39.8172C54.3784 39.8285 54.5307 39.5696 54.4059 39.3681L53.6761 38.1902C53.5883 38.0484 53.6357 37.862 53.7806 37.7793L54.1014 37.5963C54.2463 37.5137 54.4309 37.5678 54.5082 37.7156L55.1506 38.9433C55.2605 39.1534 55.5609 39.154 55.6718 38.9444L56.3174 37.7235C56.396 37.5749 56.5829 37.5221 56.7276 37.6077L57.0496 37.7981C57.1934 37.8831 57.2377 38.0705 57.1473 38.2109L56.3973 39.3759C56.2685 39.5761 56.4181 39.8385 56.6561 39.8295L58.0406 39.777C58.2075 39.7706 58.3462 39.9042 58.3462 40.0713L58.3462 40.4454C58.3461 40.6135 58.2056 40.7474 58.0377 40.7394L56.6581 40.6737C56.4213 40.6624 56.2689 40.9213 56.3938 41.1229L57.1235 42.3008C57.2114 42.4426 57.164 42.6289 57.0191 42.7116L56.6983 42.8946Z" fill="#1C3754"/>
<path id="*_4" d="M64.9429 42.8946C64.798 42.9773 64.6134 42.9231 64.5361 42.7754L63.8937 41.5476C63.7838 41.3376 63.4834 41.3369 63.3725 41.5465L62.7269 42.7674C62.6483 42.916 62.4614 42.9688 62.3167 42.8833L61.9947 42.6929C61.8509 42.6079 61.8066 42.4204 61.897 42.28L62.647 41.115C62.7758 40.9148 62.6262 40.6524 62.3882 40.6614L61.0037 40.7139C60.8368 40.7203 60.6981 40.5867 60.6981 40.4197L60.6981 40.0455C60.6982 39.8774 60.8387 39.7435 61.0066 39.7515L62.3862 39.8172C62.623 39.8285 62.7754 39.5696 62.6505 39.3681L61.9208 38.1902C61.8329 38.0484 61.8803 37.862 62.0252 37.7793L62.346 37.5963C62.4909 37.5137 62.6755 37.5678 62.7528 37.7156L63.3952 38.9433C63.5051 39.1534 63.8056 39.154 63.9164 38.9444L64.5621 37.7235C64.6406 37.5749 64.8275 37.5221 64.9722 37.6077L65.2942 37.7981C65.438 37.8831 65.4824 38.0705 65.392 38.2109L64.642 39.3759C64.5131 39.5761 64.6628 39.8385 64.9007 39.8295L66.2852 39.777C66.4521 39.7706 66.5909 39.9042 66.5908 40.0713L66.5908 40.4454C66.5908 40.6135 66.4502 40.7474 66.2823 40.7394L64.9027 40.6737C64.6659 40.6624 64.5136 40.9213 64.6384 41.1229L65.3682 42.3008C65.456 42.4426 65.4086 42.6289 65.2637 42.7116L64.9429 42.8946Z" fill="#1C3754"/>
<rect id="Rectangle 630" x="45.0332" y="54.2632" width="12.6611" height="7.95" rx="1.17778" fill="#B1B9CC"/>
<rect id="Rectangle 631" x="59.7559" y="54.2632" width="12.6611" height="7.95" rx="1.17778" fill="#B1B9CC"/>
<rect id="Rectangle 633" x="59.7559" y="66.041" width="12.6611" height="7.95" rx="1.17778" fill="#B1B9CC"/>
<rect id="Rectangle 635" x="45.0332" y="66.041" width="12.6611" height="7.95" rx="1.17778" fill="#B1B9CC"/>
<rect id="Rectangle 637" x="30.311" y="66.041" width="12.6611" height="7.95" rx="1.17778" fill="#B1B9CC"/>
<rect id="Rectangle 639" x="30.311" y="54.2632" width="12.6611" height="7.95" rx="1.17778" fill="#FE2831"/>
<rect id="Rectangle 629" x="44.7388" y="54.2632" width="12.3667" height="7.95" rx="1.17778" fill="white"/>
<rect id="Rectangle 632" x="59.4614" y="54.2632" width="12.3667" height="7.95" rx="1.17778" fill="white"/>
<rect id="Rectangle 634" x="59.4614" y="66.041" width="12.3667" height="7.95" rx="1.17778" fill="white"/>
<rect id="Rectangle 636" x="44.7388" y="66.041" width="12.3667" height="7.95" rx="1.17778" fill="white"/>
<rect id="Rectangle 638" x="30.0166" y="66.041" width="12.3667" height="7.95" rx="1.17778" fill="white"/>
<rect id="Rectangle 640" x="30.0166" y="54.2632" width="12.3667" height="7.95" rx="1.17778" fill="#FE4B52"/>
</g>
<g id="card">
<rect id="Rectangle 641" x="61.8169" y="44.252" width="26.2056" height="39.1611" rx="2.35556" fill="url(#paint0_linear_1080_3037)"/>
<rect id="Rectangle 642" x="66.2334" y="44.252" width="5.3" height="39.1611" fill="#ED121B"/>
<circle id="Ellipse 97" cx="82.7223" cy="49.5519" r="2.65" fill="#ED121B"/>
<ellipse id="Ellipse 98" cx="82.7223" cy="52.6434" rx="2.65" ry="2.50278" fill="url(#paint1_linear_1080_3037)"/>
<rect id="Rectangle 643" x="78.6001" y="66.3354" width="1.47222" height="14.1333" rx="0.736111" fill="url(#paint2_linear_1080_3037)"/>
<rect id="Rectangle 645" x="81.5444" y="73.4019" width="1.47222" height="7.06667" rx="0.736111" fill="url(#paint3_linear_1080_3037)"/>
<rect id="Rectangle 644" x="78.6001" y="59.563" width="1.47222" height="4.71111" rx="0.736111" fill="url(#paint4_linear_1080_3037)"/>
</g>
<rect id="Rectangle 646" x="21.7725" y="82.8242" width="99.2278" height="2.06111" rx="1.03056" fill="#B1B9CC"/>
<rect id="Rectangle 647" x="15" y="82.8242" width="5.59444" height="2.06111" rx="1.03056" fill="#B1B9CC"/>
</g>
</g>
<defs>
<linearGradient id="paint0_linear_1080_3037" x1="74.7725" y1="44.252" x2="76.2447" y2="84.5908" gradientUnits="userSpaceOnUse">
<stop stop-color="#FE2831"/>
<stop offset="1" stop-color="#FE4B52"/>
</linearGradient>
<linearGradient id="paint1_linear_1080_3037" x1="82.5456" y1="56.481" x2="82.5456" y2="48.9727" gradientUnits="userSpaceOnUse">
<stop stop-color="#FF9599"/>
<stop offset="1" stop-color="#FE4B52" stop-opacity="0.31"/>
</linearGradient>
<linearGradient id="paint2_linear_1080_3037" x1="79.6307" y1="82.005" x2="79.189" y2="63.8327" gradientUnits="userSpaceOnUse">
<stop stop-color="#FF9599"/>
<stop offset="1" stop-color="#FE4B52" stop-opacity="0"/>
</linearGradient>
<linearGradient id="paint3_linear_1080_3037" x1="82.575" y1="81.2366" x2="82.4645" y2="72.1464" gradientUnits="userSpaceOnUse">
<stop stop-color="#FF9599"/>
<stop offset="1" stop-color="#FE4B52" stop-opacity="0"/>
</linearGradient>
<linearGradient id="paint4_linear_1080_3037" x1="79.6307" y1="64.7862" x2="79.5816" y2="58.7255" gradientUnits="userSpaceOnUse">
<stop stop-color="#FF9599"/>
<stop offset="1" stop-color="#FE4B52" stop-opacity="0"/>
</linearGradient>
</defs>
</svg>
